<svg width="500" height="74" xmlns="http://www.w3.org/2000/svg" xmlns:sketch="http://www.bohemiancoding.com/sketch/ns"><title>logo-cyan</title><desc>Created with Sketch.</desc><g sketch:type="MSLayerGroup" fill="#36B1EA"><path d="M0 .222h28.197c10.932 0 22.169 5.005 22.169 18.185 0 8.173-5.107 13.587-12.566 15.835v.205c9.093 1.022 15.631 8.172 15.631 17.469 0 15.733-13.69 20.638-27.379 20.638h-26.052v-72.331zm12.873 29.423h11.748c8.582 0 12.873-3.678 12.873-9.092 0-6.233-4.291-9.297-13.996-9.297h-10.625v18.39zm0 31.874h11.851c6.64 0 15.834-1.124 15.834-10.625 0-7.56-4.903-10.216-15.324-10.216h-12.362v20.841z" id="Shape" sketch:type="MSShapeGroup"/><path d="M69.151 52.324c.817 7.253 6.334 11.647 13.179 11.647 6.13 0 10.114-2.861 13.178-6.641l8.786 6.641c-5.721 7.049-12.975 9.807-20.738 9.807-14.814 0-26.665-10.318-26.665-25.745 0-15.426 11.85-25.745 26.665-25.745 13.689 0 22.986 9.604 22.986 26.665v3.372h-37.391zm25.132-9.194c-.103-7.152-4.802-11.646-12.464-11.646-7.253 0-11.749 4.596-12.668 11.646h25.132z" id="Shape" sketch:type="MSShapeGroup"/><path d="M107.676 33.934v-10.419h10.114v-14.201h12.26v14.201h13.485v10.419h-13.485v21.455c0 4.903 1.43 7.968 6.844 7.968 2.145 0 5.109-.408 6.641-1.532v10.318c-2.554 1.226-6.845 1.634-9.705 1.634-12.975 0-16.04-5.822-16.04-17.368v-22.476h-10.114z" id="Shape" sketch:type="MSShapeGroup"/><path d="M182.637 65.81h-.307c-3.474 5.516-9.194 7.968-15.732 7.968-9.092 0-17.878-5.006-17.878-14.71 0-15.937 18.593-17.061 30.853-17.061h3.064v-1.329c0-6.028-4.699-9.194-11.237-9.194-5.108 0-9.808 2.042-13.077 5.108l-6.437-6.436c5.415-5.517 13.078-7.868 20.841-7.868 20.943 0 20.943 15.121 20.943 22.067v28.198h-11.034v-6.744zm-.715-15.222h-2.554c-6.743 0-18.389.511-18.389 7.56 0 4.495 4.597 6.436 8.581 6.436 8.377 0 12.362-4.393 12.362-11.237v-2.759z" id="Shape" sketch:type="MSShapeGroup"/><path d="M203.385.222h28.197c10.931 0 22.169 5.005 22.169 18.185 0 8.173-5.108 13.587-12.565 15.835v.205c9.092 1.022 15.631 8.172 15.631 17.469 0 15.733-13.69 20.638-27.38 20.638h-26.051v-72.331zm12.872 29.423h11.749c8.582 0 12.873-3.678 12.873-9.092 0-6.233-4.291-9.297-13.996-9.297h-10.625v18.39zm0 31.874h11.851c6.641 0 15.835-1.124 15.835-10.625 0-7.56-4.903-10.216-15.325-10.216h-12.361v20.841z" id="Shape" sketch:type="MSShapeGroup"/><path d="M286.941 22.288c14.813 0 26.665 10.319 26.665 25.745 0 15.427-11.853 25.745-26.665 25.745-14.813 0-26.664-10.318-26.664-25.745 0-15.426 11.851-25.745 26.664-25.745zm0 40.457c8.991 0 14.406-7.049 14.406-14.711s-5.415-14.71-14.406-14.71c-8.989 0-14.405 7.048-14.405 14.71 0 7.662 5.416 14.711 14.405 14.711z" id="Shape" sketch:type="MSShapeGroup"/><path d="M345.467 37.102c-2.351-3.269-5.417-5.006-9.604-5.006-3.268 0-7.151 1.534-7.151 5.212 0 8.785 26.46 1.634 26.46 20.738 0 11.646-11.135 15.732-21.146 15.732-7.563 0-14.101-1.94-19.104-7.56l8.173-7.663c3.166 3.474 6.433 6.028 11.646 6.028 3.575 0 8.172-1.736 8.172-5.619 0-10.113-26.46-2.146-26.46-20.841 0-10.931 9.809-15.835 19.718-15.835 6.539 0 13.487 2.043 17.472 7.459l-8.174 7.354z" id="Shape" sketch:type="MSShapeGroup"/><path d="M357.801 33.934v-10.419h10.115v-14.201h12.26v14.201h13.484v10.419h-13.484v21.455c0 4.903 1.43 7.968 6.846 7.968 2.144 0 5.107-.408 6.639-1.532v10.318c-2.554 1.226-6.844 1.634-9.706 1.634-12.975 0-16.038-5.822-16.038-17.368v-22.476h-10.115z" id="Shape" sketch:type="MSShapeGroup"/><path d="M424.036 22.288c14.813 0 26.664 10.319 26.664 25.745 0 15.427-11.852 25.745-26.664 25.745-14.814 0-26.663-10.318-26.663-25.745 0-15.426 11.849-25.745 26.663-25.745zm0 40.457c8.99 0 14.404-7.049 14.404-14.711s-5.414-14.71-14.404-14.71c-8.989 0-14.404 7.048-14.404 14.71 0 7.662 5.415 14.711 14.404 14.711z" id="Shape" sketch:type="MSShapeGroup"/><path d="M455.261 23.515h11.646v7.865h.204c2.25-4.903 6.848-9.092 15.02-9.092 13.176 0 17.878 9.297 17.878 19.31v30.955h-12.259v-24.826c0-5.414-.411-14.404-8.99-14.404-8.073 0-11.24 5.924-11.24 12.463v26.768h-12.259v-49.038z" sketch:type="MSShapeGroup"/></g></svg>