<svg width="500" height="75" xmlns="http://www.w3.org/2000/svg" xmlns:sketch="http://www.bohemiancoding.com/sketch/ns"><title>logo-color</title><desc>Created with Sketch.</desc><g sketch:type="MSLayerGroup" fill="none"><path d="M.047 2.756h34.742c6.614 0 12.931.396 17.175 2.172 9.278 3.947 12.041 13.424 12.041 20.137 0 2.663-.296 8.882-5.33 14.014-2.763 2.963-5.725 4.047-8.981 5.33l16.976 28.128h-24.478l-13.522-24.574h-6.514v24.574h-22.109v-69.781zm22.109 14.609v16.285h9.178c3.653 0 10.66-.197 10.66-8.093 0-7.996-6.909-8.192-10.758-8.192h-9.08z" id="Shape" fill="#231F20" sketch:type="MSShapeGroup"/><path d="M69.238 36.808c.789-4.343 1.875-9.771 9.179-13.62 5.724-2.962 13.029-3.455 18.359-3.455 24.279 0 24.279 12.535 24.279 18.655v27.833c0 3.355.296 4.246 1.777 6.316h-20.036v-3.947c-2.567 1.777-7.305 5.133-16.879 5.133-12.831 0-18.458-7.797-18.458-16.482 0-3.061.691-7.305 4.344-10.955 4.639-4.738 10.166-5.529 19.148-6.713 5.625-.791 7.797-1.284 10.856-2.17-.099-3.456-1.085-5.824-6.908-5.824-4.639 0-5.922 1.184-6.613 4.738l-19.048.491zm26.452 13.919c-1.678.395-3.455.789-5.232 1.381-3.947 1.58-4.145 3.949-4.145 4.541 0 1.381 1.184 3.949 5.034 3.949 2.862 0 7.599-1.877 9.376-5.824.986-2.172.986-4.244.986-6.021-1.973.69-3.947 1.38-6.019 1.974z" id="Shape" fill="#231F20" sketch:type="MSShapeGroup"/><path d="M162.413 2.855h20.331v69.682h-19.739v-3.75c-1.383 1.58-2.369 2.666-5.232 3.75-2.861 1.088-5.625 1.285-7.698 1.285-14.607 0-22.998-11.941-22.998-28.031 0-17.865 11.154-25.859 22.307-25.859 7.698 0 10.955 3.157 13.029 5.033v-22.11zm-7.305 56.26c1.875 0 3.751-.887 5.133-2.27 2.664-2.766 2.664-7.502 2.664-10.068 0-2.172-.098-4.342-.789-6.416-1.48-4.835-5.231-5.922-7.106-5.922-.69 0-5.527 0-7.304 6.418-.395 1.775-.592 3.65-.592 6.02 0 5.824 1.48 8.586 2.862 10.066 1.283 1.381 3.158 2.172 5.132 2.172z" id="Shape" fill="#231F20" sketch:type="MSShapeGroup"/><path d="M191.037 2.855h20.333v13.522h-20.333v-13.522zm0 18.555h20.333v51.127h-20.333v-51.127z" id="Shape" fill="#231F20" sketch:type="MSShapeGroup"/><path d="M269.309 26.644c4.834 4.638 7.994 12.337 7.994 20.431 0 16.088-11.154 27.439-30.498 27.439-20.631 0-29.119-13.424-29.119-27.143 0-16.779 11.352-28.23 30.205-28.131 10.363.098 17.468 3.653 21.418 7.404zm-31.389 20.133c0 4.936 1.186 13.523 9.477 13.523 7.107 0 9.375-6.021 9.375-13.721 0-3.061-.197-13.325-9.474-13.029-7.698.2-9.378 7.503-9.378 13.227z" id="Shape" fill="#231F20" sketch:type="MSShapeGroup"/><path d="M283.818 2.855h41.258c4.342.197 12.436.492 17.666 5.627 3.158 2.959 4.736 7.6 4.736 12.041 0 5.131-2.168 9.475-4.934 12.238-1.875 1.875-3.652 2.665-5.922 3.75 2.863.791 5.43 1.48 8.193 4.245 3.947 3.85 4.639 8.391 4.639 11.846 0 5.23-1.58 10.658-5.133 14.213-5.232 5.33-12.436 5.527-17.865 5.723h-42.639v-69.683h.001zm21.912 41.161v13.52h13.818c1.973-.098 4.047-.197 5.725-2.072 1.084-1.086 1.775-2.762 1.775-4.541 0-6.514-5.922-6.809-7.996-6.906h-13.322v-.001zm.1-26.454v11.845h12.141c2.072 0 7.203 0 7.203-5.824 0-5.724-4.738-5.921-6.711-6.021h-12.633z" id="Shape" fill="#003976" sketch:type="MSShapeGroup"/><path d="M356.561 2.855h23.688c15.596.197 25.662.297 33.854 7.995 7.207 6.711 9.674 16.681 9.674 26.551 0 14.706-5.527 28.624-19.541 33.26-5.627 1.875-11.844 1.875-18.654 1.875h-29.02v-69.681h-.001zm22.109 16.286v37.408h8.389c3.158-.197 6.219-.295 9.279-3.258 3.355-3.158 5.23-9.08 5.23-15.592 0-4.048-.691-7.404-1.775-10.265-2.961-7.896-8.488-8.096-12.834-8.293h-8.289z" id="Shape" fill="#003976" sketch:type="MSShapeGroup"/><path d="M499.953 54.574c-1.777 3.357-3.457 6.516-6.811 9.871-7.105 7.008-17.076 10.266-27.045 10.266-24.873 0-36.123-18.754-36.123-36.62 0-18.753 12.533-37.802 36.123-37.802 10.561 0 20.629 3.75 27.932 11.252 2.961 3.059 4.344 5.428 5.822 8.192l-18.457 9.18c-1.775-4.146-5.131-11.548-14.408-11.548-4.838 0-7.896 2.27-9.377 3.751-5.23 5.032-5.23 12.928-5.23 15.692 0 10.366 3.848 20.135 14.707 20.135 10.264 0 13.322-9.08 14.113-11.449l18.754 9.08z" fill="#003976" sketch:type="MSShapeGroup"/></g></svg>