<svg width="500" height="500" xmlns="http://www.w3.org/2000/svg" xmlns:sketch="http://www.bohemiancoding.com/sketch/ns"><title>bug-white</title><desc>Created with Sketch.</desc><g sketch:type="MSLayerGroup" fill="none"><path d="M99.873 382.836c.69 9.332-6.312 17.455-15.636 18.146-9.333.68-17.462-6.322-18.145-15.65l-10.276-139.086c-.689-9.327 6.312-17.454 15.643-18.141 9.333-.688 17.453 6.31 18.142 15.645l10.272 139.086z" id="Shape" fill="#fff" sketch:type="MSShapeGroup"/><path d="M392.939 387.549l14.286-151.428c.96-10.152 12.283-17.391 25.29-16.168 2.36.226 4.629.721 6.717 1.43-17.783-69.249-79.527-118.917-159.729-119.818-82.207-.94-159.218 49.605-195.032 120.966 6.427 2.868 10.889 8.12 11.357 14.427l11.214 151.69c.532 7.172-4.271 13.754-11.703 17.363 29.265 38.846 76.609 63.695 133.123 64.34 63.826.723 124.537-29.602 165.257-76.592-.684-1.984-.984-4.077-.78-6.21zm-49.501-177.483c-39.642-12.684-80.506 6.548-106.934 37.648 4.111-38.875 11.974-81.438 16.097-120.716l-56.975 17.593-40.058 293.419 48.724-17.199c.814-8.998 1.657-18.811 5.362-25.787l9.098 9.84c21.065 15.123 49.544 3.264 69.777-6.971 47.896-27.412 75.571-76.529 80.129-128.898.815-23.329-3.309-46.65-25.22-58.929zm-52.839 129.727c-14.875 16.367-36.764 26.178-58.637 20.869-12.383-6.146-13.21-19.635-13.21-31.928 2.476-26.598 20.225-54.414 46.662-63.828 13.627-6.141 37.567-8.598 44.596 9.414 7.011 24.551-3.735 47.465-19.411 65.473z" id="Shape" fill="#fff" sketch:type="MSShapeGroup"/><path d="M435.712 385.244c-.869 9.312-9.146 16.148-18.452 15.271-9.314-.877-16.16-9.139-15.279-18.457l13.103-138.846c.884-9.312 9.146-16.156 18.452-15.281 9.321.886 16.152 9.144 15.282 18.461l-13.106 138.852z" id="Shape" fill="#fff" sketch:type="MSShapeGroup"/><path d="M37.1 262.621l.097-.803" id="Shape" fill="#231F20" sketch:type="MSShapeGroup"/><path d="M21.689 271.141s-14.154 3.592-16.508 6.305c0 0-7.25 5.172-4.597 41.117 2.22 29.977 13.19 40.633 13.19 40.633l22.875-.838s19.747 25.988 20.819 29.027c1.083 3.037-10.297-139.36-10.297-139.36s-25.527 22.918-25.482 23.116z" id="Shape" fill="#fff" sketch:type="MSShapeGroup"/><path d="M483.438 279.52c2.934-12.039-5.461-85.969-27.841-123.007-32.073-53.064-62.817-77.392-62.817-77.392v-7.621s-58.379-41.5-145.108-41.5c-79.863 0-120.419 31.652-130.687 40.918l-.694 8.203s-45.505 30.501-65.255 77.068c-18.831 44.447-27.53 105.842-27.54 115.084 4.958-2.01 9.823-2.75 13.817-6.668-.025-.115-.041-.246-.016-.408l.079-.805c7.377-70.409 28.556-133.676 85.352-174.107l11.787-2.531c12.626-5.249 52.086-33.88 114.234-33.88 69.333 0 101.092 18.724 124.286 36.411h12.459c32.629 31.349 62.105 67.227 77.486 121.144 6.469 22.615 7.659 45.54 7.894 53.192 2.479 5.266 7.212 13.471 12.564 15.899z" id="Shape" fill="#fff" sketch:type="MSShapeGroup"/><path d="M496.301 280.93c-4.059-1.607-15.084-5.121-15.084-5.121l-24.214-29.206-13.441 140.424s14.968-20.268 17.808-24.326c1.471-2.082 23.172-2.049 26.554-1.738 3.356.324 8.974-14.045 11.158-37.236 2.066-21.922.573-41.471-2.781-42.797z" fill="#fff" sketch:type="MSShapeGroup"/></g></svg>