<svg width="500" height="93" xmlns="http://www.w3.org/2000/svg" xmlns:sketch="http://www.bohemiancoding.com/sketch/ns"><title>logo-black</title><desc>Created with Sketch.</desc><path d="M0 90.515h35.909c3.881 0 7.779-.414 11.703-1.247 3.919-.831 7.447-2.2 10.586-4.114 3.135-1.912 5.695-4.426 7.678-7.541 1.98-3.118 2.97-7.002 2.97-11.658 0-2.824-.454-5.487-1.36-7.978-.909-2.494-2.211-4.677-3.901-6.547-1.693-1.868-3.716-3.407-6.069-4.613-2.35-1.204-4.972-2.014-7.86-2.43v-.25c4.538-1.411 8.19-3.759 10.957-7.043 2.764-3.284 4.15-7.419 4.15-12.405 0-4.82-.952-8.686-2.85-11.597-1.898-2.908-4.376-5.172-7.429-6.795-3.053-1.62-6.5-2.699-10.338-3.24-3.84-.539-7.66-.81-11.454-.81h-32.69v88.271zm19.317-71.814h13.124c1.487 0 3.013.146 4.581.437 1.569.291 2.972.769 4.211 1.434 1.239.664 2.249 1.6 3.033 2.803.784 1.206 1.178 2.724 1.178 4.551 0 1.745-.353 3.24-1.053 4.488-.703 1.247-1.632 2.244-2.787 2.993-1.155.749-2.457 1.291-3.898 1.62-1.447.335-2.911.501-4.396.501h-13.992v-18.827zm0 35.282h14.612c1.566 0 3.259.125 5.076.376 1.815.248 3.508.708 5.076 1.37 1.569.667 2.868 1.643 3.901 2.931 1.03 1.291 1.548 2.972 1.548 5.05 0 1.912-.393 3.534-1.178 4.863-.784 1.329-1.794 2.41-3.033 3.24-1.239.831-2.622 1.413-4.147 1.745-1.53.332-3.036.498-4.52.498h-17.335v-20.074zm60.921 36.532h31.574c6.52 0 12.754-.956 18.698-2.867 5.944-1.912 11.185-4.718 15.726-8.415 4.538-3.698 8.152-8.27 10.835-13.716 2.68-5.443 4.023-11.738 4.023-18.888 0-8.06-1.383-14.919-4.147-20.572-2.766-5.65-6.5-10.243-11.206-13.777-4.706-3.532-10.216-6.087-16.53-7.667-6.315-1.579-12.982-2.369-19.997-2.369h-28.975v88.271zm19.315-70.319h11.393c4.043 0 7.904.521 11.576 1.559 3.673 1.04 6.873 2.599 9.596 4.677 2.726 2.078 4.891 4.718 6.503 7.917 1.609 3.2 2.414 6.961 2.414 11.283 0 4.986-.805 9.205-2.414 12.655-1.612 3.45-3.82 6.233-6.624 8.352-2.81 2.121-6.129 3.639-9.97 4.551-3.838.915-7.987 1.372-12.444 1.372h-10.03v-52.366zm146.855-7.23c-1.901-2.41-4.046-4.447-6.439-6.11-2.396-1.661-4.891-2.993-7.492-3.989-2.599-.997-5.241-1.725-7.924-2.182-2.683-.455-5.261-.685-7.739-.685-6.853 0-13.168 1.081-18.944 3.24-5.779 2.162-10.774 5.259-14.985 9.289-4.208 4.033-7.49 8.914-9.843 14.648-2.353 5.735-3.53 12.136-3.53 19.2 0 7.066 1.178 13.465 3.53 19.202 2.353 5.735 5.635 10.618 9.843 14.648 4.211 4.033 9.206 7.127 14.985 9.289 5.777 2.159 12.091 3.24 18.944 3.24 6.025 0 11.886-1.247 17.584-3.739 5.695-2.494 10.401-6.361 14.114-11.597l-16.096-12.093c-1.982 2.993-4.5 5.321-7.553 6.982-3.056 1.664-6.563 2.494-10.525 2.494-3.467 0-6.708-.705-9.721-2.121-3.013-1.411-5.632-3.384-7.863-5.921-2.228-2.535-3.982-5.528-5.261-8.978-1.282-3.447-1.919-7.25-1.919-11.408 0-4.071.637-7.853 1.919-11.344 1.279-3.491 3.053-6.504 5.325-9.039 2.269-2.535 4.952-4.508 8.048-5.924 3.096-1.411 6.459-2.119 10.091-2.119 3.632 0 6.83.624 9.596 1.871 2.764 1.247 5.096 3.036 6.997 5.362l14.858-12.218zm25.137 77.548h18.695l11.145-40.27h.249l12.505 40.27h18.327l21.421-60.592h-18.822l-11.266 38.027h-.249l-11.145-38.027h-20.307l-10.277 38.027h-.249l-12.259-38.027h-19.81l22.041 60.592zm88.533 0h18.574v-60.592h-18.574v60.592zm1.67-72c2.107 2.119 4.645 3.179 7.617 3.179 2.972 0 5.51-1.061 7.614-3.179 2.107-2.121 3.157-4.677 3.157-7.669 0-2.993-1.051-5.548-3.157-7.667-2.104-2.121-4.642-3.179-7.614-3.179-2.972 0-5.51 1.058-7.617 3.179-2.104 2.119-3.157 4.674-3.157 7.667 0 2.993 1.053 5.548 3.157 7.669zm30.277 72h18.574v-25.31c0-2.993.162-5.735.495-8.229.327-2.492 1.051-4.631 2.165-6.42 1.117-1.786 2.703-3.179 4.769-4.178 2.061-.997 4.868-1.495 8.419-1.495 1.404 0 2.744.105 4.025.312 1.279.21 2.579.521 3.901.935v-17.081c-.911-.248-1.901-.414-2.972-.498-1.074-.082-2.147-.125-3.221-.125-4.127 0-7.553.935-10.277 2.806-2.723 1.871-5.076 4.674-7.058 8.415h-.246v-9.724h-18.574v60.592zm92.124-20.074c-1.569 2.162-3.404 3.928-5.51 5.3-2.104 1.37-4.685 2.057-7.739 2.057-3.632 0-6.685-1.061-9.162-3.179-2.477-2.121-4.086-4.965-4.83-8.541h43.091v-5.86c0-4.82-.662-9.185-1.982-13.092-1.32-3.905-3.198-7.25-5.632-10.036-2.437-2.783-5.409-4.925-8.916-6.422-3.51-1.495-7.411-2.244-11.701-2.244-4.624 0-8.977.749-13.063 2.244-4.086 1.498-7.637 3.639-10.65 6.422-3.015 2.786-5.386 6.131-7.119 10.036-1.734 3.907-2.602 8.272-2.602 13.092s.868 9.185 2.602 13.09c1.734 3.91 4.104 7.253 7.119 10.038 3.013 2.786 6.563 4.925 10.65 6.42 4.086 1.498 8.439 2.244 13.063 2.244 4.868 0 9.574-1.04 14.114-3.115 4.541-2.078 8.297-5.029 11.269-8.852l-13.003-9.601zm-27.241-17.079c.081-1.498.434-2.931 1.053-4.304.619-1.37 1.485-2.573 2.599-3.614 1.114-1.04 2.457-1.891 4.025-2.558 1.566-.664 3.383-.997 5.449-.997 3.383 0 6.147 1.122 8.294 3.366 2.147 2.246 3.178 4.948 3.096 8.106h-24.518z" sketch:type="MSShapeGroup" fill="none"/></svg>