<svg width="500" height="500" xmlns="http://www.w3.org/2000/svg" xmlns:sketch="http://www.bohemiancoding.com/sketch/ns"><title>bug-white</title><desc>Created with Sketch.</desc><path d="M384.978 270.615l-1.719 123.677c-12.905 6.908-21.501 11.208-33.573 19.769-9.459-5.977-18.926-12.015-30.127-18.885v-159.792l65.419 35.231zm9.49-107.392c0 18.869-17.207 28.354-74.909 64.423v-54.985c0-27.492 1.735-42.938 2.575-54.131h-12.034c1.719 12.031 2.59 26.638 2.59 54.131v219.108c-36.179-21.5-80.09-43.838-126.599-47.269 43.926-24.908 87.83-58.415 87.83-107.423v-107.362c0-34.377 13.776-55.015 49.947-85.923 28.4 42.085 39.632 60.123 61.989 97.938 5.173 8.592 8.611 17.2 8.611 21.492zm-112.776-134.023l-1.719-5.169c-36.186 0-55.991-4.315-74.94-7.723-18.078-2.569-33.581-6.023-55.089-6.023-56.839 0-93.866 29.223-93.866 76.469 0 19.769 4.302 30.923 17.214 45.538l5.165-5.154c-6.9-8.608-10.315-17.185-10.315-26.654 0-20.6 17.214-38.638 55.089-38.638 28.431 0 54.249 5.154 76.636 10.308-48.213 35.2-77.515 60.985-77.515 135.738-6.877-2.585-16.359-4.285-29.264-4.285-36.156 0-55.089 24.038-55.089 47.223 0 10.338 2.559 21.515 9.467 29.223l6.029-3.408c-2.59-5.185-4.317-10.338-4.317-15.477 0-15.462 12.049-27.508 34.444-27.508 19.812 0 34.444 8.592 41.313 20.646 0 52.392-10.315 79.038-37.859 79.038v5.977c41.313 0 91.253-30.046 91.253-78.154v-96.231c.031-79.054 46.509-115.969 103.363-135.738zm179.946 217.346l-76.651-50.677c29.287-18.046 38.769-23.215 49.084-30.931 18.101-12.892 23.266-20.631 23.266-28.354 0-6.023-2.59-17.185-16.366-37.8-17.207-25.785-33.573-50.692-68.01-98.785-48.228 32.646-74.909 52.362-125.704 91.915-20.676 16.3-36.179 42.085-36.179 74.731 0 11.177.871 68.738.871 106.554 0 29.192-5.181 44.685-36.171 70.415-74.894 0-119.676 48.154-119.676 96.246 0 20.631 6.9 42.115 22.379 59.254l5.181-5.138c-9.482-10.338-17.207-26.638-17.207-45.523 0-25.8 18.934-54.162 78.34-54.162 65.435 0 126.552 44.708 161.86 66.192 50.803-42.969 82.68-61.015 148.099-82.515v-109.108c-.015-7.692 2.575-15.431 6.884-22.315z" sketch:type="MSShapeGroup" fill="#fff"/></svg>