<?xml version="1.0" encoding="utf-8"?>
<!-- Generator: Adobe Illustrator 16.2.1, SVG Export Plug-In . SVG Version: 6.00 Build 0)  -->
<!DOCTYPE svg PUBLIC "-//W3C//DTD SVG 1.1//EN" "http://www.w3.org/Graphics/SVG/1.1/DTD/svg11.dtd">
<svg version="1.1" id="Layer_1" xmlns="http://www.w3.org/2000/svg" xmlns:xlink="http://www.w3.org/1999/xlink" x="0px" y="0px"
	 width="500px" height="70px" viewBox="0 0 500 70" enable-background="new 0 0 500 70" xml:space="preserve">
<g>
	<path fill="#022169" d="M9.224,0.302l14.48-0.057L20.41,24.517h0.193c3.92-4.445,9.75-6.562,15.734-6.561
		c13.323,0,19.747,12.574,17.917,26.289c-1.995,14.941-12.581,25.645-26.48,25.643c-6.565,0-11.608-4.254-13.352-7.588h-0.194
		l-0.868,6.666H0.038L9.224,0.302z M26.572,56.31c7.241,0,12.264-5.082,13.254-12.498c0.993-7.42-2.674-12.5-9.916-12.5
		c-7.238,0-12.259,5.078-13.253,12.498C15.667,51.226,19.334,56.308,26.572,56.31z"/>
	<path fill="#022169" d="M88.17,17.903c14.48,0,24.706,10.164,22.602,25.914c-2.103,15.748-15.043,25.914-29.526,25.912
		c-14.479,0-24.707-10.168-22.603-25.916C60.748,28.06,73.69,17.901,88.17,17.903z M83.04,56.312
		c7.239,0.002,12.263-5.078,13.254-12.494c0.99-7.42-2.675-12.5-9.916-12.5c-7.242-0.002-12.265,5.078-13.254,12.496
		C72.134,51.229,75.799,56.312,83.04,56.312z"/>
	<path fill="#022169" d="M143.303,33.66c-1.758-2.745-4.368-4.168-7.843-4.168c-2.413,0-5.458,1.118-5.852,4.062
		c-0.978,7.32,24.275,1.123,21.762,19.92c-1.683,12.604-13.756,16.262-23.794,16.26c-6.564,0-13.574-1.729-17.542-6.713
		l10.155-10.258c2.241,3.455,5.17,5.385,9.513,5.387c3.282,0,6.686-0.92,7.04-3.559c1.06-7.926-24.259-1.221-21.75-20.02
		c1.547-11.582,12.072-16.666,21.92-16.666c6.178,0.002,12.815,1.629,16.507,6.509L143.303,33.66z"/>
	<path fill="#022169" d="M191.297,31.327l-12.742-0.002l-2.201,16.461c-0.704,5.285-0.642,9.143,5.633,9.145
		c1.545,0,4.662-0.201,6.078-1.422l-1.696,12.703c-3.348,1.223-6.959,1.525-10.34,1.525c-9.651,0-16.527-4.238-15.089-15.008
		l3.134-23.546h-9.266l1.628-12.224h9.268L168.905,0l14.48,0.044l-3.203,19.064l12.741,0.012L191.297,31.327z"/>
	<path fill="#022169" d="M222.333,17.916c14.481,0.001,24.708,10.161,22.603,25.913c-2.103,15.75-15.045,25.914-29.526,25.912
		c-14.48-0.002-24.708-10.168-22.603-25.914C194.912,28.073,207.853,17.913,222.333,17.916z M217.205,56.323
		c7.239,0.002,12.262-5.078,13.252-12.494c0.99-7.42-2.673-12.5-9.915-12.5s-12.265,5.078-13.255,12.498
		C206.296,51.243,209.962,56.323,217.205,56.323z"/>
	<path fill="#022169" d="M253.344,19.356l13.904-0.217l-0.898,6.488h0.195c2.447-3.334,7.721-7.816,14.766-7.816
		c14.674,0.002,16.018,10.217,14.256,23.428l-3.641,27.262l-14.48,0.012l3.23-24.178c0.764-5.689,1.643-13.002-5.791-13.005
		c-7.531,0-9.516,6.423-10.373,12.823l-3.283,24.812h-14.482L253.344,19.356z"/>
	<path fill="#022169" d="M358.506,35.101c-1.162-2.135-3.648-3.759-6.645-3.761c-7.24,0-12.262,5.079-13.252,12.499
		c-0.994,7.416,2.676,12.498,9.916,12.498c3.186,0,5.73-1.727,7.645-3.76l8.148,10.572c-5.191,4.877-12.082,6.605-17.584,6.604
		c-14.482,0-24.709-10.168-22.605-25.916c2.105-15.752,15.047-25.911,29.527-25.909c5.504,0,11.932,1.729,15.818,6.604
		L358.506,35.101z"/>
	<path fill="#022169" d="M397.48,17.931c14.479,0.002,24.705,10.163,22.602,25.916c-2.107,15.748-15.045,25.912-29.529,25.91
		c-14.479,0-24.705-10.166-22.6-25.916C370.057,28.089,382.998,17.931,397.48,17.931z M392.348,56.341
		c7.24,0,12.264-5.08,13.25-12.494c0.996-7.422-2.672-12.502-9.914-12.502c-7.24,0-12.262,5.078-13.25,12.496
		C381.439,51.261,385.105,56.341,392.348,56.341z"/>
	<path fill="#022169" d="M428.488,18.96h13.902l-0.898,6.668h0.195c2.447-3.334,7.721-7.809,14.768-7.809
		c6.564,0.002,11.586,2.904,13.299,8.9c4.219-6.299,9.098-8.811,16.051-8.809c12.742,0,15.338,9.674,13.736,21.664l-3.896,29.391
		h-14.479l3.842-28.969c0.605-4.572-0.518-8.539-5.25-8.539c-6.658,0-9.445,5.139-10.26,11.236l-3.49,26.271h-14.479l3.484-26.326
		c0.494-3.66,1.674-11.184-4.984-11.184c-7.529,0-9.518,6.357-10.373,12.76l-3.285,24.75h-14.482L428.488,18.96z"/>
	<path fill="#C3002F" d="M316.729,53.253c1.76,2.178,2.305,5.643,1.209,8.254c-1.092,2.812-3.723,5.424-6.57,6.396
		c-2.408,1.09-5.59,0.652-7.891-0.541c-2.516-1.738-3.498-4.342-3.277-7.383c0.102-3.684,3.064-6.943,6.24-8.463
		C309.836,50.108,314.215,50.655,316.729,53.253z"/>
</g>
<g>
	<path fill="#FFFFFF" d="M9.223,120.357l14.48-0.057l-3.294,24.271h0.193c3.92-4.445,9.75-6.562,15.734-6.561
		c13.323,0,19.747,12.574,17.917,26.289c-1.995,14.941-12.581,25.645-26.48,25.643c-6.565,0-11.608-4.254-13.352-7.588h-0.194
		l-0.868,6.666H0.037L9.223,120.357z M26.571,176.365c7.241,0,12.264-5.082,13.254-12.498c0.993-7.42-2.674-12.5-9.916-12.5
		c-7.238,0-12.259,5.078-13.253,12.498C15.667,171.281,19.333,176.363,26.571,176.365z"/>
	<path fill="#FFFFFF" d="M88.169,137.959c14.48,0,24.706,10.164,22.602,25.914c-2.103,15.748-15.043,25.914-29.526,25.912
		c-14.479,0-24.707-10.168-22.603-25.916C60.747,148.115,73.689,137.957,88.169,137.959z M83.039,176.367
		c7.239,0.002,12.263-5.078,13.254-12.494c0.99-7.42-2.675-12.5-9.916-12.5c-7.242-0.002-12.265,5.078-13.254,12.496
		C72.133,171.285,75.798,176.367,83.039,176.367z"/>
	<path fill="#FFFFFF" d="M143.302,153.717c-1.758-2.746-4.368-4.168-7.843-4.168c-2.413,0-5.458,1.117-5.852,4.061
		c-0.978,7.32,24.275,1.123,21.762,19.92c-1.683,12.604-13.756,16.262-23.794,16.26c-6.564,0-13.574-1.729-17.542-6.713
		l10.155-10.258c2.241,3.455,5.17,5.385,9.513,5.387c3.282,0,6.686-0.92,7.04-3.559c1.06-7.926-24.259-1.221-21.75-20.02
		c1.547-11.582,12.072-16.666,21.92-16.666c6.178,0.002,12.815,1.629,16.507,6.51L143.302,153.717z"/>
	<path fill="#FFFFFF" d="M191.296,151.383l-12.742-0.002l-2.201,16.461c-0.704,5.285-0.642,9.143,5.633,9.145
		c1.545,0,4.662-0.201,6.078-1.422l-1.696,12.703c-3.348,1.223-6.959,1.525-10.34,1.525c-9.651,0-16.527-4.238-15.089-15.008
		l3.134-23.545h-9.266l1.628-12.225h9.268l3.203-18.96l14.48,0.044l-3.203,19.064l12.741,0.012L191.296,151.383z"/>
	<path fill="#FFFFFF" d="M222.333,137.973c14.481,0,24.709,10.16,22.604,25.912c-2.104,15.75-15.046,25.914-29.527,25.912
		c-14.48-0.002-24.708-10.168-22.603-25.914C194.911,148.129,207.852,137.969,222.333,137.973z M217.204,176.379
		c7.239,0.002,12.261-5.078,13.253-12.494c0.99-7.42-2.674-12.5-9.915-12.5s-12.265,5.078-13.255,12.498
		C206.295,171.299,209.961,176.379,217.204,176.379z"/>
	<path fill="#FFFFFF" d="M253.342,139.412l13.904-0.217l-0.898,6.488h0.195c2.447-3.334,7.721-7.816,14.766-7.816
		c14.674,0.002,16.018,10.217,14.256,23.428l-3.641,27.262l-14.48,0.012l3.23-24.178c0.764-5.689,1.643-13.002-5.791-13.004
		c-7.531,0-9.516,6.422-10.373,12.822l-3.283,24.812h-14.482L253.342,139.412z"/>
	<path fill="#FFFFFF" d="M358.504,155.156c-1.162-2.135-3.648-3.758-6.645-3.76c-7.24,0-12.262,5.078-13.252,12.498
		c-0.994,7.416,2.676,12.498,9.916,12.498c3.186,0,5.73-1.727,7.645-3.76l8.148,10.572c-5.191,4.877-12.082,6.605-17.584,6.604
		c-14.482,0-24.709-10.168-22.605-25.916c2.105-15.752,15.047-25.91,29.527-25.908c5.504,0,11.932,1.729,15.818,6.604
		L358.504,155.156z"/>
	<path fill="#FFFFFF" d="M397.479,137.986c14.479,0.002,24.705,10.164,22.602,25.916c-2.107,15.748-15.045,25.912-29.529,25.91
		c-14.479,0-24.705-10.166-22.6-25.916C370.055,148.145,382.996,137.986,397.479,137.986z M392.346,176.396
		c7.24,0,12.264-5.08,13.25-12.494c0.996-7.422-2.672-12.502-9.914-12.502c-7.24,0-12.262,5.078-13.25,12.496
		C381.438,171.316,385.104,176.396,392.346,176.396z"/>
	<path fill="#FFFFFF" d="M428.486,139.016h13.902l-0.898,6.668h0.195c2.447-3.334,7.721-7.809,14.768-7.809
		c6.564,0.002,11.586,2.904,13.299,8.9c4.219-6.299,9.098-8.811,16.051-8.809c12.742,0,15.338,9.674,13.736,21.664l-3.896,29.391
		h-14.479l3.842-28.969c0.605-4.572-0.518-8.539-5.25-8.539c-6.658,0-9.445,5.139-10.26,11.236l-3.49,26.271h-14.479l3.484-26.326
		c0.494-3.66,1.674-11.184-4.984-11.184c-7.529,0-9.518,6.357-10.373,12.76l-3.285,24.75h-14.482L428.486,139.016z"/>
	<path fill="#FFFFFF" d="M316.727,173.309c1.76,2.178,2.305,5.643,1.209,8.254c-1.092,2.812-3.723,5.424-6.57,6.396
		c-2.408,1.09-5.59,0.652-7.891-0.541c-2.516-1.738-3.498-4.342-3.277-7.383c0.102-3.684,3.064-6.943,6.24-8.463
		C309.834,170.164,314.213,170.711,316.727,173.309z"/>
</g>
<g>
	<path d="M9.26,240.357l14.48-0.057l-3.294,24.271h0.193c3.92-4.445,9.75-6.562,15.734-6.561c13.323,0,19.747,12.574,17.917,26.289
		c-1.995,14.941-12.581,25.645-26.48,25.643c-6.565,0-11.608-4.254-13.352-7.588h-0.194l-0.868,6.666H0.073L9.26,240.357z
		 M26.608,296.365c7.241,0,12.264-5.082,13.254-12.498c0.993-7.42-2.674-12.5-9.916-12.5c-7.238,0-12.259,5.078-13.253,12.498
		C15.703,291.281,19.37,296.363,26.608,296.365z"/>
	<path d="M88.206,257.959c14.48,0,24.706,10.164,22.602,25.914c-2.103,15.748-15.043,25.914-29.526,25.912
		c-14.479,0-24.707-10.168-22.603-25.916C60.783,268.115,73.726,257.957,88.206,257.959z M83.076,296.367
		c7.239,0.002,12.263-5.078,13.254-12.494c0.99-7.42-2.675-12.5-9.916-12.5c-7.242-0.002-12.265,5.078-13.254,12.496
		C72.169,291.285,75.835,296.367,83.076,296.367z"/>
	<path d="M143.339,273.717c-1.758-2.746-4.368-4.168-7.843-4.168c-2.413,0-5.458,1.117-5.852,4.061
		c-0.978,7.32,24.275,1.123,21.762,19.92c-1.683,12.604-13.756,16.262-23.794,16.26c-6.564,0-13.574-1.729-17.542-6.713
		l10.155-10.258c2.241,3.455,5.17,5.385,9.513,5.387c3.282,0,6.686-0.92,7.04-3.559c1.06-7.926-24.259-1.221-21.75-20.02
		c1.547-11.582,12.072-16.666,21.92-16.666c6.178,0.002,12.815,1.629,16.507,6.51L143.339,273.717z"/>
	<path d="M191.333,271.383l-12.742-0.002l-2.201,16.461c-0.704,5.285-0.642,9.143,5.633,9.145c1.545,0,4.662-0.201,6.078-1.422
		l-1.696,12.703c-3.348,1.223-6.959,1.525-10.34,1.525c-9.651,0-16.527-4.238-15.089-15.008l3.134-23.545h-9.266l1.628-12.225h9.268
		l3.203-18.96l14.48,0.044l-3.203,19.064l12.741,0.012L191.333,271.383z"/>
	<path d="M222.369,257.973c14.48,0,24.708,10.16,22.603,25.912c-2.103,15.75-15.046,25.914-29.527,25.912
		c-14.48-0.002-24.708-10.168-22.603-25.914C194.947,268.129,207.888,257.969,222.369,257.973z M217.24,296.379
		c7.238,0.002,12.262-5.078,13.252-12.494c0.99-7.42-2.672-12.5-9.914-12.5c-7.241,0-12.265,5.078-13.255,12.498
		C206.332,291.299,209.998,296.379,217.24,296.379z"/>
	<path d="M253.379,259.412l13.902-0.217l-0.896,6.488h0.195c2.445-3.334,7.721-7.816,14.766-7.816
		c14.674,0.002,16.018,10.217,14.256,23.428l-3.641,27.262l-14.482,0.012l3.23-24.178c0.764-5.689,1.645-13.002-5.791-13.004
		c-7.531,0-9.514,6.422-10.371,12.822l-3.285,24.812h-14.481L253.379,259.412z"/>
	<path d="M358.539,275.156c-1.162-2.135-3.646-3.758-6.643-3.76c-7.24,0-12.264,5.078-13.252,12.498
		c-0.994,7.416,2.674,12.498,9.914,12.498c3.186,0,5.732-1.727,7.646-3.76l8.148,10.572c-5.191,4.877-12.084,6.605-17.586,6.604
		c-14.48,0-24.707-10.168-22.605-25.916c2.105-15.752,15.047-25.91,29.527-25.908c5.504,0,11.934,1.729,15.82,6.604L358.539,275.156
		z"/>
	<path d="M397.514,257.986c14.48,0.002,24.707,10.164,22.602,25.916c-2.105,15.748-15.045,25.912-29.529,25.91
		c-14.479,0-24.705-10.166-22.6-25.916C370.092,268.145,383.033,257.986,397.514,257.986z M392.381,296.396
		c7.242,0,12.264-5.08,13.252-12.494c0.996-7.422-2.672-12.502-9.916-12.502c-7.24,0-12.26,5.078-13.25,12.496
		C381.473,291.316,385.139,296.396,392.381,296.396z"/>
	<path d="M428.521,259.016h13.904l-0.898,6.668h0.195c2.445-3.334,7.719-7.809,14.768-7.809c6.562,0.002,11.584,2.904,13.297,8.9
		c4.221-6.299,9.1-8.811,16.051-8.809c12.742,0,15.338,9.674,13.736,21.664l-3.896,29.391h-14.479l3.844-28.969
		c0.604-4.572-0.518-8.539-5.25-8.539c-6.658,0-9.447,5.139-10.262,11.236l-3.49,26.271h-14.479l3.486-26.326
		c0.492-3.66,1.672-11.184-4.986-11.184c-7.529,0-9.518,6.357-10.371,12.76l-3.287,24.75h-14.48L428.521,259.016z"/>
	<path d="M316.764,293.309c1.758,2.178,2.303,5.643,1.207,8.254c-1.092,2.812-3.723,5.424-6.57,6.396
		c-2.406,1.09-5.588,0.652-7.889-0.541c-2.518-1.738-3.498-4.342-3.277-7.383c0.102-3.684,3.064-6.943,6.24-8.463
		C309.871,290.164,314.248,290.711,316.764,293.309z"/>
</g>
</svg>
