<?xml version="1.0" encoding="UTF-8"?>
<svg width="500px" height="80px" viewBox="0 0 500 80" version="1.1" xmlns="http://www.w3.org/2000/svg" xmlns:xlink="http://www.w3.org/1999/xlink">
    <!-- Generator: Sketch 42 (36781) - http://www.bohemiancoding.com/sketch -->
    <title>globemagazine-logo-white</title>
    <desc>Created with Sketch.</desc>
    <defs></defs>
    <g id="Page-1" stroke="none" stroke-width="1" fill="none" fill-rule="evenodd">
        <g id="globemagazine-logo-white" fill-rule="nonzero" fill="#FFFFFF">
            <g id="Shape">
                <path d="M499.041763,29.7831884 C494.011601,25.9907246 490.569606,21.8446377 486.423434,17.6104348 C481.390951,21.8446377 475.302784,26.96 470.800464,28.5484058 C470.976798,28.9901449 471.242459,30.5773913 471.242459,31.4597101 L471.242459,50.6863768 C471.242459,54.0405797 470.800464,55.6255072 469.566125,57.4794203 L483.951276,66.915942 C486.332947,65.3286957 494.276102,57.6544928 498.513921,53.3333333 L497.62993,52.537971 C494.718097,55.5385507 491.981439,58.6249275 488.981439,58.6249275 C486.511601,58.6249275 481.656613,55.8028986 479.890951,53.5976812 L479.890951,43.2776812 L499.041763,29.7831884 Z M490.393271,33.9281159 L479.979118,41.8678261 C479.979118,35.2521739 480.24478,26.1669565 480.155452,24.226087 L480.509281,24.1391304 L490.393271,33.9281159 Z M471.118329,57.5675362 L470.590487,56.8614493 L466.441995,60.124058 C465.207657,59.9478261 463.530162,59.0666667 462.647332,57.3913043 C462.559165,53.7750725 462.470998,53.0678261 462.470998,46.8950725 C462.470998,40.7211594 462.736659,34.1936232 463.00116,25.5501449 C460.266821,21.6684058 458.412993,20.2573913 453.822506,17.7878261 L442.969838,26.1681159 C441.467517,21.8457971 438.99536,19.2 436.87935,17.7878261 L429.200696,23.6973913 C430.700696,24.9321739 432.203016,26.3443478 433.703016,28.1971014 C433.703016,37.4573913 433.703016,48.4823188 433.614849,52.3652174 C433.526682,56.4208696 432.99652,57.92 430.788863,59.0678261 L440.674014,67.1814493 L447.116009,60.5669565 L442.701856,56.8626087 L442.701856,27.7542029 C444.558005,26.1669565 446.588167,25.1095652 448.262181,25.1095652 C450.910673,25.1095652 453.559165,27.8423188 453.559165,30.1368116 C453.559165,33.3994203 453.559165,53.6869565 452.940835,59.7715942 C453.910673,62.9484058 457.970998,66.124058 460.531323,66.915942 L471.118329,57.5675362 Z M429.075406,59.0666667 L428.545244,58.3605797 L425.633411,60.5657971 C424.399072,60.3895652 422.984919,59.5084058 422.103248,57.8307246 C422.015081,54.2144928 421.926914,52.9797101 421.926914,48.6573913 L421.926914,31.635942 C421.926914,29.2533333 422.36891,26.9611594 422.722738,25.7252174 C421.486079,22.9031884 418.132251,19.2869565 416.190255,17.7866667 L408.513921,23.6962319 C408.513921,23.6962319 411.513921,26.2550725 412.925754,28.195942 C412.925754,37.4562319 412.925754,48.4811594 412.837587,52.364058 C412.74942,56.4197101 412.221578,57.9188406 410.013921,59.0666667 C410.013921,59.0666667 416.632251,64.5356522 419.720418,66.915942 L429.075406,59.0666667 Z M422.896752,7.64405797 L416.102088,1.0284058 L409.307425,7.64405797 L416.102088,14.1704348 L422.896752,7.64405797 Z M405.300464,26.0788406 C399.651972,22.8162319 393.563805,19.9049275 387.561485,17.7878261 L378.206497,26.3443478 L378.736659,27.0492754 C379.706497,26.1669565 381.385151,24.7547826 382.708817,24.7547826 C386.062645,25.9014493 392.327146,28.1078261 396.741299,31.017971 C394.180974,34.3686957 389.062645,38.9553623 381.208817,45.8353623 L381.648492,46.5402899 C382.62065,45.9234783 383.236659,45.3947826 384.562645,45.3947826 C387.208817,46.3652174 390.564965,47.5988406 393.476798,49.5397101 L393.476798,55.5385507 C393.476798,61.6231884 393.564965,64.4475362 394.711137,69.9130435 C391.357309,69.2092754 384.916473,67.3565217 382.444316,66.5634783 L372.030162,76.5298551 L373,77.3252174 L376.176334,74.3246377 C382.266821,74.7663768 387.473318,76.5298551 390.033643,77.4991304 C393.649652,72.3837681 400.709977,67.5327536 403.888631,66.6527536 C402.300464,63.8284058 402.476798,57.5675362 402.476798,55.1849275 C402.476798,53.244058 402.564965,50.333913 402.740139,49.2742029 C403.0058,47.9513043 403.270302,46.9808696 404.242459,45.4817391 C400.358469,43.3657971 393.387471,39.6602899 390.737819,38.6017391 C392.415313,37.1037681 401.682135,28.8127536 405.300464,26.0788406 L405.300464,26.0788406 Z M361.932715,58.0069565 C360.87239,59.0666667 358.402552,60.2121739 356.902552,60.2121739 C355.402552,60.2121739 353.900232,58.9785507 352.223898,56.8602899 C352.049884,53.5976812 352.138051,52.3628986 352.138051,49.097971 C352.138051,47.0689855 352.312065,42.2191304 352.401392,40.2782609 C354.431555,40.72 355.403712,41.0724638 357.610209,41.0724638 C359.814385,41.0724638 360.344548,40.8081159 361.933875,40.6318841 L361.933875,58.0069565 L361.932715,58.0069565 Z M361.932715,39.5733333 C361.139211,39.7495652 359.636891,40.013913 357.87239,40.013913 C353.638051,40.013913 345.517401,38.0742029 344.017401,31.106087 C345.605568,29.782029 350.019722,26.5194203 351.961717,25.3727536 C354.607889,26.3431884 359.022042,28.5472464 361.933875,30.4 L361.933875,39.5733333 L361.932715,39.5733333 Z M380.37935,56.5078261 L379.761021,55.8921739 L374.466357,60.3014493 C372.87819,59.9478261 371.112529,58.8023188 370.848028,56.6852174 L370.848028,40.1913043 C370.848028,34.2817391 370.848028,30.5773913 371.024362,29.5188406 C371.290023,28.195942 371.640371,27.5791304 372.612529,26.0788406 C368.906032,24.1391304 358.049884,18.9344928 356.461717,17.7878261 C353.901392,20.3466667 345.2529,28.284058 342.694896,30.9298551 C343.401392,35.3402899 347.901392,38.6921739 350.283063,39.4863768 C348.078886,40.7211594 344.813225,41.7808696 342.341067,43.0144928 C342.87123,44.1611594 343.134571,45.6602899 343.134571,47.0713043 L343.048724,54.1263768 C342.960557,56.3315942 342.783063,58.7142029 342.694896,59.8597101 C344.636891,63.1246377 348.167053,65.5930435 351.343387,67.1802899 L361.491879,59.5965217 C362.640371,61.8886957 364.228538,65.0631884 369.082367,67.1802899 L380.37935,56.5078261 Z M330.12761,70.973913 C328.981439,70.355942 323.860789,67.8875362 317.683295,67.8875362 C316.183295,67.8875362 314.329466,68.0637681 313.00464,68.3269565 C314.330626,66.7397101 323.859629,57.2150725 326.509281,54.9217391 C326.509281,59.5965217 326.597448,64.3594203 330.12761,70.973913 L330.12761,70.973913 Z M326.686775,52.8915942 L322.184455,57.5675362 C320.154292,56.8614493 316.977958,54.3026087 315.830626,52.8034783 C315.830626,47.3356522 315.918794,43.7194203 315.918794,38.9553623 C315.918794,34.1936232 316.006961,24.7547826 316.006961,24.7547826 L316.360789,24.5797101 C319.272622,25.7252174 324.479118,28.1078261 326.685615,29.3414493 L326.685615,52.8915942 L326.686775,52.8915942 Z M339.303944,67.7101449 C336.834107,65.5930435 335.510441,58.0950725 335.510441,52.8034783 C335.510441,47.5118841 335.684455,38.0742029 335.861949,28.7257971 C336.480278,27.5791304 337.715777,26.2550725 338.334107,25.7252174 L322.359629,17.7866667 C319.889791,20.3455072 312.564965,26.5194203 306.296984,28.1066667 C306.650812,29.782029 307.00348,34.6342029 307.00348,40.013913 C307.00348,45.395942 306.737819,52.7153623 306.296984,56.595942 C308.945476,59.4202899 311.50348,61.4469565 315.563805,64.093913 L301.089327,78.3826087 L302.061485,79.2637681 L305.50348,75.8237681 C306.649652,75.2081159 309.473318,74.5008696 311.767981,74.5008696 C317.592807,74.5008696 321.740139,76.4417391 325.360789,78.2933333 C328.981439,73.1791304 336.12761,68.5913043 339.303944,67.7101449 L339.303944,67.7101449 Z M289.319026,58.0069565 C288.261021,59.0666667 285.788863,60.2121739 284.288863,60.2121739 C282.788863,60.2121739 281.288863,58.9785507 279.612529,56.8602899 C279.436195,53.5976812 279.524362,52.3628986 279.524362,49.097971 C279.524362,47.0689855 279.700696,42.2191304 279.790023,40.2782609 C281.820186,40.72 282.790023,41.0724638 284.99652,41.0724638 C287.200696,41.0724638 287.730858,40.8081159 289.320186,40.6318841 L289.320186,58.0069565 L289.319026,58.0069565 Z M289.319026,39.5733333 C288.525522,39.7495652 287.025522,40.013913 285.258701,40.013913 C281.024362,40.013913 272.906032,38.0742029 271.406032,31.106087 C272.991879,29.782029 277.406032,26.5194203 279.348028,25.3727536 C281.99652,26.3431884 286.408353,28.5472464 289.320186,30.4 L289.320186,39.5733333 L289.319026,39.5733333 Z M307.764501,56.5078261 L307.146172,55.8921739 L301.851508,60.3014493 C300.263341,59.9478261 298.49768,58.8023188 298.233179,56.6852174 L298.233179,40.1913043 C298.233179,34.2817391 298.233179,30.5773913 298.409513,29.5188406 C298.675174,28.195942 299.027842,27.5791304 299.99768,26.0788406 C296.291183,24.1391304 285.437355,18.9344928 283.846868,17.7878261 C281.288863,20.3466667 272.640371,28.284058 270.080046,30.9298551 C270.786543,35.3402899 275.286543,38.6921739 277.670534,39.4863768 C275.464037,40.7211594 272.198376,41.7808696 269.726218,43.0144928 C270.256381,44.1611594 270.522042,45.6602899 270.522042,47.0713043 L270.433875,54.1263768 C270.345708,56.3315942 270.168213,58.7142029 270.080046,59.8597101 C272.022042,63.1246377 275.552204,65.5930435 278.728538,67.1802899 L288.87935,59.5965217 C290.025522,61.8886957 291.613689,65.0631884 296.467517,67.1802899 L307.764501,56.5078261 Z M242.24594,59.4202899 C241.892111,59.5965217 241.62761,59.6834783 241.363109,59.6834783 C240.74478,59.6834783 237.214617,58.4498551 236.950116,56.5089855 L236.950116,13.7298551 L242.24594,9.76115942 L242.24594,59.4202899 Z M271.722738,57.3031884 L271.018561,56.5971014 C269.25406,58.2724638 267.662413,59.6834783 266.781903,59.6834783 C265.901392,59.6834783 262.987239,57.92 262.281903,56.5089855 L262.281903,25.7263768 C262.281903,19.8168116 262.281903,16.5542029 262.458237,15.4956522 C262.721578,14.1715942 263.074246,13.5547826 264.044084,12.0556522 L250.277262,2.70724638 L238.098608,11.6150725 L225.037123,2.70724638 L212.240139,13.3797101 C208.533643,16.466087 202.974478,20.1692754 202.974478,27.3147826 L202.974478,30.5785507 C201.561485,30.137971 199.796984,29.9617391 199.00232,29.9617391 C194.236659,29.9617391 191.236659,32.7849275 191.236659,36.7524638 C191.236659,38.8684058 191.941995,39.84 192.383991,40.8104348 L193.265661,40.8104348 C193.089327,40.0150725 192.824826,38.7814493 192.824826,38.4278261 C192.824826,36.2237681 194.324826,34.6353623 196.795824,34.6353623 C200.061485,34.6353623 202.267981,36.1344928 203.150812,37.0168116 L203.150812,45.0423188 C203.150812,49.1884058 201.649652,51.9234783 198.11949,52.8927536 L198.296984,53.7762319 C208.180974,52.2771014 211.534803,47.5130435 211.534803,39.5744928 L211.534803,25.4608696 C211.534803,16.9055072 214.358469,13.2892754 216.829466,10.9078261 L216.829466,41.3368116 C216.829466,50.7733333 213.034803,52.7142029 209.063805,53.5095652 C206.150812,54.0394203 203.944316,53.7750725 200.414153,55.0968116 C197.237819,56.3304348 194.589327,59.0666667 194.589327,62.2411594 C194.589327,68.5913043 199.266821,71.7681159 204.298144,71.7681159 L204.298144,70.6202899 C202.00348,70.5321739 199.708817,69.4747826 199.708817,67.0921739 C199.708817,65.3286957 200.856148,63.8295652 203.944316,63.3878261 C206.150812,63.0365217 208.62181,62.7698551 210.299304,62.2423188 C213.917633,61.1826087 217.976798,59.9478261 217.976798,52.9808696 L217.976798,9.93855072 L218.506961,9.49565217 L227.155452,15.053913 L227.155452,52.8034783 C227.155452,56.0684058 225.831787,57.3031884 224.684455,58.7142029 L236.068445,67.004058 L246.306265,57.3031884 L245.600928,56.5971014 L243.306265,58.626087 L243.306265,9.14318841 L252.483759,15.053913 L252.483759,52.8034783 C252.483759,56.0684058 251.160093,57.3031884 250.012761,58.7142029 L261.397912,67.004058 L271.722738,57.3031884 Z M220.534803,3.32289855 L219.741299,2.70608696 C218.593968,3.85275362 217.358469,4.6457971 215.857309,4.6457971 C211.974478,4.6457971 210.298144,3.49913043 206.237819,3.49913043 C196.530162,3.49913043 193.440835,9.93971014 193.440835,13.8191304 C193.440835,17.1710145 194.941995,19.9930435 196.089327,20.8753623 L196.794664,20.5228986 C195.912993,18.9344928 195.382831,18.2284058 195.382831,16.4649275 C195.382831,12.7605797 198.648492,10.9089855 202.178654,10.9089855 C203.325986,10.9089855 207.12065,11.1733333 208.708817,11.1733333 C211.974478,11.1721739 217.358469,6.4973913 220.534803,3.32289855 L220.534803,3.32289855 Z M183.011601,29.7831884 C177.981439,25.9907246 174.539443,21.8446377 170.392111,17.6104348 C165.361949,21.8446377 159.271462,26.96 154.771462,28.5484058 C154.947796,28.9901449 155.212297,30.5773913 155.212297,31.4597101 L155.212297,50.6863768 C155.212297,54.0405797 154.771462,55.6255072 153.535963,57.4794203 L167.921114,66.915942 C170.303944,65.3286957 178.24594,57.6544928 182.482599,53.3333333 L181.599768,52.537971 C178.687935,55.5385507 175.951276,58.6249275 172.951276,58.6249275 C170.480278,58.6249275 165.62645,55.8028986 163.860789,53.5976812 L163.860789,43.2776812 L183.011601,29.7831884 Z M174.363109,33.9281159 L163.948956,41.8678261 C163.948956,35.2521739 164.214617,26.1669565 164.12529,24.226087 L164.479118,24.1391304 L174.363109,33.9281159 Z M140.439675,42.2202899 C140.439675,47.4237681 140.351508,53.5107246 140.175174,60.3895652 L139.733179,60.7431884 L129.320186,54.1263768 C129.320186,54.1263768 129.320186,41.4249275 129.408353,28.195942 C131.084687,26.5205797 133.37935,25.0214493 135.321346,25.0214493 C136.99768,25.0214493 139.027842,26.9611594 140.175174,28.6376812 C140.439675,31.5466667 140.439675,36.3976812 140.439675,42.2202899 L140.439675,42.2202899 Z M149.970998,55.8921739 C149.441995,55.3623188 149.264501,53.7750725 149.264501,52.1855072 L149.264501,39.222029 C149.264501,33.5768116 149.264501,30.6655072 149.530162,26.8730435 C148.823666,24.3153623 145.911833,20.1692754 140.616009,17.9652174 L130.643852,25.8144928 C130.113689,26.1681159 129.849188,26.4324638 129.408353,26.697971 C129.408353,21.7576812 129.49652,17.2591304 129.49652,12.8498551 C129.49652,5.44115942 130.201856,3.41217391 134.526682,1.73681159 L134.350348,1.03072464 C126.230858,2.08927536 123.317865,5.70550725 122.788863,7.11652174 C121.37703,5.70550725 118.552204,4.55884058 116.435035,4.11826087 L116.257541,4.64695652 C119.082367,6.85217391 120.582367,8.61681159 120.582367,14.5263768 L120.582367,32.6075362 C120.582367,40.3686957 120.406032,47.9547826 120.406032,49.2765217 C120.406032,52.1866667 120.141531,55.9814493 118.111369,57.3924638 L133.732019,67.0052174 C139.645012,61.5350725 143.087007,58.6249275 149.970998,55.8921739 L149.970998,55.8921739 Z M105.103248,60.5657971 L104.75058,60.8313043 C101.74942,58.8023188 96.1009281,55.4504348 94.0707657,54.1263768 L94.0707657,24.7547826 L94.424594,24.5797101 C94.7772622,24.7547826 102.984919,28.7257971 105.103248,29.9605797 L105.103248,60.5657971 L105.103248,60.5657971 Z M114.810905,25.3727536 L100.337587,17.7866667 C97.8665893,20.3455072 90.9825986,26.5194203 84.7169374,28.1066667 C85.0696056,28.6365217 85.2459397,32.4289855 85.2459397,35.2510145 C85.2459397,38.2504348 85.3341067,45.5698551 85.2459397,51.2150725 C85.1577726,55.7124638 85.2459397,57.1257971 84.5394432,58.0057971 L99.1902552,67.0910145 C103.513921,62.7675362 108.986079,58.5356522 114.281903,56.1530435 C114.104408,54.4776812 113.928074,52.8011594 113.928074,50.3327536 C113.928074,43.0110145 113.928074,37.8944928 114.016241,31.4562319 C114.016241,28.9008696 114.458237,26.6968116 114.810905,25.3727536 L114.810905,25.3727536 Z M86.7993039,56.595942 L86.0939675,55.9802899 C84.1519722,57.8307246 81.9454756,59.7715942 81.062645,59.7715942 C79.9153132,59.7715942 76.562645,57.4794203 76.562645,56.8614493 C76.474478,39.8388406 76.474478,29.9594203 76.562645,12.9368116 C76.562645,5.52695652 77.8863109,3.32289855 80.974478,1.38318841 L80.7099768,0.765217391 C74.0916473,1.82376812 71.4431555,5.26376812 70.649652,6.41043478 C69.2366589,4.99826087 67.6484919,4.11594203 65.0893271,3.14666667 L64.912993,3.58724638 C67.824826,6.4115942 67.7366589,10.7315942 67.7366589,13.9072464 L67.7366589,53.3333333 C67.7366589,56.595942 66.412993,57.8307246 65.2656613,59.2417391 L75.6798144,67.004058 L86.7993039,56.595942 Z M52.6102088,46.6295652 C52.6102088,48.306087 52.5220418,52.537971 51.0220418,55.7124638 C46.962877,59.4191304 41.8433875,61.0956522 36.725058,61.0956522 L35.0475638,61.0956522 C34.9593968,56.8614493 34.9593968,50.4231884 34.9593968,44.2481159 C34.9593968,37.3669565 34.9593968,31.106087 35.0475638,29.1652174 C35.9303944,28.9889855 36.4605568,28.9889855 37.3422274,28.9889855 C46.8735499,28.9889855 52.6102088,39.0434783 52.6102088,46.6295652 L52.6102088,46.6295652 Z M33.9013921,61.0075362 C27.8990719,60.653913 20.75058,56.595942 18.0150812,53.9513043 C24.0162413,49.4515942 27.8990719,47.2463768 28.0765661,40.102029 C28.1647332,35.6927536 28.1647332,31.8110145 28.1647332,25.0202899 C28.1647332,18.2284058 28.1647332,15.4933333 28.0765661,9.40753623 L30.1055684,8.08347826 L33.9013921,9.84811594 L33.9013921,61.0075362 Z M19.8689095,41.337971 C19.8689095,47.7762319 19.6032483,51.657971 17.1322506,53.1571014 C12.5429234,48.6573913 9.63109049,42.2202899 9.63109049,34.1055072 C9.63109049,26.1669565 12.3665893,19.8168116 19.8689095,14.7014493 L19.8689095,41.337971 L19.8689095,41.337971 Z M48.6392111,16.9066667 C45.4617169,20.0811594 37.7842227,26.2550725 35.0475638,28.4602899 L35.0475638,10.4672464 C37.1658933,11.084058 45.7273782,14.7884058 48.6392111,16.9066667 L48.6392111,16.9066667 Z M61.7006961,6.67362319 L60.5533643,5.70318841 L56.4060325,9.9373913 C53.4048724,9.14202899 39.4605568,2.79304348 37.1658933,1.02724638 C35.6658933,3.05623188 33.1067285,4.55536232 31.8712297,5.5257971 C28.9582367,7.64289855 23.2227378,11.2591304 19.6032483,13.7286957 C15.9849188,16.1982609 10.7784223,19.9907246 5.12993039,24.0486957 C1.77610209,29.2510145 0.628770302,34.8092754 0.628770302,39.3078261 C0.628770302,55.977971 15.1914153,67.5315942 31.6948956,67.5315942 C34.2540603,67.5315942 39.1960557,65.8562319 49.5220418,58.5344928 C52.8758701,56.1518841 58.1705336,50.3327536 60.112529,48.0382609 C60.6415313,46.2736232 61.0823666,44.1576812 61.0823666,41.7762319 C61.0823666,28.5449275 49.5220418,22.8127536 45.0208817,21.6649275 L61.7006961,6.67362319 Z"></path>
            </g>
        </g>
    </g>
</svg>