<?xml version="1.0" encoding="UTF-8"?>
<svg width="500px" height="106px" viewBox="0 0 500 106" version="1.1" xmlns="http://www.w3.org/2000/svg" xmlns:xlink="http://www.w3.org/1999/xlink">
    <!-- Generator: Sketch 42 (36781) - http://www.bohemiancoding.com/sketch -->
    <title>statplus-logo-white</title>
    <desc>Created with Sketch.</desc>
    <defs></defs>
    <g id="Page-1" stroke="none" stroke-width="1" fill="none" fill-rule="evenodd">
        <g id="statplus-logo-white" fill-rule="nonzero">
            <g id="statpluslogo_white">
                <g>
                    <g id="Layer_2">
                        <g id="Artwork">
                            <path d="M55.492228,82.0853659 C56.1398964,72.2157317 51.515544,63.7228049 36.5414508,57.5243902 L25.1878238,52.8060976 C10.4533679,46.6076829 5.03238342,36.8414634 5.79015544,25.595122 C6.9753886,8.07926829 21.2046632,-0.381341463 39.0090674,0.814390244 C51.373057,1.64817073 58.8601036,4.75060976 65.6217617,9.42365854 L64.6049223,24.4704878 L63.3678756,24.3864634 C58.7564767,9.95365854 49.753886,5.38402439 39.119171,4.66658537 C27.746114,3.87804878 18.5621762,11.2140244 17.9080311,20.8315854 C17.3380829,29.2340244 20.1101036,35.9753659 32.0595855,41.1202439 L40.9909326,44.940122 C52.8238342,49.9492683 69.2227979,57.130122 67.8756477,77.115 C66.6321244,95.4969512 52.9404145,106.969512 31.9300518,105.554024 C18.8277202,104.675 8.01165803,101.094268 0,94.7278049 L1.15284974,77.7031707 L2.38989637,77.7871951 C9.16450777,98.8126829 20.492228,100.318659 30.6217617,101.00378 C46.4443005,102.070244 54.7279793,93.4545122 55.492228,82.0853659 Z M143.63342,93.3317073 C143.63342,99.8856098 145.861399,101.372195 152.551813,101.372195 L158.380829,101.372195 L158.380829,103.957561 L116.010363,103.957561 L116.010363,101.372195 L121.19171,101.372195 C128.503886,101.372195 130.731865,99.8856098 130.731865,93.4609756 L130.731865,7.49756098 L114.022021,7.49756098 C101.509067,7.49756098 95.5634715,12.8169512 93.5751295,24.6837805 L92.3380829,24.6837805 L92.3380829,2.96670732 L182.046632,2.96670732 L182.046632,24.7290244 L180.809585,24.7290244 C178.950777,12.9785366 173.005181,7.54280488 160.362694,7.54280488 L143.639896,7.54280488 L143.63342,93.3317073 Z M353.65285,93.3317073 C353.65285,99.8856098 355.880829,101.372195 362.571244,101.372195 L368.400259,101.372195 L368.400259,103.957561 L326.029793,103.957561 L326.029793,101.372195 L331.21114,101.372195 C338.523316,101.372195 340.751295,99.8856098 340.751295,93.4609756 L340.751295,7.49756098 L324.047927,7.49756098 C311.534974,7.49756098 305.589378,12.8169512 303.601036,24.6837805 L302.36399,24.6837805 L302.36399,2.96670732 L392.072539,2.96670732 L392.072539,24.7290244 L390.835492,24.7290244 C388.976684,12.9785366 383.031088,7.54280488 370.388601,7.54280488 L353.659326,7.54280488 L353.65285,93.3317073 Z M259.475389,0 L261.088083,0 L276.774611,94.0943902 C278.011658,98.7932927 280.492228,101.391585 285.446891,101.391585 L288.419689,101.391585 L288.050518,103.976951 L252.733161,103.976951 L253.102332,101.391585 L255.829016,101.391585 C260.783679,101.391585 264.054404,99.905 263.264249,95.3353659 L258.73057,67.762439 L222.752591,67.762439 L212.247409,84.5026829 C203.115285,100.014878 205.15544,101.398049 214.190415,101.398049 L216.321244,101.398049 L215.952073,103.983415 L186.198187,103.983415 L186.567358,101.398049 L187.823834,101.398049 C194.760363,101.398049 197.195596,99.1940244 205.790155,86.0668293 L259.475389,0 Z M228.031088,59.3535366 L257.409326,59.3535366 L251.295337,22.26 L228.031088,59.3535366 Z" id="Shape" fill="#FFFFFF"></path>
                            <rect id="Rectangle-path" fill="#1FADB6" x="448.510363" y="8.14390244" width="11.4119171" height="90.7463415"></rect>
                            <rect id="Rectangle-path" fill="#1FADB6" x="408.75" y="47.8292683" width="90.9326425" height="11.3885366"></rect>
                        </g>
                    </g>
                </g>
            </g>
        </g>
    </g>
</svg>