<?xml version="1.0" encoding="UTF-8"?>
<svg width="500px" height="135px" viewBox="0 0 500 135" version="1.1" xmlns="http://www.w3.org/2000/svg" xmlns:xlink="http://www.w3.org/1999/xlink">
    <!-- Generator: Sketch 42 (36781) - http://www.bohemiancoding.com/sketch -->
    <title>stat-logo-white</title>
    <desc>Created with Sketch.</desc>
    <defs></defs>
    <g id="Page-1" stroke="none" stroke-width="1" fill="none" fill-rule="evenodd">
        <g id="stat-logo-white" fill-rule="nonzero" fill="#FFFFFF">
            <g id="path3545">
                <path d="M71.1845103,104.486205 C72.0387244,91.9932889 66.0592255,81.2039526 46.9817768,73.2539153 L32.4601367,67.2913873 C13.667426,59.34135 6.83371298,46.8484342 7.68792711,32.651939 C9.39635535,10.2214765 27.61959,-0.567859808 50.3986333,1.13571962 C66.0592255,2.27143923 75.7403189,6.24645789 84.2824601,12.2089859 L82.8587699,31.2322895 L81.1503417,31.2322895 C75.1708428,12.7768457 63.7813212,7.0982476 50.1138952,6.24645789 C35.5922551,5.39466818 23.9179954,14.4804251 23.0637813,26.9733409 C22.2095672,37.7626772 25.9111617,46.2805744 41.0022779,52.8109622 L52.3917995,57.6377705 C67.4829157,63.8842284 88.2687927,73.2539153 86.5603645,98.5236767 C84.8519362,121.805929 67.4829157,136.570284 40.7175399,134.866704 C23.9179954,133.730985 10.2505695,129.188106 0,120.954139 L1.42369021,99.3754664 L3.13211845,99.3754664 C11.6742597,126.064877 26.1958998,128.052387 39.0091116,128.904176 C59.7949886,130.039896 70.3302961,118.96663 71.1845103,104.486205 Z M183.656036,118.96663 C183.656036,127.200597 186.503417,129.188106 195.045558,129.188106 L202.448747,129.188106 L202.448747,132.311335 L148.348519,132.311335 L148.348519,128.904176 L154.897494,128.904176 C164.29385,128.904176 167.14123,126.916667 167.14123,118.96663 L167.14123,9.65361674 L145.785877,9.65361674 C129.840547,9.65361674 122.15262,16.4679344 119.589977,31.5162194 L117.881549,31.5162194 L117.881549,3.69108875 L232.346241,3.69108875 L232.346241,31.5162194 L230.922551,31.5162194 C228.644647,16.4679344 220.95672,9.65361674 204.726651,9.65361674 L183.371298,9.65361674 L183.371298,118.96663 L183.656036,118.96663 Z M451.309795,118.96663 C451.309795,127.200597 454.157175,129.188106 462.699317,129.188106 L470.102506,129.188106 L470.102506,132.311335 L416.002278,132.311335 L416.002278,128.904176 L422.551253,128.904176 C431.947608,128.904176 434.794989,126.916667 434.794989,118.96663 L434.794989,9.65361674 L413.439636,9.65361674 C397.494305,9.65361674 389.806378,16.4679344 387.243736,31.5162194 L385.535308,31.5162194 L385.535308,3.69108875 L500,3.69108875 L500,31.5162194 L498.291572,31.5162194 C496.013667,16.4679344 488.32574,9.65361674 472.095672,9.65361674 L450.740319,9.65361674 L450.740319,118.96663 L451.309795,118.96663 Z M331.43508,0 L333.428246,0 L353.359909,119.81842 C355.068337,125.780948 358.200456,129.188106 364.464692,129.188106 L368.166287,129.188106 L367.596811,132.311335 L322.6082,132.311335 L323.177677,128.904176 L326.594533,128.904176 C332.85877,128.904176 337.129841,126.916667 335.990888,121.238069 L330.296128,86.0307609 L284.453303,86.0307609 L271.070615,107.325504 C259.396355,127.200597 261.958998,128.904176 273.633257,128.904176 L276.1959,128.904176 L275.911162,132.311335 L238.041002,132.311335 L238.610478,128.904176 L240.318907,128.904176 C249.145786,128.904176 252.277904,126.064877 263.09795,109.313013 L331.43508,0 L331.43508,0 Z M291.287016,75.5253545 L328.872437,75.5253545 L321.18451,28.3929904 L291.287016,75.5253545 Z"></path>
            </g>
        </g>
    </g>
</svg>