<svg width="500" height="180" xmlns="http://www.w3.org/2000/svg" xmlns:sketch="http://www.bohemiancoding.com/sketch/ns"><title>logo-black</title><desc>Created with Sketch.</desc><g sketch:type="MSLayerGroup" fill="none"><path d="M149.483 166.76c0 2.244-1.811 4.063-4.046 4.063-2.235 0-4.046-1.819-4.046-4.063 0-2.246 1.811-4.065 4.046-4.065 2.234 0 4.046 1.819 4.046 4.065" sketch:type="MSShapeGroup"/><path d="M109.443 164.246c0 2.244-1.811 4.063-4.046 4.063-2.235 0-4.046-1.819-4.046-4.063 0-2.246 1.811-4.065 4.046-4.065 2.234 0 4.046 1.819 4.046 4.065" sketch:type="MSShapeGroup"/><path d="M60.394 151.677c0 2.244-1.811 4.063-4.046 4.063-2.235 0-4.046-1.819-4.046-4.063 0-2.246 1.811-4.065 4.046-4.065 2.234 0 4.046 1.819 4.046 4.065" sketch:type="MSShapeGroup"/><path d="M20.354 111.956c0 2.244-1.811 4.063-4.046 4.063-2.235 0-4.046-1.819-4.046-4.063 0-2.246 1.811-4.065 4.046-4.065 2.234 0 4.046 1.819 4.046 4.065" sketch:type="MSShapeGroup"/><path d="M21.856 54.638c0 2.244-1.811 4.063-4.046 4.063-2.235 0-4.046-1.819-4.046-4.063 0-2.246 1.811-4.065 4.046-4.065 2.234 0 4.046 1.819 4.046 4.065" sketch:type="MSShapeGroup"/><path d="M60.394 15.42c0 2.244-1.811 4.063-4.046 4.063-2.235 0-4.046-1.819-4.046-4.063 0-2.246 1.811-4.065 4.046-4.065 2.234 0 4.046 1.819 4.046 4.065" sketch:type="MSShapeGroup"/><path d="M104.813 176.062c0 2.128-1.718 3.854-3.837 3.854s-3.837-1.726-3.837-3.854c0-2.129 1.718-3.855 3.837-3.855s3.837 1.726 3.837 3.855" sketch:type="MSShapeGroup"/><path d="M50.759 159.973c0 2.128-1.718 3.854-3.837 3.854s-3.837-1.726-3.837-3.854c0-2.129 1.718-3.855 3.837-3.855s3.837 1.726 3.837 3.855" sketch:type="MSShapeGroup"/><path d="M7.716 115.224c0 2.128-1.718 3.854-3.837 3.854s-3.837-1.726-3.837-3.854c0-2.129 1.718-3.855 3.837-3.855s3.837 1.726 3.837 3.855" sketch:type="MSShapeGroup"/><path d="M9.218 51.872c0 2.128-1.718 3.854-3.837 3.854s-3.837-1.726-3.837-3.854c0-2.129 1.718-3.855 3.837-3.855s3.837 1.726 3.837 3.855" sketch:type="MSShapeGroup"/><path d="M51.26 6.621c0 2.128-1.718 3.854-3.837 3.854s-3.837-1.726-3.837-3.854c0-2.129 1.718-3.855 3.837-3.855s3.837 1.726 3.837 3.855" sketch:type="MSShapeGroup"/><path d="M36.704 58.325c0 2.892-2.334 5.236-5.214 5.236-2.879 0-5.214-2.345-5.214-5.236 0-2.894 2.334-5.239 5.214-5.239 2.879 0 5.214 2.345 5.214 5.239" sketch:type="MSShapeGroup"/><path d="M72.24 26.146c0 2.892-2.334 5.236-5.214 5.236-2.879 0-5.214-2.345-5.214-5.236 0-2.894 2.334-5.239 5.214-5.239 2.879 0 5.214 2.345 5.214 5.239" sketch:type="MSShapeGroup"/><path d="M35.203 108.604c0 2.892-2.334 5.236-5.214 5.236-2.879 0-5.214-2.345-5.214-5.236 0-2.894 2.334-5.239 5.214-5.239 2.879 0 5.214 2.345 5.214 5.239" sketch:type="MSShapeGroup"/><path d="M72.24 141.789c0 2.892-2.334 5.236-5.214 5.236-2.879 0-5.214-2.345-5.214-5.236 0-2.894 2.334-5.239 5.214-5.239 2.879 0 5.214 2.345 5.214 5.239" sketch:type="MSShapeGroup"/><path d="M51.802 104.749c0 3.101-2.502 5.615-5.589 5.615-3.087 0-5.589-2.513-5.589-5.615 0-3.101 2.502-5.614 5.589-5.614 3.087 0 5.589 2.513 5.589 5.614" sketch:type="MSShapeGroup"/><path d="M51.802 62.514c0 3.101-2.502 5.615-5.589 5.615-3.087 0-5.589-2.513-5.589-5.615 0-3.101 2.502-5.614 5.589-5.614 3.087 0 5.589 2.513 5.589 5.614" sketch:type="MSShapeGroup"/><path d="M461.069 121.541l-10.87-3.312 3.197-10.592 10.871 3.312-3.198 10.592" sketch:type="MSShapeGroup"/><path d="M475.402 125.334l-9.905-3.018 2.913-9.651 9.905 3.018-2.913 9.651" sketch:type="MSShapeGroup"/><path d="M486.82 127.897l-8.313-2.533 2.444-8.101 8.314 2.533-2.445 8.101" sketch:type="MSShapeGroup"/><path d="M497.983 129.877l-6.738-2.053 1.982-6.565 6.738 2.053-1.982 6.565" sketch:type="MSShapeGroup"/><path d="M441.359 153.01l-7.219-7.452 7.194-7.034 7.219 7.451-7.194 7.035" sketch:type="MSShapeGroup"/><path d="M450.122 160.797l-6.059-6.255 6.038-5.904 6.059 6.255-6.039 5.904" sketch:type="MSShapeGroup"/><path d="M458.941 167.951l-4.911-5.07 4.894-4.785 4.911 5.07-4.894 4.785" sketch:type="MSShapeGroup"/><path d="M460.487 82.44l-11.124 2.313-2.233-10.839 11.124-2.313 2.233 10.839" sketch:type="MSShapeGroup"/><path d="M474.882 78.886l-10.136 2.108-2.035-9.876 10.136-2.107 2.035 9.876" sketch:type="MSShapeGroup"/><path d="M486.129 75.652l-8.507 1.768-1.709-8.289 8.508-1.769 1.708 8.29" sketch:type="MSShapeGroup"/><path d="M496.876 72.029l-6.895 1.433-1.384-6.718 6.895-1.433 1.384 6.718" sketch:type="MSShapeGroup"/><path d="M440.913 38.786l-7.786 6.852-6.615-7.587 7.786-6.851 6.616 7.586" sketch:type="MSShapeGroup"/><path d="M449.114 30.404l-6.536 5.75-5.552-6.367 6.535-5.751 5.553 6.368" sketch:type="MSShapeGroup"/><path d="M456.688 21.932l-5.297 4.661-4.5-5.161 5.297-4.661 4.5 5.161" sketch:type="MSShapeGroup"/><path d="M402.21 13.528l-3.169 8.126-7.846-3.087 3.169-8.126 7.846 3.087" sketch:type="MSShapeGroup"/><path d="M405.055 2.505l-2.569 6.587-6.359-2.502 2.569-6.587 6.359 2.502" sketch:type="MSShapeGroup"/><path d="M360.239 17.225l-6.895 1.433-1.384-6.718 6.895-1.434 1.384 6.718" sketch:type="MSShapeGroup"/><path d="M229.093 88.355c1.019 2.118 1.531 4.591 1.531 7.417 0-2.826-.506-5.299-1.524-7.417-1.022-2.12-2.307-3.887-3.882-5.3-1.573-1.412-3.317-2.472-5.268-3.179 1.95.707 3.674 1.767 5.247 3.179 1.575 1.413 2.873 3.18 3.895 5.3" sketch:type="MSShapeGroup"/><path d="M237.827 85.43c1.171 2.885 1.761 6.2 1.761 9.967 0 3.947-.748 7.484-2.243 10.664-1.495 3.179-3.549 5.845-6.154 8.08-2.609 2.242-5.669 3.88-9.187 5.085 3.518-1.205 6.578-2.759 9.187-5.001 2.605-2.234 4.659-4.943 6.154-8.122 1.495-3.18 2.248-6.739 2.248-10.685 0-3.767-.585-7.093-1.756-9.978-1.173-2.884-2.844-5.326-5.045-7.33-2.197-1.999-4.844-3.562-7.978-4.678 3.134 1.117 5.761 2.679 7.957 4.678 2.2 2.004 3.883 4.436 5.055 7.32" sketch:type="MSShapeGroup"/><path d="M115.128 56.138l.896.029-.896-.029" sketch:type="MSShapeGroup"/><path d="M259.933 71.846c2.314-1.117 4.702-1.672 7.162-1.672 3.223 0 5.991.674 8.307 1.999 2.316 1.325 4.19 3.188 5.628 5.542 1.434 2.356 2.49 5.196 3.164 8.434-.674-3.237-1.73-6.123-3.164-8.479-1.438-2.354-3.312-4.195-5.628-5.521-2.316-1.323-5.085-1.987-8.307-1.987-2.46 0-4.848.562-7.162 1.678-2.316 1.119-4.352 2.782-6.111 4.989-1.261 1.588-2.344 3.452-3.261 5.572.916-2.119 2-3.982 3.261-5.568 1.758-2.209 3.795-3.868 6.111-4.987" sketch:type="MSShapeGroup"/><path d="M108.538 65.653c-.459.247-.903.526-1.34.825.438-.293.88-.577 1.34-.825" sketch:type="MSShapeGroup"/><path d="M276.905 114.184c.578-.17 1.212-.387 1.852-.626-.679.245-1.362.457-1.948.629-.905.261-1.804.455-2.708.573l.029-.003c.911-.118 1.864-.31 2.774-.573" sketch:type="MSShapeGroup"/><path d="M106.118 67.274l-.034.026.034-.026" sketch:type="MSShapeGroup"/><path d="M344.444 115.642h.003c-1.877 0-3.441-.677-4.701-2.03-1.261-1.354-1.887-3.151-1.887-5.388 0-1.707.304-3.195.92-4.462.616-1.262 1.452-2.384 2.505-3.355-1.053.971-1.89 2.093-2.506 3.355-.616 1.267-.921 2.754-.921 4.461 0 2.236.626 4.036 1.886 5.39 1.26 1.355 2.823 2.029 4.701 2.029" sketch:type="MSShapeGroup"/><path d="M351.808 70.074c-2.943 0-5.746.412-8.283 1.194 2.54-.776 5.409-1.188 8.336-1.192l-.053-.002" sketch:type="MSShapeGroup"/><path d="M345.226 78.123c-1.436.413-2.839.997-4.097 1.674-1.207.647-2.43 1.356-3.484 2.084 1.063-.728 2.384-1.41 3.591-2.058 1.259-.677 2.599-1.291 4.036-1.705 1.437-.409 2.96-.687 4.601-.687h-.002c-1.642 0-3.206.282-4.644.692" sketch:type="MSShapeGroup"/><path d="M330.641 114.493c.643 1.707 1.53 3.178 2.671 4.417 1.144 1.235 2.461 2.191 3.984 2.868 1.524.678 3.129 1.014 4.888 1.014l.034-.002c-1.746-.004-3.375-.338-4.889-1.012-1.523-.677-2.858-1.633-4.002-2.868-1.141-1.239-2.037-2.709-2.68-4.417-.647-1.706-.968-3.622-.968-5.74 0-.752.043-1.467.112-2.156-.07.69-.113 1.404-.113 2.156 0 2.118.315 4.034.962 5.74" sketch:type="MSShapeGroup"/><path d="M273.646 122.001c-.905.089-1.942.177-3.106.177h.009c1.17 0 2.235-.088 3.144-.177.909-.088 1.861-.259 2.772-.464.908-.208 1.972-.5 2.996-.852-1.024.351-2.184.649-3.093.857-.91.205-1.815.37-2.724.458" sketch:type="MSShapeGroup"/><path d="M87.913 82.017l.057-.557-.057.557" sketch:type="MSShapeGroup"/><path d="M94.526 65.129c2.255-2.825 5.03-4.687 8.282-6.276 3.25-1.588 6.962-2.038 11.059-2.038h-.065c-4.102 0-7.78.449-11.033 2.038-3.252 1.589-6.008 3.625-8.263 6.449-2.255 2.827-3.986 6.109-5.187 10.024-.479 1.565-.836 3.187-1.124 4.9.29-1.706.65-3.386 1.134-4.964 1.2-3.915 2.941-7.307 5.197-10.133" sketch:type="MSShapeGroup"/><path d="M115.212 113.611c-3.002-.532-5.894-1.535-8.138-3.006-.23-.151-.445-.323-.67-.482.225.16.437.332.67.484 2.244 1.472 5.136 2.472 8.138 3.004" sketch:type="MSShapeGroup"/><path d="M403.388 114.141c-2.609 2.242-5.671 3.88-9.189 5.085 3.518-1.205 6.58-2.759 9.189-5.001 2.605-2.234 4.657-4.943 6.152-8.122 1.309-2.786 2.045-5.863 2.207-9.237-.164 3.362-.899 6.415-2.207 9.195-1.494 3.179-3.547 5.845-6.152 8.08" sketch:type="MSShapeGroup"/><path d="M398.393 107.692c-1.424 1.65-3.164 3.004-5.205 4.062 2.041-1.058 3.784-2.412 5.209-4.062 1.43-1.647 2.523-3.486 3.281-5.518.758-2.03 1.135-4.164 1.135-6.402 0 2.238-.379 4.372-1.137 6.402-.758 2.032-1.852 3.871-3.283 5.518" sketch:type="MSShapeGroup"/><path d="M95.387 112.887c-5.245-5.831-7.864-14.231-7.864-24.71 0-1.153.038-2.279.11-3.385-.076 1.149-.115 2.32-.115 3.508 0 10.479 2.623 18.756 7.867 24.587 5.245 5.825 12.935 8.987 23.076 8.987-10.141 0-17.829-3.163-23.074-8.987" sketch:type="MSShapeGroup"/><path d="M349.99 25.31l3.108-.703 3.889-.686 2.219-.282c.768-.109 1.561-.211 2.386-.262l2.552-.208 2.708-.081c.925-.047 1.873-.014 2.843-.004.971.005 1.963.017 2.976.098 4.045.217 8.41.794 12.92 1.827 4.512 1.041 9.153 2.595 13.757 4.64 4.603 2.046 9.114 4.681 13.405 7.755 4.279 3.09 8.322 6.669 11.863 10.701 3.582 3.995 6.725 8.387 9.316 12.996 2.582 4.626 4.694 9.39 6.233 14.251 1.522 4.793 2.554 9.597 3.101 14.213l.427 13.098c-.077 1.015-.089 2.016-.214 2.984l-.305 2.845c-.283 1.834-.508 3.592-.872 5.214-.63 3.264-1.438 6.057-2.131 8.355-.758 2.269-1.357 4.065-1.857 5.249l-.725 1.838.89-1.762c.6-1.144 1.395-2.867 2.318-5.1.873-2.253 1.919-5.007 2.752-8.287.471-1.626.81-3.393 1.221-5.252.313-1.873.646-3.849.838-5.93.429-4.157.552-8.712.142-13.504-.392-4.787-1.265-9.817-2.781-14.875-1.49-4.993-3.523-10.102-6.215-14.921-2.676-4.834-5.925-9.455-9.649-13.656-3.738-4.193-7.989-7.902-12.479-11.095-4.492-3.204-9.299-5.785-14.115-7.827-4.821-2.053-9.708-3.462-14.403-4.374-4.699-.926-9.221-1.291-13.381-1.302-4.159-.004-7.965.281-11.289.845-.833.107-1.633.26-2.401.418l-2.227.446-3.867.989c-1.151.365-2.176.687-3.072.968-.888.282-1.616.596-2.22.811l-1.845.698 1.9-.524c.62-.162 1.375-.406 2.286-.602" sketch:type="MSShapeGroup"/><path d="M114.114 56.816h-.248c-4.097 0-7.809.449-11.059 2.038-3.252 1.589-6.027 3.625-8.282 6.449-2.255 2.827-3.996 6.109-5.197 10.024-.484 1.579-.844 3.194-1.134 4.9-.073.428-.165.82-.225 1.255l-.057.535c-.114.912-.217 1.832-.281 2.775-.072 1.106-.11 2.232-.11 3.385 0 10.479 2.619 19.031 7.864 24.862 5.245 5.824 12.933 9.14 23.074 9.14h5.664v-41.419l-9.009 12.982v19.869c-3.003-.532-5.845-1.532-8.089-3.004-.232-.152-.421-.324-.645-.484-1.965-1.388-3.7-3.06-5.009-5.04-1.46-2.208-2.546-4.717-3.273-7.514-.731-2.796-1.092-5.796-1.092-8.974 0-3.534.484-6.826 1.452-9.828.967-3.002 2.314-5.658 4.046-7.866 1.073-1.372 2.275-2.572 3.578-3.601l.035-.026c.353-.278.709-.549 1.08-.796.436-.298.881-.577 1.34-.825l.322-.171c2.316-1.236 4.502-1.627 7.138-1.627h1.231c.351 0 .889.185 1.89.304v-7.595c-2.002-.234-2.529-.368-3.143-.397l-.791-.029" sketch:type="MSShapeGroup"/><path d="M87.633 84.792c.064-.943.167-1.863.281-2.775-.115.911-.218 1.829-.281 2.775" sketch:type="MSShapeGroup"/><path d="M102.506 70.901c-1.731 2.208-3.078 4.864-4.045 7.866-.968 3.002-1.45 6.294-1.45 9.828 0 3.178.363 6.178 1.095 8.974.727 2.798 1.819 5.306 3.279 7.514 1.308 1.98 3.056 3.652 5.021 5.04-1.951-1.387-3.646-3.055-4.953-5.034-1.459-2.208-2.587-4.71-3.313-7.507-.731-2.796-1.111-5.783-1.111-8.961 0-3.534.475-6.801 1.442-9.804.967-3.001 2.309-5.607 4.04-7.813 1.076-1.377 2.267-2.643 3.574-3.703-1.303 1.028-2.505 2.228-3.578 3.601" sketch:type="MSShapeGroup"/><path d="M108.538 65.653l.035-.02c2.316-1.235 4.79-2.057 7.426-2.057-2.636 0-5.112.822-7.428 2.057l-.033.02" sketch:type="MSShapeGroup"/><path d="M88.195 80.185c-.073.426-.164.84-.225 1.276.06-.436.152-.849.225-1.276" sketch:type="MSShapeGroup"/><path d="M107.197 66.478c-.37.247-.726.518-1.08.796.351-.283.712-.545 1.08-.796" sketch:type="MSShapeGroup"/><path d="M137.137 53.799h9.009v67.374h-9.009v-67.374z" sketch:type="MSShapeGroup"/><path d="M161.88 115.197c1.7 2.295 3.721 4.078 6.066 5.345 2.345 1.263 4.979 1.897 7.91 1.897s5.568-.618 7.912-1.855c2.343-1.233 4.35-3.002 6.021-5.298 1.669-2.293 2.957-5.046 3.867-8.253.909-3.209 1.362-6.816 1.362-10.819 0-4.062-.437-7.711-1.317-10.95-.879-3.237-2.154-5.989-3.826-8.257-1.669-2.266-3.69-4.001-6.064-5.208-2.372-1.207-5.024-1.812-7.955-1.812s-5.581.605-7.955 1.812c-2.372 1.208-4.393 2.927-6.064 5.165-1.668 2.238-2.958 4.989-3.867 8.257-.91 3.266-1.362 6.931-1.362 10.993 0 3.885.452 7.448 1.362 10.683.909 3.237 2.211 6.005 3.91 8.3zm4.264-26.667c.496-2.295 1.214-4.252 2.154-5.872.938-1.617 2.034-2.884 3.297-3.797 1.258-.911 2.681-1.368 4.262-1.368 3.166 0 5.685 1.677 7.561 5.031 1.874 3.357 2.814 7.919 2.814 13.689 0 2.766-.25 5.299-.746 7.594-.503 2.296-1.202 4.269-2.113 5.919-.909 1.647-2.007 2.929-3.295 3.84-1.29.913-2.695 1.368-4.221 1.368-1.581 0-3.004-.455-4.262-1.368-1.263-.911-2.359-2.178-3.297-3.799-.94-1.617-1.657-3.575-2.154-5.871-.498-2.297-.748-4.856-.748-7.682 0-2.827.25-5.387.748-7.684z" sketch:type="MSShapeGroup"/><path d="M222.005 119.379c3.518-1.205 6.578-2.92 9.187-5.162 2.605-2.234 4.659-4.939 6.154-8.117 1.495-3.18 2.243-6.736 2.243-10.683 0-3.767-.59-7.092-1.761-9.976-1.172-2.885-2.855-5.321-5.055-7.326-2.197-1.999-4.849-3.564-7.983-4.681-3.137-1.119-6.571-1.826-10.575-2.122v-17.512h-9.009v67.374h5.461c4.045 0 7.824-.59 11.338-1.794zm-7.79-40.738c2.002.118 3.756.528 5.711 1.235 1.95.707 3.707 1.767 5.28 3.179 1.575 1.413 2.866 3.18 3.888 5.3 1.019 2.118 1.527 4.591 1.527 7.417 0 2.238-.372 4.372-1.129 6.402-.758 2.032-1.839 3.871-3.269 5.518-1.426 1.65-3.166 3.004-5.205 4.062-2.043 1.06-4.801 1.738-6.803 2.032v-35.144z" sketch:type="MSShapeGroup"/><path d="M226.202 107.692c-1.426 1.65-3.119 3.004-5.159 4.062 2.04-1.058 3.753-2.412 5.18-4.062 1.43-1.647 2.512-3.486 3.27-5.518.756-2.03 1.131-4.164 1.131-6.402 0 2.238-.384 4.372-1.141 6.402-.758 2.032-1.85 3.871-3.281 5.518" sketch:type="MSShapeGroup"/><path d="M247.936 96.214c0 4.945.617 9.081 1.844 12.407 1.233 3.325 2.875 5.991 4.927 7.99 2.05 2.002 4.459 3.416 7.215 4.239 2.751.824 5.631 1.235 8.618 1.237 1.164-.002 2.201-.041 3.106-.131.908-.088 1.813-.236 2.724-.44.908-.209 2.059-.489 3.083-.84 1.025-.353 1.828-.827 3.83-1.413v-7.684c-.5.074-.466.146-.672.218-1.439.501-1.886.943-2.757 1.33-.353.157-.724.299-1.099.433-.641.239-1.274.456-1.851.626-.911.263-1.863.455-2.774.573l-.029.003-.019.003c-.906.118-1.887.183-2.942.183-2.111 0-4.089-.311-5.933-.961-1.844-.646-3.429-1.656-4.746-3.07-1.321-1.411-2.345-3.339-3.078-5.666-.731-2.324-1.071-5.696-1.009-8.712h28.83c0-4.022-.34-7.253-1.01-10.493-.674-3.237-1.73-6.025-3.164-8.381-1.438-2.354-3.312-4.191-5.628-5.516-2.316-1.325-5.085-1.985-8.307-1.985-2.46 0-4.848.561-7.162 1.677-2.316 1.12-4.352 2.782-6.111 4.991-1.261 1.586-2.344 3.451-3.261 5.57-.358.828-.697 1.687-1.003 2.597-1.081 3.239-1.623 6.978-1.623 11.216zm12.128-15.395c1.876-2.442 4.19-3.644 6.943-3.644 1.642 0 3.049.41 4.224 1.175 1.17.766 2.122 1.794 2.853 3.058.733 1.268 1.276 2.643 1.628 4.26.35 1.62.526 2.823.526 4.834h-19.513c.352-4.022 1.464-7.24 3.34-9.684z" sketch:type="MSShapeGroup"/><path d="M267.007 77.244c1.642 0 3.049.376 4.224 1.141 1.17.766 2.122 1.777 2.853 3.041.733 1.268 1.276 2.74 1.628 4.358.35 1.619.526 2.922.526 4.931 0-2.01-.176-3.313-.526-4.933-.351-1.617-.895-3.092-1.628-4.36-.731-1.264-1.683-2.279-2.853-3.045-1.175-.766-2.582-1.148-4.224-1.148-2.753 0-5.067 1.254-6.943 3.697 1.876-2.442 4.19-3.681 6.943-3.681" sketch:type="MSShapeGroup"/><path d="M257.383 105.354c.733 2.326 1.756 4.151 3.078 5.561 1.317 1.414 2.902 2.424 4.747 3.07 1.845.65 3.822.961 5.933.961 1.055 0 2.036-.065 2.943-.183l.019-.003c-.9.115-1.892.174-2.937.174-2.111 0-4.101-.322-5.946-.972-1.844-.646-3.435-1.678-4.752-3.092-1.321-1.412-2.348-3.19-3.081-5.517-.731-2.324-1.074-5.593-1.012-8.608-.062 3.015.278 6.284 1.009 8.608" sketch:type="MSShapeGroup"/><path d="M254.702 116.61c2.05 2.002 4.454 3.463 7.209 4.286 2.753.824 5.624 1.283 8.614 1.283h.016c-2.987 0-5.867-.46-8.618-1.283-2.755-.823-5.165-2.26-7.215-4.262-2.052-1.999-3.694-4.676-4.927-8.002-1.228-3.325-1.844-7.467-1.844-12.412 0-4.239.543-7.98 1.623-11.218.305-.91.644-1.769 1.003-2.597-.358.828-.698 1.686-1.004 2.596-1.081 3.239-1.624 6.976-1.624 11.214 0 4.945.616 9.08 1.843 12.406 1.233 3.325 2.872 5.991 4.924 7.989" sketch:type="MSShapeGroup"/><path d="M282.621 111.795c-1.439.501-1.891.942-2.762 1.329-.363.161-.733.298-1.102.434.374-.135.748-.276 1.102-.433.87-.387 1.323-.829 2.762-1.33" sketch:type="MSShapeGroup"/><path d="M323.824 113.631h-18.519v-55.81h-9.009v63.352h27.528v-7.542" sketch:type="MSShapeGroup"/><path d="M330.647 114.493c.643 1.707 1.539 3.178 2.68 4.417 1.144 1.235 2.479 2.191 4.002 2.868 1.515.674 3.143 1.008 4.889 1.012 2.56-.004 4.762-.485 6.719-1.453 1.962-.969 4.416-2.723 6.418-5.255v5.093h9.009v-39.442c0-4.121-1.224-7.093-3.599-8.919-2.36-1.815-5.349-2.727-8.9-2.737-2.926.004-5.798.415-8.338 1.192-.294.091-.6.164-.884.265-2.752.97-5.306 2.399-8.309 4.282v8.389c1.001-.707 2.081-1.441 3.163-2.207l.148-.097c1.055-.729 2.277-1.419 3.484-2.067 1.258-.677 2.66-1.298 4.097-1.711 1.438-.41 3.003-.692 4.644-.692h.005c1.7 0 3.03.473 4.028 1.268.994.794 1.453 2.033 1.453 3.564v4.416l-8.135 3.266c-2.46 1.001-4.717 2.032-6.855 3.09-2.142 1.06-4.001 2.315-5.584 3.756-1.585 1.443-2.83 3.121-3.741 5.032-.657 1.382-1.067 2.979-1.249 4.775-.069.69-.112 1.404-.112 2.156 0 2.118.321 4.034.967 5.74zm8.131-10.731c.616-1.263 1.453-2.384 2.506-3.356 1.056-.971 2.271-1.837 3.647-2.604 1.378-.764 2.787-1.471 4.313-2.118l6.112-2.737v16.424c-1.001.707-1.453 1.429-2.333 2.162-.877.741-1.745 1.414-2.683 2.034-.934.618-1.905 1.119-2.899 1.502-.997.383-1.995.575-2.989.575h-.006c-1.878 0-3.44-.675-4.701-2.03-1.26-1.354-1.886-3.151-1.886-5.388 0-1.707.305-3.196.921-4.462z" sketch:type="MSShapeGroup"/><path d="M347.426 115.068c-.995.383-1.985.575-2.979.575h.003c.994 0 1.991-.192 2.988-.575.994-.383 1.963-.882 2.898-1.501.938-.62 1.803-1.294 2.68-2.034-.877.74-1.766 1.414-2.704 2.034-.934.619-1.892 1.119-2.886 1.501" sketch:type="MSShapeGroup"/><path d="M343.526 71.268c-.296.091-.607.164-.892.265-2.752.97-5.301 2.399-8.303 4.282 3.002-1.882 5.558-3.312 8.309-4.282.285-.101.591-.174.885-.265" sketch:type="MSShapeGroup"/><path d="M334.78 96.789c1.583-1.441 3.44-2.695 5.582-3.756 2.138-1.057 4.392-2.089 6.852-3.09-2.46 1.001-4.738 2.032-6.875 3.09-2.142 1.06-3.986 2.315-5.57 3.756-1.585 1.443-2.822 3.121-3.733 5.032-.656 1.382-1.064 2.979-1.245 4.775.182-1.796.592-3.393 1.249-4.775.911-1.911 2.155-3.589 3.74-5.032" sketch:type="MSShapeGroup"/><path d="M349.874 77.43h-.003c1.699 0 3.012.473 4.011 1.268.994.794 1.461 1.996 1.461 3.526 0-1.529-.453-2.75-1.447-3.545-.998-.795-2.321-1.248-4.021-1.248" sketch:type="MSShapeGroup"/><path d="M342.251 122.791c2.576 0 4.714-.483 6.68-1.455-1.957.968-4.153 1.449-6.713 1.453l.033.002" sketch:type="MSShapeGroup"/><path d="M334.331 84.203c1.001-.707 2.086-1.441 3.168-2.207l.146-.097-.149.097c-1.082.766-2.164 1.5-3.165 2.207" sketch:type="MSShapeGroup"/><path d="M364.347 81.732c0-4.121-1.159-7.093-3.533-8.919-2.372-1.824-5.333-2.739-8.907-2.739l-.046.002c3.55.01 6.536.922 8.896 2.737 2.374 1.826 3.59 4.798 3.59 8.919" sketch:type="MSShapeGroup"/><path d="M410.021 85.44c-1.173-2.884-2.857-5.326-5.056-7.33-2.198-1.999-4.857-3.562-7.989-4.678-3.137-1.119-6.585-1.824-10.589-2.12v-17.512h-9.009v67.374h5.483c4.046 0 7.825-.59 11.338-1.794 3.518-1.205 6.58-2.92 9.189-5.162 2.605-2.234 4.657-4.939 6.152-8.117 1.308-2.78 2.043-5.853 2.207-9.214.024-.476.036-.968.036-1.457 0-3.767-.59-7.103-1.762-9.988zm-8.342 16.733c-.758 2.032-1.851 3.871-3.281 5.518-1.424 1.65-3.155 3.004-5.195 4.062-2.043 1.06-3.813 1.738-6.816 2.032v-35.144c2.002.118 3.769.528 5.721 1.235 1.954.707 3.719 1.767 5.292 3.179 1.575 1.413 2.866 3.18 3.886 5.3 1.022 2.118 1.529 4.591 1.529 7.417 0 2.238-.378 4.372-1.136 6.402z" sketch:type="MSShapeGroup"/><path d="M397.392 83.055c-1.573-1.412-3.344-2.472-5.299-3.179 1.954.707 3.722 1.767 5.295 3.179 1.575 1.413 2.873 3.18 3.893 5.3 1.022 2.118 1.532 4.591 1.532 7.417 0-2.826-.508-5.299-1.531-7.417-1.02-2.12-2.315-3.887-3.89-5.3" sketch:type="MSShapeGroup"/><path d="M410.023 85.43c-1.173-2.884-2.855-5.316-5.054-7.32-2.199-1.999-4.874-3.562-8.008-4.678 3.133 1.117 5.805 2.679 8.004 4.678 2.199 2.004 3.883 4.446 5.056 7.33 1.172 2.886 1.762 6.211 1.762 9.978 0 .489-.012.972-.036 1.448.025-.482.037-.972.037-1.469 0-3.767-.589-7.083-1.761-9.967" sketch:type="MSShapeGroup"/><path d="M59.679 111.073c1.989 4.996 4.554 10.059 7.767 14.759 3.196 4.721 6.964 9.167 11.181 13.139 4.227 3.961 8.942 7.376 13.854 10.242 4.917 2.872 10.091 5.076 15.234 6.727 5.145 1.66 10.298 2.655 15.212 3.152 4.914.515 9.596.464 13.873.087 4.277-.385 8.162-1.034 11.526-1.925.849-.186 1.656-.417 2.434-.652.777-.232 1.526-.454 2.247-.665 1.412-.504 2.712-.966 3.885-1.382l3.061-1.282c.889-.372 1.609-.765 2.213-1.044l1.832-.885-1.904.714c-.625.223-1.38.547-2.296.835l-3.129 1.011c-1.188.324-2.503.679-3.932 1.066l-2.257.5c-.779.183-1.586.362-2.431.49l-2.601.45-2.775.337c-.947.134-1.925.187-2.923.271-1.001.084-2.022.162-3.07.174-4.179.153-8.716-.032-13.446-.673-4.734-.649-9.65-1.816-14.569-3.486-4.921-1.672-9.802-3.963-14.496-6.721-4.684-2.778-9.173-6.079-13.185-9.892-4.047-3.774-7.687-7.991-10.776-12.49-3.083-4.514-5.692-9.211-7.724-14.062-2.004-4.787-3.515-9.626-4.499-14.32-.98-4.694-1.493-9.225-1.653-13.424-.017-1.05-.096-2.081-.059-3.086l.052-2.95c.124-1.916.191-3.742.414-5.441.342-3.415.915-6.363 1.413-8.787.571-2.404 1.021-4.305 1.426-5.57l.573-1.959-.752 1.897c-.511 1.231-1.169 3.074-1.911 5.457-.688 2.396-1.513 5.328-2.063 8.776-.334 1.716-.523 3.565-.772 5.512-.15 1.956-.308 4.019-.312 6.175-.058 4.312.235 9.005 1.099 13.894.848 4.884 2.209 9.973 4.238 15.03" sketch:type="MSShapeGroup"/></g></svg>