<?xml version="1.0" encoding="UTF-8"?>
<svg width="500px" height="129px" viewBox="0 0 500 129" version="1.1" xmlns="http://www.w3.org/2000/svg" xmlns:xlink="http://www.w3.org/1999/xlink">
    <!-- Generator: Sketch 42 (36781) - http://www.bohemiancoding.com/sketch -->
    <title>designne-logo-color</title>
    <desc>Created with Sketch.</desc>
    <defs></defs>
    <g id="Page-1" stroke="none" stroke-width="1" fill="none" fill-rule="evenodd">
        <g id="designne-logo-color">
            <g>
                <g id="design" transform="translate(0.000000, 23.000000)">
                    <path d="M16.1322835,14.7287912 L16.1322835,65.1621978 L27.6031338,65.1621978 C31.893831,65.1621978 34.9914965,64.9213187 36.8943732,64.4351648 C39.3858592,63.8118681 41.4530194,62.756044 43.0976109,61.2676923 C44.7404454,59.7784615 46.0819472,57.3283516 47.1194806,53.9164835 C48.1578926,50.5063736 48.6770986,45.8584615 48.6770986,39.9718681 C48.6770986,34.0852747 48.1578926,29.5665934 47.1194806,26.4149451 C46.0819472,23.2650549 44.6279947,20.8052747 42.7593803,19.04 C40.8907658,17.2738462 38.5205158,16.0791209 35.6486303,15.4558242 C33.5024032,14.9714286 29.2986796,14.7287912 23.0357025,14.7287912 L16.1322835,14.7287912 Z M0.768705986,1.84703297 L28.8488768,1.84703297 C35.181257,1.84703297 40.0087306,2.33318681 43.330419,3.30197802 C47.7941849,4.61802198 51.6175088,6.9556044 54.8012694,10.3138462 C57.9850299,13.6720879 60.4071127,17.7846154 62.0683961,22.6487912 C63.7296796,27.5147253 64.559882,33.5138462 64.559882,40.647033 C64.559882,46.9142857 63.7815123,52.3164835 62.2238944,56.8518681 C60.3210176,62.3920879 57.6046303,66.8773626 54.0747324,70.3041758 C51.4101778,72.901978 47.8117553,74.9274725 43.2785863,76.3815385 C39.8866162,77.4558242 35.3543257,77.9912088 29.6799577,77.9912088 L0.768705986,77.9912088 L0.768705986,1.84703297 L0.768705986,1.84703297 Z" id="Fill-1" fill="#24B4CF"></path>
                    <polyline id="Fill-4" fill="#24B4CF" points="98.8485616 77.9912088 98.8485616 1.84703297 155.268945 1.84703297 155.268945 14.7287912 114.212139 14.7287912 114.212139 31.6087912 152.413752 31.6087912 152.413752 44.4386813 114.212139 44.4386813 114.212139 65.1621978 156.722019 65.1621978 156.722019 77.9912088 98.8485616 77.9912088"></polyline>
                    <path d="M187.117093,53.2158242 L202.066009,51.7617582 C202.965614,56.7824176 204.790303,60.4703297 207.541831,62.8246154 C210.292481,65.1806593 214.004232,66.3569231 218.675329,66.3569231 C223.62316,66.3569231 227.351604,65.3098901 229.861539,63.2149451 C232.368838,61.12 233.624245,58.6698901 233.624245,55.8654945 C233.624245,54.0650549 233.096254,52.5327473 232.04115,51.2694505 C230.985167,50.0052747 229.14203,48.9046154 226.512616,47.970989 C224.713405,47.3476923 220.613347,46.2391209 214.211563,44.6461538 C205.976306,42.6030769 200.197394,40.0931868 196.875706,37.1147253 C192.203731,32.9257143 189.868621,27.8171429 189.868621,21.7925275 C189.868621,17.9147253 190.966773,14.2874725 193.163954,10.9107692 C195.361136,7.53494505 198.527326,4.96351648 202.663403,3.19736264 C206.797724,1.43208791 211.789481,0.548571429 217.636917,0.548571429 C227.188199,0.548571429 234.376259,2.6443956 239.203732,6.83340659 C244.030327,11.0232967 246.565739,16.6162637 246.808211,23.6105495 L231.443755,24.2857143 C230.786621,20.3727473 229.375717,17.5586813 227.213676,15.8452747 C225.050757,14.130989 221.807257,13.2738462 217.481419,13.2738462 C213.017653,13.2738462 209.522018,14.1916484 206.997148,16.0272527 C205.370127,17.2043956 204.557495,18.7797802 204.557495,20.7534066 C204.557495,22.5547253 205.317415,24.0958242 206.840771,25.3758242 C208.778789,27.0048352 213.485026,28.7006593 220.959484,30.4668132 C228.433942,32.2320879 233.961597,34.0589011 237.543327,35.9454945 C241.12418,37.8338462 243.926662,40.4123077 245.951653,43.6852747 C247.975766,46.9573626 248.987822,51.0013187 248.987822,55.8136264 C248.987822,60.1758242 247.776342,64.261978 245.354259,68.0712088 C242.932176,71.8804396 239.506822,74.7120879 235.077319,76.5626374 C230.647815,78.4158242 225.128945,79.3424176 218.519831,79.3424176 C208.899146,79.3424176 201.511662,77.1173626 196.3565,72.6681319 C191.199581,68.2189011 188.120364,61.7345055 187.117093,53.2158242 Z" id="Stroke-7" stroke="#24B4CF" stroke-width="1.75"></path>
                    <polygon id="Stroke-9" stroke="#24B4CF" stroke-width="1.75" points="282.705463 77.9912088 298.06904 77.9912088 298.06904 1.84703297 282.705463 1.84703297"></polygon>
                    <path d="M369.365423,49.9956044 L369.365423,37.1665934 L402.480398,37.1665934 L402.480398,67.5006593 C399.263254,70.6162637 394.599185,73.3608791 388.492585,75.7318681 C382.385106,78.1037363 376.199438,79.2905495 369.936461,79.2905495 C361.97706,79.2905495 355.040257,77.6202198 349.12166,74.2778022 C343.205699,70.9371429 338.758625,66.1582418 335.783074,59.941978 C332.806644,53.7274725 331.319308,46.9661538 331.319308,39.6597802 C331.319308,31.730989 332.979713,24.683956 336.30228,18.5204396 C339.623968,12.3569231 344.484826,7.63076923 350.887488,4.34021978 C355.765915,1.81362637 361.839132,0.548571429 369.106259,0.548571429 C378.552118,0.548571429 385.930817,2.53186813 391.243234,6.49582418 C396.554773,10.4615385 399.971342,15.9410989 401.494697,22.9353846 L386.234785,25.7916484 C385.161232,22.0518681 383.145905,19.1006593 380.187924,16.9353846 C377.229065,14.7718681 373.534884,13.6896703 369.106259,13.6896703 C362.3926,13.6896703 357.055585,15.8189011 353.093454,20.0782418 C349.130445,24.3375824 347.150259,30.6567033 347.150259,39.0364835 C347.150259,48.0738462 349.156801,54.8527473 353.171643,59.3714286 C357.184727,63.8892308 362.444433,66.1485714 368.950761,66.1485714 C372.167905,66.1485714 375.394713,65.5182418 378.630306,64.2531868 C381.8659,62.9898901 384.642026,61.4584615 386.961322,59.6571429 L386.961322,49.9956044 L369.365423,49.9956044 Z" id="Stroke-11" stroke="#24B4CF" stroke-width="1.75"></path>
                    <path d="M16.1322835,14.7287912 L16.1322835,65.1621978 L27.6031338,65.1621978 C31.893831,65.1621978 34.9914965,64.9213187 36.8943732,64.4351648 C39.3858592,63.8118681 41.4530194,62.756044 43.0976109,61.2676923 C44.7404454,59.7784615 46.0819472,57.3283516 47.1194806,53.9164835 C48.1578926,50.5063736 48.6770986,45.8584615 48.6770986,39.9718681 C48.6770986,34.0852747 48.1578926,29.5665934 47.1194806,26.4149451 C46.0819472,23.2650549 44.6279947,20.8052747 42.7593803,19.04 C40.8907658,17.2738462 38.5205158,16.0791209 35.6486303,15.4558242 C33.5024032,14.9714286 29.2986796,14.7287912 23.0357025,14.7287912 L16.1322835,14.7287912 Z M0.768705986,1.84703297 L28.8488768,1.84703297 C35.181257,1.84703297 40.0087306,2.33318681 43.330419,3.30197802 C47.7941849,4.61802198 51.6175088,6.9556044 54.8012694,10.3138462 C57.9850299,13.6720879 60.4071127,17.7846154 62.0683961,22.6487912 C63.7296796,27.5147253 64.559882,33.5138462 64.559882,40.647033 C64.559882,46.9142857 63.7815123,52.3164835 62.2238944,56.8518681 C60.3210176,62.3920879 57.6046303,66.8773626 54.0747324,70.3041758 C51.4101778,72.901978 47.8117553,74.9274725 43.2785863,76.3815385 C39.8866162,77.4558242 35.3543257,77.9912088 29.6799577,77.9912088 L0.768705986,77.9912088 L0.768705986,1.84703297 Z" id="Stroke-2" stroke="#24B4CF" stroke-width="1.75"></path>
                    <polygon id="Stroke-5" stroke="#24B4CF" stroke-width="1.75" points="98.8485616 77.9912088 98.8485616 1.84703297 155.268945 1.84703297 155.268945 14.7287912 114.212139 14.7287912 114.212139 31.6087912 152.413752 31.6087912 152.413752 44.4386813 114.212139 44.4386813 114.212139 65.1621978 156.722019 65.1621978 156.722019 77.9912088"></polygon>
                    <path d="M187.117093,53.2158242 L202.066009,51.7617582 C202.965614,56.7824176 204.790303,60.4703297 207.541831,62.8246154 C210.292481,65.1806593 214.004232,66.3569231 218.675329,66.3569231 C223.62316,66.3569231 227.351604,65.3098901 229.861539,63.2149451 C232.368838,61.12 233.624245,58.6698901 233.624245,55.8654945 C233.624245,54.0650549 233.096254,52.5327473 232.04115,51.2694505 C230.985167,50.0052747 229.14203,48.9046154 226.512616,47.970989 C224.713405,47.3476923 220.613347,46.2391209 214.211563,44.6461538 C205.976306,42.6030769 200.197394,40.0931868 196.875706,37.1147253 C192.203731,32.9257143 189.868621,27.8171429 189.868621,21.7925275 C189.868621,17.9147253 190.966773,14.2874725 193.163954,10.9107692 C195.361136,7.53494505 198.527326,4.96351648 202.663403,3.19736264 C206.797724,1.43208791 211.789481,0.548571429 217.636917,0.548571429 C227.188199,0.548571429 234.376259,2.6443956 239.203732,6.83340659 C244.030327,11.0232967 246.565739,16.6162637 246.808211,23.6105495 L231.443755,24.2857143 C230.786621,20.3727473 229.375717,17.5586813 227.213676,15.8452747 C225.050757,14.130989 221.807257,13.2738462 217.481419,13.2738462 C213.017653,13.2738462 209.522018,14.1916484 206.997148,16.0272527 C205.370127,17.2043956 204.557495,18.7797802 204.557495,20.7534066 C204.557495,22.5547253 205.317415,24.0958242 206.840771,25.3758242 C208.778789,27.0048352 213.485026,28.7006593 220.959484,30.4668132 C228.433942,32.2320879 233.961597,34.0589011 237.543327,35.9454945 C241.12418,37.8338462 243.926662,40.4123077 245.951653,43.6852747 C247.975766,46.9573626 248.987822,51.0013187 248.987822,55.8136264 C248.987822,60.1758242 247.776342,64.261978 245.354259,68.0712088 C242.932176,71.8804396 239.506822,74.7120879 235.077319,76.5626374 C230.647815,78.4158242 225.128945,79.3424176 218.519831,79.3424176 C208.899146,79.3424176 201.511662,77.1173626 196.3565,72.6681319 C191.199581,68.2189011 188.120364,61.7345055 187.117093,53.2158242" id="Fill-6" fill="#24B4CF"></path>
                    <polygon id="Fill-8" fill="#24B4CF" points="282.705463 77.9912088 298.06904 77.9912088 298.06904 1.84703297 282.705463 1.84703297"></polygon>
                    <path d="M369.365423,49.9956044 L369.365423,37.1665934 L402.480398,37.1665934 L402.480398,67.5006593 C399.263254,70.6162637 394.599185,73.3608791 388.492585,75.7318681 C382.385106,78.1037363 376.199438,79.2905495 369.936461,79.2905495 C361.97706,79.2905495 355.040257,77.6202198 349.12166,74.2778022 C343.205699,70.9371429 338.758625,66.1582418 335.783074,59.941978 C332.806644,53.7274725 331.319308,46.9661538 331.319308,39.6597802 C331.319308,31.730989 332.979713,24.683956 336.30228,18.5204396 C339.623968,12.3569231 344.484826,7.63076923 350.887488,4.34021978 C355.765915,1.81362637 361.839132,0.548571429 369.106259,0.548571429 C378.552118,0.548571429 385.930817,2.53186813 391.243234,6.49582418 C396.554773,10.4615385 399.971342,15.9410989 401.494697,22.9353846 L386.234785,25.7916484 C385.161232,22.0518681 383.145905,19.1006593 380.187924,16.9353846 C377.229065,14.7718681 373.534884,13.6896703 369.106259,13.6896703 C362.3926,13.6896703 357.055585,15.8189011 353.093454,20.0782418 C349.130445,24.3375824 347.150259,30.6567033 347.150259,39.0364835 C347.150259,48.0738462 349.156801,54.8527473 353.171643,59.3714286 C357.184727,63.8892308 362.444433,66.1485714 368.950761,66.1485714 C372.167905,66.1485714 375.394713,65.5182418 378.630306,64.2531868 C381.8659,62.9898901 384.642026,61.4584615 386.961322,59.6571429 L386.961322,49.9956044 L369.365423,49.9956044" id="Fill-10" fill="#24B4CF"></path>
                    <polyline id="Fill-12" fill="#24B4CF" points="438.066653 77.9912088 438.066653 1.84703297 453.01469 1.84703297 484.157386 52.6971429 484.157386 1.84703297 498.432475 1.84703297 498.432475 77.9912088 483.016187 77.9912088 452.340864 28.3367033 452.340864 77.9912088 438.066653 77.9912088"></polyline>
                    <polygon id="Stroke-13" stroke="#24B4CF" stroke-width="1.75" points="438.066653 77.9912088 438.066653 1.84703297 453.01469 1.84703297 484.157386 52.6971429 484.157386 1.84703297 498.432475 1.84703297 498.432475 77.9912088 483.016187 77.9912088 452.340864 28.3367033 452.340864 77.9912088"></polygon>
                </g>
                <g id="ne" transform="translate(332.000000, 114.000000)" fill="#1A1918">
                    <path d="M0.581403141,5.44852941 C0.581403141,4.51411765 0.581403141,2.40529412 0.250680628,0.507352941 L4.09532984,0.507352941 L10.6737173,9.06441176 L10.6737173,0.507352941 L14.4277696,0.507352941 L14.4277696,14.6382353 L11.0343455,14.6382353 L4.33633508,6.08117647 L4.33633508,14.6382353 L0.581403141,14.6382353 L0.581403141,5.44852941" id="Fill-15"></path>
                    <path d="M17.6760628,5.44852941 C17.6760628,4.51411765 17.6760628,2.40529412 17.3453403,0.507352941 L28.0085026,0.507352941 L27.7674974,3.57970588 C27.1975288,3.33882353 25.0346387,3.21882353 23.3229738,3.21882353 L21.6711204,3.21882353 L21.6711204,6.17117647 L27.0770262,6.17117647 L27.1975288,6.29205882 C27.1975288,7.10558824 26.9565236,8.16 26.4771518,8.88352941 L21.6711204,8.88352941 L21.6711204,11.9267647 L24.9440419,11.9267647 C26.3566492,11.9267647 27.5273717,11.8058824 28.2486283,11.565 L28.3691309,11.565 C28.3691309,12.8602941 27.888,14.0364706 26.8369005,14.6382353 L17.6760628,14.6382353 L17.6760628,5.44852941" id="Fill-16"></path>
                    <path d="M29.5424921,1.68176471 C29.362178,1.26 29.1818639,0.747352941 29.1818639,0.507352941 L33.2965445,0.507352941 L36.4507225,9.45529412 L36.8113508,10.6305882 L37.2916021,9.33529412 L39.3348691,4.30323529 L38.4632042,1.68176471 C38.2828901,1.26 38.1025759,0.747352941 38.1025759,0.507352941 L42.2181361,0.507352941 L44.921089,9.45529412 L45.2518115,10.6305882 L45.7320628,9.33529412 L49.0067435,1.23 C49.2758953,0.627352941 49.4869948,0.507352941 50.0877487,0.507352941 L52.5505759,0.507352941 L46.6635393,14.5173529 L42.9086073,15 L40.7158115,8.46088235 L38.2230785,14.5173529 L34.4690262,15 L29.5424921,1.68176471" id="Fill-17"></path>
                    <path d="M60.425466,5.44852941 C60.425466,4.51411765 60.425466,2.40529412 60.0947435,0.507352941 L70.7579058,0.507352941 L70.5177801,3.57970588 C69.9469319,3.33882353 67.7840419,3.21882353 66.072377,3.21882353 L64.4205236,3.21882353 L64.4205236,6.17117647 L69.8273089,6.17117647 L69.9469319,6.29205882 C69.9469319,7.10558824 69.7068063,8.16 69.226555,8.88352941 L64.4205236,8.88352941 L64.4205236,11.9267647 L67.6943246,11.9267647 C69.1060524,11.9267647 70.2767749,11.8058824 70.998911,11.565 L71.118534,11.565 C71.118534,12.8602941 70.6382827,14.0364706 69.5863037,14.6382353 L60.425466,14.6382353 L60.425466,5.44852941" id="Fill-18"></path>
                    <path d="M73.6139058,5.44852941 C73.6139058,4.51411765 73.6139058,2.40529412 73.2831832,0.507352941 L77.128712,0.507352941 L83.7062199,9.06441176 L83.7062199,0.507352941 L87.4611518,0.507352941 L87.4611518,14.6382353 L84.0668482,14.6382353 L77.3688377,6.08117647 L77.3688377,14.6382353 L73.6139058,14.6382353 L73.6139058,5.44852941" id="Fill-19"></path>
                    <path d="M89.896712,7.58735294 C89.896712,2.73617647 94.1327749,0.265588235 99.1780524,0.265588235 C101.822073,0.265588235 103.293613,0.747352941 104.584838,1.35088235 C104.584838,2.46529412 104.103707,3.82058824 103.503832,4.39411765 L103.293613,4.39411765 C102.482639,3.76058824 100.950408,3.09794118 99.0584293,3.09794118 C95.9948482,3.09794118 94.1327749,4.63411765 94.1327749,7.46647059 C94.1327749,10.7514706 95.9948482,12.1676471 98.9379267,12.1676471 C99.7189948,12.1676471 100.409466,12.0776471 101.041005,11.8967647 L101.041005,11.685 C101.041005,10.7514706 101.041005,9.21529412 100.710283,7.58735294 L104.795937,7.58735294 L104.795937,13.3420588 C103.624335,14.0364706 101.280251,15 98.5772984,15 C93.651644,15 89.896712,12.7402941 89.896712,7.58735294" id="Fill-20"></path>
                    <path d="M107.621152,5.44852941 C107.621152,4.51411765 107.621152,2.40529412 107.290429,0.507352941 L111.616209,0.507352941 L111.616209,11.9267647 L114.919916,11.9267647 C116.302618,11.9267647 117.47422,11.8058824 118.194597,11.565 L118.315099,11.565 C118.315099,12.8602941 117.833969,14.0364706 116.782869,14.6382353 L107.621152,14.6382353 L107.621152,5.44852941" id="Fill-21"></path>
                    <path d="M124.203016,8.70264706 L127.447791,8.58176471 L125.945466,4.27323529 L124.203016,8.70264706 Z M124.203016,0.747352941 C124.894366,0.507352941 127.117068,0.265588235 128.408293,0.265588235 L133.334827,13.4629412 C133.515141,13.9155882 133.694576,14.3973529 133.694576,14.6382353 L129.579895,14.6382353 L128.318576,11.0223529 L123.211728,11.2041176 L122.070031,14.1555882 C121.950408,14.4573529 121.740188,14.6382353 121.259058,14.6382353 L118.315979,14.6382353 L124.203016,0.747352941 L124.203016,0.747352941 Z" id="Fill-22"></path>
                    <path d="M135.320921,5.44852941 C135.320921,4.51411765 135.320921,2.40529412 134.990199,0.507352941 L138.834848,0.507352941 L145.412356,9.06441176 L145.412356,0.507352941 L149.167288,0.507352941 L149.167288,14.6382353 L145.772984,14.6382353 L139.074974,6.08117647 L139.074974,14.6382353 L135.320921,14.6382353 L135.320921,5.44852941" id="Fill-23"></path>
                    <path d="M156.258471,3.09794118 L156.258471,12.0476471 C156.799414,12.1985294 157.430073,12.2876471 158.030827,12.2876471 C161.424251,12.2876471 162.957361,10.3897059 162.957361,7.46647059 C162.957361,4.27323529 161.185005,2.97705882 157.910325,2.97705882 C157.460859,2.97705882 156.829319,3.03794118 156.258471,3.09794118 Z M152.263414,14.6382353 L152.263414,5.44852941 C152.263414,4.51411765 152.263414,2.40529412 151.932691,0.507352941 C152.413822,0.446470588 155.627812,0.265588235 158.030827,0.265588235 C163.52733,0.265588235 167.191665,2.40529412 167.191665,7.22647059 C167.191665,11.9267647 163.858052,15 157.910325,15 C155.838031,15 153.40511,14.8191176 152.263414,14.6382353 L152.263414,14.6382353 Z" id="Fill-24"></path>
                </g>
                <g id="top" transform="translate(107.000000, 0.000000)" fill="#6F8F9D">
                    <path d="M77.0737814,6.03373333 C77.0737814,5.63073333 77.0737814,4.72246667 76.9289421,3.90433333 L81.5953987,3.90433333 L81.4900611,5.2286 C81.2407621,5.1246 80.2936013,5.0726 79.5448264,5.0726 L78.821508,5.0726 L78.821508,6.34486667 L81.1872154,6.34486667 L81.2407621,6.396 C81.2407621,6.74613333 81.1354244,7.20026667 80.9238714,7.51313333 L78.821508,7.51313333 L78.821508,8.82266667 L80.2540997,8.82266667 C80.8720804,8.82266667 81.3847235,8.77066667 81.7007363,8.66753333 L81.7525273,8.66753333 C81.7525273,9.22566667 81.5427299,9.73093333 81.0827556,9.99093333 L77.0737814,9.99093333 L77.0737814,6.03373333 Z M68.5484566,6.03373333 C68.5484566,5.63073333 68.5484566,4.72246667 68.4036174,3.90433333 L70.0863859,3.90433333 L72.9647363,7.59026667 L72.9647363,3.90433333 L74.6071254,3.90433333 L74.6071254,9.99093333 L73.121865,9.99093333 L70.1917235,6.30586667 L70.1917235,9.99093333 L68.5484566,9.99093333 L68.5484566,6.03373333 Z M64.3323183,6.03373333 C64.3323183,5.63073333 64.3323183,4.72246667 64.1874791,3.90433333 L66.0791672,3.90433333 L66.0791672,9.99093333 L64.3323183,9.99093333 L64.3323183,6.03373333 Z M57.2904984,9.3808 L60.0635113,5.1246 L57.1860386,5.1246 L57.2904984,3.90433333 L62.5872251,3.90433333 C62.5872251,4.16433333 62.5082219,4.37233333 62.27209,4.72246667 L59.5245338,8.82266667 L61.2468039,8.82266667 C61.8647846,8.82266667 62.3765498,8.77066667 62.6785177,8.66753333 L62.7320643,8.66753333 C62.7320643,9.22566667 62.5336785,9.73093333 62.0737042,9.99093333 L57.0403215,9.99093333 C57.0403215,9.83493333 57.1456592,9.6278 57.2904984,9.3808 Z M52.2079582,7.43513333 L53.6273826,7.38226667 L52.9690225,5.52673333 L52.2079582,7.43513333 Z M52.2079582,4.0092 C52.5090482,3.90433333 53.4825434,3.8012 54.0478553,3.8012 L56.2028875,9.4848 C56.2818907,9.6798 56.3608939,9.8878 56.3608939,9.99093333 L54.5604984,9.99093333 L54.0083537,8.43353333 L51.7734405,8.51153333 L51.2748424,9.78293333 C51.2221736,9.91293333 51.1300032,9.99093333 50.9202058,9.99093333 L49.6315756,9.99093333 L52.2079582,4.0092 Z M42.0261994,6.955 C42.0261994,4.86633333 43.8783859,3.8012 46.0869646,3.8012 C47.243045,3.8012 47.8882379,4.0092 48.4535498,4.26833333 C48.4535498,4.7476 48.2428746,5.3326 47.9804084,5.57873333 L47.8882379,5.57873333 C47.5336013,5.30573333 46.862074,5.02146667 46.0351736,5.02146667 C44.6947524,5.02146667 43.8783859,5.68273333 43.8783859,6.903 C43.8783859,8.31653333 44.6947524,8.92666667 45.981627,8.92666667 C46.3230965,8.92666667 46.6259421,8.88766667 46.9024534,8.80966667 L46.9024534,8.71953333 C46.9024534,8.31653333 46.9024534,7.6544 46.7576141,6.955 L48.5448424,6.955 L48.5448424,9.43366667 C48.0321994,9.73093333 47.0069132,10.1460667 45.8244984,10.1460667 C43.6694662,10.1460667 42.0261994,9.17366667 42.0261994,6.955 Z M36.996328,7.43513333 L38.4148746,7.38226667 L37.7582701,5.52673333 L36.996328,7.43513333 Z M36.996328,4.0092 C37.2982958,3.90433333 38.271791,3.8012 38.8353473,3.8012 L40.9912572,9.4848 C41.0702605,9.6798 41.1492637,9.8878 41.1492637,9.99093333 L39.3488682,9.99093333 L38.7958457,8.43353333 L36.5626881,8.51153333 L36.0632122,9.78293333 C36.0105434,9.91293333 35.9174952,9.99093333 35.7085756,9.99093333 L34.4199453,9.99093333 L36.996328,4.0092 Z M26.6837749,6.34486667 L26.4081415,9.99093333 L24.8175434,9.99093333 L25.2380161,4.82646667 L25.2380161,4.63146667 C25.2380161,4.45033333 25.2248489,4.24233333 25.1721801,3.90433333 L27.1314598,3.90433333 L29.0494823,8.2394 L31.1263891,3.90433333 L32.9803312,3.90433333 L33.3876367,9.99093333 L31.6390322,9.99093333 L31.3888553,6.34486667 L29.5893376,9.99093333 L28.3007074,9.99093333 L26.6837749,6.34486667 Z M16.5950643,6.03373333 C16.5950643,5.63073333 16.5950643,4.72246667 16.4502251,3.90433333 L21.1166817,3.90433333 L21.0113441,5.2286 C20.7611672,5.1246 19.8148842,5.0726 19.0661093,5.0726 L18.342791,5.0726 L18.342791,6.34486667 L20.7084984,6.34486667 L20.7611672,6.396 C20.7611672,6.74613333 20.6558296,7.20026667 20.4460322,7.51313333 L18.342791,7.51313333 L18.342791,8.82266667 L19.7753826,8.82266667 C20.3924855,8.82266667 20.9051286,8.77066667 21.2211415,8.66753333 L21.2738103,8.66753333 C21.2738103,9.22566667 21.0640129,9.73093333 20.6040386,9.99093333 L16.5950643,9.99093333 L16.5950643,6.03373333 Z M7.85906431,6.03373333 C7.85906431,5.63073333 7.85906431,4.72246667 7.71422508,3.90433333 L9.60766881,3.90433333 L9.60766881,6.318 L12.3806817,6.22786667 L12.3806817,6.03373333 C12.3806817,5.63073333 12.3806817,4.72246667 12.2226752,3.90433333 L14.1284084,3.90433333 L14.1284084,9.99093333 L12.3806817,9.99093333 L12.3806817,7.39526667 L9.60766881,7.48626667 L9.60766881,9.99093333 L7.85906431,9.99093333 L7.85906431,6.03373333 Z M0.554778135,3.9572 L6.40364952,3.8532 L6.40364952,5.0726 L4.35307717,5.1116 L4.35307717,9.99093333 L2.60535048,9.99093333 L2.60535048,5.1376 L0.554778135,5.1766 L0.554778135,3.9572 L0.554778135,3.9572 Z" id="Fill-25"></path>
                    <path d="M89.51591,6.04586667 C89.5281994,5.1506 89.2525659,4.6826 88.5819164,4.6826 C87.6891801,4.6826 86.8210225,6.396 86.7815209,8.34253333 C86.7692315,9.22566667 87.0316977,9.71793333 87.7155145,9.71793333 C88.5029132,9.71793333 89.4886977,8.17353333 89.51591,6.04586667 Z M85.4015981,7.6674 C85.4015981,5.69486667 87.2414952,4.30646667 88.5301254,4.30646667 C89.9363826,4.30646667 90.894955,5.40973333 90.894955,6.75913333 C90.894955,8.69353333 89.0023891,10.0810667 87.7155145,10.0810667 C86.3215466,10.0810667 85.4015981,9.0168 85.4015981,7.6674 L85.4015981,7.6674 Z" id="Fill-26"></path>
                    <path d="M91.7200997,4.83946667 L91.8254373,4.43646667 L92.6672605,4.43646667 L92.9297267,2.99606667 C93.1790257,1.62066667 94.5071576,0.867533333 95.4657299,0.867533333 C96.4655595,0.867533333 96.8860322,1.46466667 96.8860322,2.04966667 C96.8860322,2.58093333 96.5436849,3.08706667 95.978373,3.08706667 C95.5052315,3.08706667 95.3481029,2.81493333 95.3481029,2.58093333 C95.3481029,2.0748 95.9529164,1.69866667 96.0178746,1.45253333 C96.0319196,1.36066667 95.9388714,1.23153333 95.5579003,1.23153333 C94.848627,1.23153333 94.5071576,1.77666667 94.3228167,2.82706667 L94.0331383,4.43646667 L95.2550547,4.43646667 L95.1637621,4.83946667 L93.9681801,4.83946667 L92.9823955,10.3150667 C92.7980547,11.3264667 91.8386045,12.5987333 90.6035209,12.5987333 C89.7625756,12.5987333 89.2753891,12.0406 89.2753891,11.4694667 C89.2753891,10.9642 89.6695273,10.4962 90.1295016,10.4962 C90.5104727,10.4962 90.7466045,10.7692 90.7466045,11.0292 C90.7466045,11.4304667 90.3533441,11.7294667 90.2480064,11.9886 C90.1953376,12.1316 90.2225498,12.2347333 90.4191801,12.2347333 C90.9581576,12.2347333 91.3391286,11.8984667 91.548926,10.6782 L92.6005466,4.83946667 L91.7200997,4.83946667" id="Fill-27"></path>
                    <path d="M189.742023,9.69193333 C189.742023,9.17366667 189.95182,8.47253333 190.163373,8.2654 L190.254666,8.2654 C190.622469,8.62766667 191.333498,8.97953333 192.00327,8.97953333 C192.738,8.97953333 193.027678,8.77066667 193.027678,8.31653333 C193.027678,7.9144 192.660752,7.7844 192.213945,7.6544 L191.333498,7.40913333 C190.532055,7.16126667 189.899151,6.695 189.899151,5.63073333 C189.899151,4.61846667 190.872646,3.8012 192.462367,3.8012 C193.487653,3.8012 194.26364,4.0092 194.618277,4.16433333 C194.618277,4.7476 194.447981,5.20346667 194.26364,5.42273333 L194.158302,5.42273333 C193.947627,5.2806 193.343691,4.9686 192.515035,4.9686 C191.9111,4.9686 191.647756,5.1766 191.647756,5.4756 C191.647756,5.85173333 191.857553,5.96873333 192.265736,6.08486667 L193.185685,6.34486667 C194.000296,6.565 194.828952,7.00613333 194.828952,8.1094 C194.828952,9.3808 193.69745,10.1460667 192.055061,10.1460667 C191.109656,10.1460667 190.268711,9.95193333 189.742023,9.69193333 Z M183.621029,6.03373333 C183.621029,5.63073333 183.621029,4.72246667 183.477068,3.90433333 L188.142646,3.90433333 L188.037309,5.2286 C187.78801,5.1246 186.841727,5.0726 186.092074,5.0726 L185.369633,5.0726 L185.369633,6.34486667 L187.734463,6.34486667 L187.78801,6.396 C187.78801,6.74613333 187.682672,7.20026667 187.471997,7.51313333 L185.369633,7.51313333 L185.369633,8.82266667 L186.802225,8.82266667 C187.419328,8.82266667 187.932849,8.77066667 188.247106,8.66753333 L188.299775,8.66753333 C188.299775,9.22566667 188.089977,9.73093333 187.630881,9.99093333 L183.621029,9.99093333 L183.621029,6.03373333 Z M174.755113,6.34486667 L174.479479,9.99093333 L172.888881,9.99093333 L173.309354,4.82646667 L173.309354,4.63146667 C173.309354,4.45033333 173.296186,4.24233333 173.24264,3.90433333 L175.202797,3.90433333 L177.12082,8.2394 L179.197727,3.90433333 L181.050791,3.90433333 L181.458096,9.99093333 L179.711248,9.99093333 L179.460193,6.34486667 L177.660675,9.99093333 L176.371167,9.99093333 L174.755113,6.34486667 Z M169.489109,6.955 C169.489109,5.52673333 168.622707,5.02146667 167.649212,5.02146667 C166.558968,5.02146667 165.743479,5.68273333 165.743479,6.903 C165.743479,8.2654 166.611637,8.92666667 167.597421,8.92666667 C168.674498,8.92666667 169.489109,8.21253333 169.489109,6.955 Z M163.890415,7.00613333 C163.890415,4.91746667 165.58635,3.8012 167.74226,3.8012 C169.818289,3.8012 171.343051,4.86633333 171.343051,6.85013333 C171.343051,9.03066667 169.620781,10.1460667 167.492084,10.1460667 C165.467846,10.1460667 163.890415,9.03066667 163.890415,7.00613333 Z M155.773273,6.03373333 C155.773273,5.63073333 155.773273,4.72246667 155.628434,3.90433333 L157.520122,3.90433333 L157.520122,6.318 L160.294013,6.22786667 L160.294013,6.03373333 C160.294013,5.63073333 160.294013,4.72246667 160.136006,3.90433333 L162.04174,3.90433333 L162.04174,9.99093333 L160.294013,9.99093333 L160.294013,7.39526667 L157.520122,7.48626667 L157.520122,9.99093333 L155.773273,9.99093333 L155.773273,6.03373333 Z M147.247949,5.02146667 L147.247949,8.87553333 C147.484958,8.93966667 147.760592,8.97953333 148.023936,8.97953333 C149.509196,8.97953333 150.17809,8.1614 150.17809,6.903 C150.17809,5.52673333 149.403859,4.9686 147.970389,4.9686 C147.773759,4.9686 147.497248,4.9946 147.247949,5.02146667 Z M145.500222,9.99093333 L145.500222,6.03373333 C145.500222,5.63073333 145.500222,4.72246667 145.355383,3.90433333 C145.566058,3.87833333 146.972315,3.8012 148.023936,3.8012 C150.429145,3.8012 152.032032,4.72246667 152.032032,6.799 C152.032032,8.82266667 150.573106,10.1460667 147.970389,10.1460667 C147.064486,10.1460667 145.999698,10.0680667 145.500222,9.99093333 Z M141.388543,6.03373333 C141.388543,5.63073333 141.388543,4.72246667 141.243704,3.90433333 L143.13627,3.90433333 L143.13627,9.99093333 L141.388543,9.99093333 L141.388543,6.03373333 Z M134.703116,5.02146667 L134.703116,8.87553333 C134.940125,8.93966667 135.215759,8.97953333 135.478225,8.97953333 C136.963486,8.97953333 137.634135,8.1614 137.634135,6.903 C137.634135,5.52673333 136.858148,4.9686 135.426434,4.9686 C135.228048,4.9686 134.952415,4.9946 134.703116,5.02146667 Z M132.955389,9.99093333 L132.955389,6.03373333 C132.955389,5.63073333 132.955389,4.72246667 132.809672,3.90433333 C133.021225,3.87833333 134.426605,3.8012 135.478225,3.8012 C137.883434,3.8012 139.487199,4.72246667 139.487199,6.799 C139.487199,8.82266667 138.028273,10.1460667 135.426434,10.1460667 C134.518775,10.1460667 133.453987,10.0680667 132.955389,9.99093333 Z M124.535402,6.03373333 C124.535402,5.63073333 124.535402,4.72246667 124.390563,3.90433333 L126.072453,3.90433333 L128.950804,7.59026667 L128.950804,3.90433333 L130.594071,3.90433333 L130.594071,9.99093333 L129.107932,9.99093333 L126.178669,6.30586667 L126.178669,9.99093333 L124.535402,9.99093333 L124.535402,6.03373333 Z M117.848219,6.03373333 C117.848219,5.63073333 117.848219,4.72246667 117.703379,3.90433333 L122.369836,3.90433333 L122.264498,5.2286 C122.015199,5.1246 121.068039,5.0726 120.319264,5.0726 L119.597701,5.0726 L119.597701,6.34486667 L121.961653,6.34486667 L122.015199,6.396 C122.015199,6.74613333 121.909862,7.20026667 121.699186,7.51313333 L119.597701,7.51313333 L119.597701,8.82266667 L121.029415,8.82266667 C121.647395,8.82266667 122.160039,8.77066667 122.475174,8.66753333 L122.527842,8.66753333 C122.527842,9.22566667 122.317167,9.73093333 121.857193,9.99093333 L117.848219,9.99093333 L117.848219,6.03373333 Z M111.517428,6.03373333 C111.517428,5.63073333 111.517428,4.72246667 111.372588,3.90433333 L113.264277,3.90433333 L113.264277,8.82266667 L114.710035,8.82266667 C115.314849,8.82266667 115.827492,8.77066667 116.143505,8.66753333 L116.196174,8.66753333 C116.196174,9.22566667 115.985498,9.73093333 115.525524,9.99093333 L111.517428,9.99093333 L111.517428,6.03373333 Z M106.328672,4.94346667 L106.328672,6.92813333 C106.52618,6.942 106.72281,6.955 106.893984,6.955 C107.68226,6.955 108.129068,6.539 108.129068,5.83786667 C108.129068,5.1246 107.511965,4.91746667 106.788646,4.91746667 L106.328672,4.94346667 Z M104.580945,6.03373333 C104.580945,5.63073333 104.580945,4.72246667 104.436984,3.90433333 C104.949627,3.8662 106.302338,3.8012 107.000199,3.8012 C108.629421,3.8012 109.877672,4.35933333 109.877672,5.78673333 C109.877672,7.35713333 108.58992,8.0184 106.920318,8.0184 C106.762312,8.0184 106.539347,8.0184 106.328672,8.0054 C106.328672,8.45953333 106.341839,9.25166667 106.486678,9.99093333 L104.580945,9.99093333 L104.580945,6.03373333 Z M97.4873344,9.69193333 C97.4873344,9.17366667 97.6971318,8.47253333 97.9078071,8.2654 L97.9999775,8.2654 C98.3686592,8.62766667 99.0770547,8.97953333 99.7477042,8.97953333 C100.48419,8.97953333 100.772113,8.77066667 100.772113,8.31653333 C100.772113,7.9144 100.405186,7.7844 99.9575016,7.6544 L99.0770547,7.40913333 C98.2756109,7.16126667 97.6453408,6.695 97.6453408,5.63073333 C97.6453408,4.61846667 98.6170804,3.8012 100.207678,3.8012 C101.232087,3.8012 102.008952,4.0092 102.363588,4.16433333 C102.363588,4.7476 102.192415,5.20346667 102.008952,5.42273333 L101.903614,5.42273333 C101.692939,5.2806 101.089003,4.9686 100.260347,4.9686 C99.6555338,4.9686 99.3930675,5.1766 99.3930675,5.4756 C99.3930675,5.85173333 99.602865,5.96873333 100.011048,6.08486667 L100.930997,6.34486667 C101.745608,6.565 102.574264,7.00613333 102.574264,8.1094 C102.574264,9.3808 101.44364,10.1460667 99.800373,10.1460667 C98.85409,10.1460667 98.0122669,9.95193333 97.4873344,9.69193333 L97.4873344,9.69193333 Z" id="Fill-28"></path>
                    <path d="M202.551955,5.87773333 C202.551955,5.0076 202.249109,4.7216 201.790013,4.7216 C200.764727,4.7216 199.778942,6.94113333 199.778942,8.69353333 C199.778942,9.19966667 199.950116,9.58793333 200.450469,9.58793333 C201.80318,9.58793333 202.551955,6.97926667 202.551955,5.87773333 Z M198.399019,7.8884 C198.399019,6.27986667 199.88428,4.30646667 201.553003,4.30646667 C202.223653,4.30646667 202.591457,4.6826 202.839878,5.0206 L203.06372,4.43646667 L204.234723,4.43646667 L203.262106,8.99166667 C203.19627,9.3028 203.19627,9.58793333 203.511405,9.58793333 C203.880087,9.61393333 204.312849,9.1598 204.721032,8.32953333 L205.036167,8.47253333 C204.563026,9.5238 203.931878,10.0680667 203.274395,10.0680667 C202.513331,10.0680667 202.038434,9.6798 202.091981,8.67966667 L201.99981,8.67966667 C201.790013,9.0818 201.290537,10.0680667 200.186248,10.0680667 C199.174129,10.0680667 198.399019,9.1598 198.399019,7.8884 L198.399019,7.8884 Z" id="Fill-29"></path>
                    <path d="M209.093421,4.8256 C208.385026,4.8256 207.516868,5.78673333 207.2149,7.12313333 L206.583752,9.99093333 L205.216119,9.99093333 L206.254572,5.17573333 C206.294952,4.9686 206.215949,4.8516 205.361836,4.7866 L205.439961,4.43646667 L207.779334,4.37146667 L207.399241,5.72173333 L207.491412,5.72173333 C207.649418,5.35773333 208.332357,4.30646667 209.435768,4.30646667 C210.421553,4.30646667 210.90874,5.27973333 210.711232,6.11086667 L210.040582,8.9648 C209.974746,9.2768 210.000203,9.58793333 210.303048,9.58793333 C210.684897,9.61393333 211.10537,9.1598 211.512675,8.32953333 L211.815521,8.47253333 C211.341502,9.5238 210.736688,10.0680667 209.974746,10.0680667 C209.212804,10.0680667 208.528987,9.4458 208.75283,8.51153333 L209.435768,5.52673333 C209.541106,5.05873333 209.47527,4.8256 209.093421,4.8256" id="Fill-30"></path>
                    <path d="M216.240579,5.87773333 C216.240579,5.0076 215.871897,4.7216 215.398756,4.7216 C214.386637,4.7216 213.321849,6.94113333 213.321849,8.69353333 C213.321849,9.19966667 213.545691,9.58793333 214.058334,9.58793333 C215.411923,9.58793333 216.240579,6.97926667 216.240579,5.87773333 Z M211.941048,7.8884 C211.941048,6.305 213.493023,4.30646667 215.161746,4.30646667 C215.831518,4.30646667 216.213367,4.59246667 216.476711,4.9426 L217.094691,1.8798 C217.199151,1.39966667 217.094691,1.30953333 216.240579,1.30953333 L216.122074,1.30953333 L216.213367,0.945533333 L218.709868,0.8164 L216.948974,8.99166667 C216.883138,9.3158 216.897183,9.58793333 217.212318,9.58793333 C217.580122,9.61393333 218.013762,9.1598 218.421945,8.32953333 L218.723913,8.47253333 C218.250772,9.5238 217.619624,10.0680667 216.976186,10.0680667 C216.201077,10.0680667 215.713891,9.6798 215.766559,8.67966667 L215.674389,8.67966667 C215.463714,9.0818 214.911569,10.0680667 213.795868,10.0680667 C212.782871,10.0680667 211.941048,9.1598 211.941048,7.8884 L211.941048,7.8884 Z" id="Fill-31"></path>
                    <path d="M267.824412,9.69193333 C267.824412,9.17366667 268.034209,8.47253333 268.244006,8.2654 L268.337055,8.2654 C268.703981,8.62766667 269.414132,8.97953333 270.083904,8.97953333 C270.821267,8.97953333 271.10919,8.77066667 271.10919,8.31653333 C271.10919,7.9144 270.742264,7.7844 270.294579,7.6544 L269.414132,7.40913333 C268.612688,7.16126667 267.98154,6.695 267.98154,5.63073333 C267.98154,4.61846667 268.955035,3.8012 270.544756,3.8012 C271.570042,3.8012 272.344273,4.0092 272.699788,4.16433333 C272.699788,4.7476 272.528614,5.20346667 272.344273,5.42273333 L272.239814,5.42273333 C272.030016,5.2806 271.424325,4.9686 270.597424,4.9686 C269.992611,4.9686 269.729267,5.1766 269.729267,5.4756 C269.729267,5.85173333 269.94082,5.96873333 270.347248,6.08486667 L271.266318,6.34486667 C272.082685,6.565 272.909585,7.00613333 272.909585,8.1094 C272.909585,9.3808 271.779839,10.1460667 270.136572,10.1460667 C269.191167,10.1460667 268.349344,9.95193333 267.824412,9.69193333 Z M259.863521,6.03373333 C259.863521,5.63073333 259.863521,4.72246667 259.719559,3.90433333 L261.400572,3.90433333 L264.279801,7.59026667 L264.279801,3.90433333 L265.92219,3.90433333 L265.92219,9.99093333 L264.437807,9.99093333 L261.506788,6.30586667 L261.506788,9.99093333 L259.863521,9.99093333 L259.863521,6.03373333 Z M253.177215,6.03373333 C253.177215,5.63073333 253.177215,4.72246667 253.032376,3.90433333 L257.697955,3.90433333 L257.593495,5.2286 C257.344196,5.1246 256.397035,5.0726 255.64826,5.0726 L254.924942,5.0726 L254.924942,6.34486667 L257.291527,6.34486667 L257.344196,6.396 C257.344196,6.74613333 257.238859,7.20026667 257.028183,7.51313333 L254.924942,7.51313333 L254.924942,8.82266667 L256.358412,8.82266667 C256.974637,8.82266667 257.488158,8.77066667 257.803293,8.66753333 L257.855961,8.66753333 C257.855961,9.22566667 257.646164,9.73093333 257.18619,9.99093333 L253.177215,9.99093333 L253.177215,6.03373333 Z M246.491788,5.02146667 L246.491788,8.87553333 C246.728797,8.93966667 247.003553,8.97953333 247.267775,8.97953333 C248.752158,8.97953333 249.423685,8.1614 249.423685,6.903 C249.423685,5.52673333 248.64682,4.9686 247.215106,4.9686 C247.017598,4.9686 246.741965,4.9946 246.491788,5.02146667 Z M244.744061,9.99093333 L244.744061,6.03373333 C244.744061,5.63073333 244.744061,4.72246667 244.599222,3.90433333 C244.809897,3.87833333 246.216154,3.8012 247.267775,3.8012 C249.672106,3.8012 251.275871,4.72246667 251.275871,6.799 C251.275871,8.82266667 249.817823,10.1460667 247.215106,10.1460667 C246.307447,10.1460667 245.243537,10.0680667 244.744061,9.99093333 Z M238.991749,4.95646667 L238.991749,6.82413333 C239.175212,6.838 239.359553,6.85013333 239.504392,6.85013333 C240.357627,6.85013333 240.843936,6.539 240.843936,5.78673333 C240.843936,5.1766 240.424341,4.91746667 239.556183,4.91746667 C239.399055,4.91746667 239.187502,4.9296 238.991749,4.95646667 Z M239.871318,7.85026667 C239.752814,7.86326667 239.622897,7.86326667 239.504392,7.86326667 L238.991749,7.8364 L238.991749,9.99093333 L237.244023,9.99093333 L237.244023,6.03373333 C237.244023,5.63073333 237.244023,4.72246667 237.099183,3.90433333 C237.611826,3.8662 239.069875,3.8012 239.766859,3.8012 C241.501418,3.8012 242.579373,4.46333333 242.579373,5.73473333 C242.579373,6.513 242.079897,7.08413333 241.382913,7.43513333 L242.842717,9.5888 C242.960344,9.75693333 242.999846,9.8878 242.999846,9.99093333 L241.19945,9.99093333 L239.871318,7.85026667 Z M231.595293,7.43513333 L233.014717,7.38226667 L232.357235,5.52673333 L231.595293,7.43513333 Z M231.595293,4.0092 C231.898138,3.90433333 232.869878,3.8012 233.43519,3.8012 L235.590222,9.4848 C235.670103,9.6798 235.749106,9.8878 235.749106,9.99093333 L233.947833,9.99093333 L233.396566,8.43353333 L231.161653,8.51153333 L230.663055,9.78293333 C230.609508,9.91293333 230.517338,9.99093333 230.306662,9.99093333 L229.019788,9.99093333 L231.595293,4.0092 Z M221.412656,6.955 C221.412656,4.86633333 223.267476,3.8012 225.474299,3.8012 C226.632135,3.8012 227.275572,4.0092 227.840884,4.26833333 C227.840884,4.7476 227.631087,5.3326 227.367743,5.57873333 L227.275572,5.57873333 C226.920936,5.30573333 226.250286,5.02146667 225.422508,5.02146667 C224.081209,5.02146667 223.267476,5.68273333 223.267476,6.903 C223.267476,8.31653333 224.081209,8.92666667 225.369839,8.92666667 C225.712186,8.92666667 226.014154,8.88766667 226.289788,8.80966667 L226.289788,8.71953333 C226.289788,8.31653333 226.289788,7.6544 226.144949,6.955 L227.933055,6.955 L227.933055,9.43366667 C227.419534,9.73093333 226.395125,10.1460667 225.212711,10.1460667 C223.055923,10.1460667 221.412656,9.17366667 221.412656,6.955 L221.412656,6.955 Z" id="Fill-32"></path>
                </g>
            </g>
        </g>
    </g>
</svg>