<?xml version="1.0" encoding="utf-8"?>
<!-- Generator: Adobe Illustrator 16.2.1, SVG Export Plug-In . SVG Version: 6.00 Build 0)  -->
<!DOCTYPE svg PUBLIC "-//W3C//DTD SVG 1.1//EN" "http://www.w3.org/Graphics/SVG/1.1/DTD/svg11.dtd">
<svg version="1.1" id="Layer_1" xmlns="http://www.w3.org/2000/svg" xmlns:xlink="http://www.w3.org/1999/xlink" x="0px" y="0px"
	 width="55px" height="65px" viewBox="0 0 55 65" enable-background="new 0 0 55 65" xml:space="preserve">
<g>
	<path fill="#231F20" d="M45.031,35.237l-0.223,16.078c-1.674,0.898-2.789,1.457-4.355,2.57c-1.227-0.777-2.455-1.562-3.908-2.455
		V30.657L45.031,35.237z M46.262,21.276c0,2.453-2.232,3.686-9.717,8.375v-7.148c0-3.574,0.225-5.582,0.334-7.037h-1.561
		c0.223,1.564,0.336,3.463,0.336,7.037v28.484c-4.693-2.795-10.388-5.699-16.421-6.145c5.698-3.238,11.392-7.594,11.392-13.965
		V16.921c0-4.469,1.787-7.152,6.479-11.17c3.684,5.471,5.141,7.816,8.041,12.732C45.816,19.599,46.262,20.718,46.262,21.276
		 M31.633,3.853L31.41,3.181c-4.694,0-7.262-0.561-9.72-1.004c-2.345-0.334-4.356-0.783-7.146-0.783
		c-7.373,0-12.176,3.799-12.176,9.941c0,2.57,0.558,4.02,2.233,5.92l0.67-0.67c-0.895-1.119-1.338-2.234-1.338-3.465
		c0-2.678,2.233-5.023,7.146-5.023c3.688,0,7.037,0.67,9.941,1.34c-6.254,4.576-10.055,7.928-10.055,17.646
		c-0.892-0.336-2.122-0.557-3.796-0.557c-4.69,0-7.146,3.125-7.146,6.139c0,1.344,0.332,2.797,1.228,3.799l0.782-0.443
		c-0.336-0.674-0.56-1.344-0.56-2.012c0-2.01,1.563-3.576,4.468-3.576c2.57,0,4.468,1.117,5.359,2.684
		c0,6.811-1.338,10.275-4.911,10.275v0.777c5.359,0,11.837-3.906,11.837-10.16v-12.51C18.229,11.222,24.258,6.423,31.633,3.853
		 M54.975,32.108l-9.943-6.588c3.799-2.346,5.029-3.018,6.367-4.021c2.348-1.676,3.018-2.682,3.018-3.686
		c0-0.783-0.336-2.234-2.123-4.914c-2.232-3.352-4.355-6.59-8.822-12.842c-6.256,4.244-9.717,6.807-16.305,11.949
		c-2.682,2.119-4.693,5.471-4.693,9.715c0,1.453,0.113,8.936,0.113,13.852c0,3.795-0.672,5.809-4.692,9.154
		c-9.715,0-15.524,6.26-15.524,12.512c0,2.682,0.895,5.475,2.903,7.703l0.672-0.668c-1.23-1.344-2.232-3.463-2.232-5.918
		c0-3.354,2.456-7.041,10.162-7.041c8.488,0,16.416,5.812,20.996,8.605c6.59-5.586,10.725-7.932,19.211-10.727V35.011
		C54.08,34.009,54.416,33.003,54.975,32.108"/>
</g>
<g>
	<path fill="#FFFFFF" d="M45.031,152.237l-0.223,16.078c-1.674,0.898-2.789,1.457-4.355,2.57c-1.227-0.777-2.455-1.562-3.908-2.455
		v-20.773L45.031,152.237z M46.262,138.276c0,2.453-2.232,3.686-9.717,8.375v-7.148c0-3.574,0.225-5.582,0.334-7.037h-1.561
		c0.223,1.564,0.336,3.463,0.336,7.037v28.484c-4.693-2.795-10.389-5.699-16.422-6.145c5.698-3.238,11.393-7.594,11.393-13.965
		v-13.957c0-4.469,1.787-7.152,6.479-11.17c3.684,5.471,5.141,7.816,8.041,12.732C45.816,136.599,46.262,137.718,46.262,138.276
		 M31.633,120.853l-0.223-0.672c-4.694,0-7.263-0.561-9.721-1.004c-2.345-0.334-4.356-0.783-7.146-0.783
		c-7.373,0-12.176,3.799-12.176,9.941c0,2.57,0.558,4.02,2.233,5.92l0.67-0.67c-0.895-1.119-1.338-2.234-1.338-3.465
		c0-2.678,2.233-5.023,7.146-5.023c3.688,0,7.037,0.67,9.941,1.34c-6.254,4.576-10.055,7.928-10.055,17.646
		c-0.892-0.336-2.122-0.557-3.796-0.557c-4.69,0-7.146,3.125-7.146,6.139c0,1.344,0.332,2.797,1.228,3.799l0.782-0.443
		c-0.336-0.674-0.56-1.344-0.56-2.012c0-2.01,1.563-3.576,4.468-3.576c2.57,0,4.468,1.117,5.359,2.684
		c0,6.811-1.338,10.275-4.911,10.275v0.777c5.359,0,11.837-3.906,11.837-10.16v-12.51C18.229,128.222,24.258,123.423,31.633,120.853
		 M54.975,149.108l-9.943-6.588c3.799-2.346,5.029-3.018,6.367-4.021c2.348-1.676,3.018-2.682,3.018-3.686
		c0-0.783-0.336-2.234-2.123-4.914c-2.232-3.352-4.355-6.59-8.822-12.842c-6.256,4.244-9.717,6.807-16.306,11.949
		c-2.682,2.119-4.693,5.471-4.693,9.715c0,1.453,0.113,8.936,0.113,13.852c0,3.795-0.672,5.809-4.692,9.154
		c-9.715,0-15.524,6.26-15.524,12.512c0,2.682,0.895,5.475,2.903,7.703l0.672-0.668c-1.23-1.344-2.232-3.463-2.232-5.918
		c0-3.354,2.456-7.041,10.162-7.041c8.488,0,16.416,5.812,20.996,8.605c6.59-5.586,10.725-7.932,19.211-10.727v-14.184
		C54.08,151.009,54.416,150.003,54.975,149.108"/>
</g>
<g>
	<path d="M45.031,269.237l-0.223,16.078c-1.674,0.898-2.789,1.457-4.355,2.57c-1.227-0.777-2.455-1.562-3.908-2.455v-20.773
		L45.031,269.237z M46.262,255.276c0,2.453-2.232,3.686-9.717,8.375v-7.148c0-3.574,0.225-5.582,0.334-7.037h-1.561
		c0.223,1.564,0.336,3.463,0.336,7.037v28.484c-4.693-2.795-10.389-5.699-16.422-6.145c5.698-3.238,11.393-7.594,11.393-13.965
		v-13.957c0-4.469,1.787-7.152,6.479-11.17c3.684,5.471,5.141,7.816,8.041,12.732C45.816,253.599,46.262,254.718,46.262,255.276
		 M31.633,237.853l-0.223-0.672c-4.694,0-7.263-0.561-9.721-1.004c-2.345-0.334-4.356-0.783-7.146-0.783
		c-7.373,0-12.176,3.799-12.176,9.941c0,2.57,0.558,4.02,2.233,5.92l0.67-0.67c-0.895-1.119-1.338-2.234-1.338-3.465
		c0-2.678,2.233-5.023,7.146-5.023c3.688,0,7.037,0.67,9.941,1.34c-6.254,4.576-10.055,7.928-10.055,17.646
		c-0.892-0.336-2.122-0.557-3.796-0.557c-4.69,0-7.146,3.125-7.146,6.139c0,1.344,0.332,2.797,1.228,3.799l0.782-0.443
		c-0.336-0.674-0.56-1.344-0.56-2.012c0-2.01,1.563-3.576,4.468-3.576c2.57,0,4.468,1.117,5.359,2.684
		c0,6.811-1.338,10.275-4.911,10.275v0.777c5.359,0,11.837-3.906,11.837-10.16v-12.51C18.229,245.222,24.258,240.423,31.633,237.853
		 M54.975,266.108l-9.943-6.588c3.799-2.346,5.029-3.018,6.367-4.021c2.348-1.676,3.018-2.682,3.018-3.686
		c0-0.783-0.336-2.234-2.123-4.914c-2.232-3.352-4.355-6.59-8.822-12.842c-6.256,4.244-9.717,6.807-16.306,11.949
		c-2.682,2.119-4.693,5.471-4.693,9.715c0,1.453,0.113,8.936,0.113,13.852c0,3.795-0.672,5.809-4.692,9.154
		c-9.715,0-15.524,6.26-15.524,12.512c0,2.682,0.895,5.475,2.903,7.703l0.672-0.668c-1.23-1.344-2.232-3.463-2.232-5.918
		c0-3.354,2.456-7.041,10.162-7.041c8.488,0,16.416,5.812,20.996,8.605c6.59-5.586,10.725-7.932,19.211-10.727v-14.184
		C54.08,268.009,54.416,267.003,54.975,266.108"/>
</g>
</svg>
