<?xml version="1.0" encoding="utf-8"?>
<!-- Generator: Adobe Illustrator 16.2.1, SVG Export Plug-In . SVG Version: 6.00 Build 0)  -->
<!DOCTYPE svg PUBLIC "-//W3C//DTD SVG 1.1//EN" "http://www.w3.org/Graphics/SVG/1.1/DTD/svg11.dtd">
<svg version="1.1" id="Layer_1" xmlns="http://www.w3.org/2000/svg" xmlns:xlink="http://www.w3.org/1999/xlink" x="0px" y="0px"
	 width="500px" height="67px" viewBox="0 0 500 67" enable-background="new 0 0 500 67" xml:space="preserve">
<g>
	<path fill="#231F20" d="M461.872,41.154c0,4.91-0.225,14.516-0.225,14.852l-0.334,0.332l-9.272-5.801V27.75
		c1.452-2.232,3.463-3.352,5.25-3.352c2.121,0,3.685,1.564,4.465,3.686C461.756,28.979,461.872,34.898,461.872,41.154
		 M492.472,31.885l-8.601,7.035V22.949L492.472,31.885z M469.687,52.1c-0.559-5.025-0.443-18.654-0.443-25.02
		c0-4.131-3.576-7.148-8.046-9.047l-9.156,7.705V8.986c0-2.789,1.674-5.809,3.682-5.809V2.619c-4.353,0-9.153,3.465-9.938,5.699
		c-1.002-1.678-3.347-2.684-5.579-2.684l-0.115,0.893c2.235,0,4.356,3.801,4.356,10.504c0,13.51-0.11,26.469-0.11,32.047
		c0,1.793-0.225,3.021-1.233,4.473l13.741,8.371C462.091,57.016,464.102,55.562,469.687,52.1 M499.958,49.979l-0.675-0.676
		c-3.459,3.465-5.474,4.916-7.481,4.916c-2.013,0-3.911-1.229-7.931-4.355v-9.158l15.75-12.621
		c-3.688-3.127-11.281-10.723-11.281-10.723c-4.247,3.801-6.702,5.922-12.62,10.055c0.222,1.227,0.447,2.9,0.447,4.242v17.76
		c0,1.229-0.112,2.121-0.563,3.572l12.399,8.707L499.958,49.979z M353.086,42.941c0,3.014-0.896,4.91-2.904,6.477
		c-4.578-4.471-6.811-10.723-6.811-16.979c0-9.377,3.235-12.957,7.707-16.193c0.669-0.559,1.338-1.008,2.008-1.451V42.941z
		 M365.147,55.781c-5.917-0.443-10.496-2.455-14.069-5.471c5.469-3.797,8.932-5.691,8.932-11.508V9.879l1.678-1.336
		c1.228,0.443,2.233,0.889,3.46,1.336V55.781z M382.571,42.602c0,3.244-0.334,5.475-1.227,8.16
		c-3.239,3.232-8.046,5.133-13.514,5.133h-1.565V27.193c1.005-0.113,1.899-0.225,2.793-0.225
		C377.101,26.969,382.571,34.227,382.571,42.602 M378.215,16.135l-11.949,10.609V10.328
		C370.511,12.004,374.308,14.014,378.215,16.135 M429.814,55.229l-0.669,0.441l-9.491-6.031V22.949l10.05,4.912L429.814,55.229z
		 M390.058,6.527l-1.009-0.893l-3.682,3.91c0,0-9.498-3.127-17.202-7.592c-10.609,8.039-18.65,13.734-29.038,21.109
		c-2.458,3.682-3.798,8.484-3.798,13.736c0,14.291,13.179,25.459,29.818,25.459c10.834-4.574,18.543-10.943,24.238-18.648
		c0.334-1.561,0.446-3.797,0.446-5.025c0-10.389-7.035-16.193-14.519-17.98L390.058,6.527z M438.081,23.84l-13.403-6.92
		c-4.133,3.793-8.153,6.584-13.512,9.264c0.332,1.01,0.669,5.141,0.669,7.711v18.43c-1.227,1.336-2.462,2.012-3.688,2.012
		c-1.228,0-2.568-0.561-4.242-1.787V7.871c0-2.57,1.562-5.588,3.574-5.588v-0.33c-4.133,0-7.821,1.895-8.932,5.021
		c-1.011-1.674-2.57-3.127-4.917-3.127l-0.112,0.449c1.34,0,2.683,3.795,2.683,7.367v35.854c0,3.463-0.449,5.25-1.786,7.15
		l8.932,6.479l8.374-7.262l12.958,7.812c4.915-4.574,7.822-7.256,13.29-10.492c-0.333-1.678-0.447-4.916-0.447-6.258V29.092
		C437.521,26.408,437.635,24.957,438.081,23.84 M225.987,56.119c-3.242-2.908-7.707-5.357-14.854-5.357l10.946-11.617l3.796,3.346
		L225.987,56.119z M229.671,29.203l-9.378,10.158l-4.134-3.014V22.836C220.404,25.738,222.858,27.303,229.671,29.203
		 M275.797,56.338l-0.443,0.342l-8.936-5.475V23.283l9.379,5.584V56.338z M284.507,52.207c-0.442-1.445-0.553-2.904-0.553-4.24
		V24.512l-12.177-6.814c-3.907,3.908-8.379,6.701-14.071,9.83c0.333,1.115,0.559,2.902,0.559,4.131v19.766
		c-1.786,1.902-3.577,3.018-5.138,3.018c-1.564,0-3.126-0.666-4.804-2.453c0-1.566,0.111-18.543,0.111-28.926h8.711v-2.125
		l-8.711-0.334c0,0,0.112-8.154,0.224-9.832h-1.002l-12.178,12.846c-5.247-0.781-9.155-2.68-14.854-6.586
		c-4.465,4.574-7.482,6.695-12.841,9.266c0.221,2.682,0.332,4.133,0.332,6.814c0,3.127,0,4.131-0.223,6.816l7.148,5.02l-6.702,7.041
		c-2.9,3.016-4.019,5.471-4.019,7.924c0,2.236,0.895,4.021,2.232,5.699l0.783-0.443c-0.896-1.344-1.455-2.91-1.455-4.355
		c0-2.346,1.23-4.357,4.692-4.357c3.464,0,7.262,2.23,11.058,5.242c4.244-3.906,7.374-6.469,12.061-8.814V41.488
		c0-1.342,0.112-1.9,0.449-2.793l-7.151-4.801l9.161-9.943h4.243c0,10.164-0.112,23.232-0.112,24.684
		c0,1.787-0.335,4.023-1.562,5.807l10.163,7.48l8.712-7.928l12.622,8.264C275.132,57.684,279.038,54.668,284.507,52.207
		 M325.054,53.775l-0.78-0.893l-3.801,3.236c-1.899,0-3.239-1.34-3.239-3.461c0-1.896,0.116-24.016,0.225-27.811
		c-1.452-2.908-3.354-5.139-7.595-6.592l-10.166,7.482c0-3.125-1.786-5.918-5.246-7.705l-5.922,5.029l3.13,3.346
		c0,0-0.112,19.656-0.112,22.895c0,3.246-2.345,5.59-2.345,5.59l9.269,6.805l4.916-6.027l-3.689-3.346V27.75
		c1.788-2.344,3.689-3.352,5.367-3.352c1.894,0,3.459,1.34,3.906,3.242c0.112,1.451,0.112,3.797,0.112,6.254
		c0,3.797,0,17.195-0.112,22.443c0.668,2.348,4.132,5.584,6.367,5.584L325.054,53.775z M161.541,37.133l-0.224,16.078
		c-1.673,0.898-2.789,1.457-4.354,2.57c-1.227-0.777-2.455-1.562-3.908-2.455V32.553L161.541,37.133z M162.771,23.172
		c0,2.453-2.232,3.686-9.717,8.375v-7.148c0-3.574,0.224-5.582,0.334-7.037h-1.562c0.223,1.564,0.336,3.463,0.336,7.037v28.484
		c-4.692-2.795-10.388-5.699-16.421-6.145c5.698-3.238,11.393-7.594,11.393-13.965V18.816c0-4.469,1.787-7.152,6.479-11.17
		c3.684,5.471,5.14,7.816,8.04,12.732C162.325,21.494,162.771,22.613,162.771,23.172 M194.378,56.119l-0.444,0.336l-8.826-5.365
		V22.836l9.271,5.248V56.119z M148.142,5.748l-0.223-0.672c-4.693,0-7.262-0.561-9.72-1.004c-2.345-0.334-4.356-0.783-7.146-0.783
		c-7.373,0-12.176,3.799-12.176,9.941c0,2.57,0.558,4.02,2.233,5.92l0.67-0.67c-0.895-1.119-1.338-2.234-1.338-3.465
		c0-2.678,2.233-5.023,7.146-5.023c3.688,0,7.037,0.67,9.941,1.34c-6.254,4.576-10.055,7.928-10.055,17.646
		c-0.892-0.336-2.122-0.557-3.796-0.557c-4.69,0-7.146,3.125-7.146,6.139c0,1.344,0.332,2.797,1.228,3.799l0.782-0.443
		c-0.336-0.674-0.56-1.344-0.56-2.012c0-2.01,1.563-3.576,4.468-3.576c2.57,0,4.468,1.117,5.359,2.684
		c0,6.811-1.338,10.275-4.911,10.275v0.777c5.359,0,11.837-3.906,11.837-10.16v-12.51C134.738,13.117,140.768,8.318,148.142,5.748
		 M171.483,34.004l-9.942-6.588c3.798-2.346,5.028-3.018,6.366-4.021c2.348-1.676,3.018-2.682,3.018-3.686
		c0-0.783-0.336-2.234-2.122-4.914c-2.233-3.352-4.355-6.59-8.823-12.842c-6.255,4.244-9.716,6.807-16.305,11.949
		c-2.682,2.119-4.693,5.471-4.693,9.715c0,1.453,0.113,8.936,0.113,13.852c0,3.795-0.672,5.809-4.692,9.154
		c-9.715,0-15.524,6.26-15.524,12.512c0,2.682,0.895,5.475,2.903,7.703l0.672-0.668c-1.23-1.344-2.232-3.463-2.232-5.918
		c0-3.354,2.456-7.041,10.162-7.041c8.488,0,16.416,5.812,20.996,8.605c6.59-5.586,10.724-7.932,19.21-10.727V36.906
		C170.589,35.904,170.925,34.898,171.483,34.004 M203.426,24.287l-12.843-7.037c-3.912,3.912-8.935,7.037-14.631,10.166
		c0.779,2.346,0.557,5.357,0.557,9.156c0,9.273,0.11,14.299-1.563,16.754l14.184,8.713c3.909-4.023,8.152-7.146,13.851-10.275
		c-0.447-1.453-0.56-2.904-0.56-4.246V31.658C202.42,26.969,202.868,25.295,203.426,24.287 M16.015,41.713
		c0,3.35-0.56,5.361-2.346,6.922c-4.131-4.242-6.366-10.275-6.366-17.088c0-3.797,0.672-6.699,2.01-8.711
		c2.234-2.012,4.916-3.91,6.702-4.916v8.602V41.713z M28.747,55.781c-5.582-0.67-10.388-2.791-13.963-6.027
		c6.926-5.025,8.488-7.932,8.488-13.516V13.564l0.223-0.223c2.234,0.223,3.466,0.334,5.252,0.447V55.781z M95.759,31.994
		l-9.045,7.258V23.617l0.333-0.334L95.759,31.994z M102.795,49.979l-0.67-0.676c-3.574,3.805-5.136,4.807-7.818,4.807
		c-2.01,0-4.355-1.227-7.593-4.246v-9.158l16.081-12.283L91.851,17.586c-4.804,3.795-5.585,4.467-9.048,7.15
		c-1.898,1.447-3.014,2.121-4.244,2.68c0.224,1.338,0.446,3.238,0.446,4.578v20.439c-1.896,1.785-3.686,2.57-5.023,2.57
		c-1.789,0-3.129-1.119-3.129-3.016V24.623c-1.115-3.461-3.237-5.697-7.369-7.148l-10.167,8.264V6.527
		c0-2.789,1.566-5.359,3.017-6.029V0.16c-4.132,0-7.036,2.684-8.264,5.812l-1.786-3.689l-0.672,0.113v49.143
		c-4.021,2.121-8.376,4.467-13.18,4.467c-0.891,0-1.675,0-2.569-0.111V13.902c2.122,0.221,3.465,0.332,4.692,0.332
		c1.896,0,3.128-0.332,4.02-0.781l5.475-11.17l-0.896-0.221c-2.122,4.244-3.236,4.912-7.816,4.912
		c-2.122,0-6.813-0.557-11.506-1.115c-4.467-0.559-9.047-1.117-11.39-1.117c-6.925,0-10.946,4.803-10.946,9.719
		c0,2.008,0.668,4.02,2.012,5.807l0.778-0.559c-0.891-1.117-1.45-2.572-1.45-3.801c0-2.006,1.563-3.793,5.808-3.793
		c1.677,0,7.596,0.561,13.179,1.002c-6.366,3.129-11.613,6.479-17.756,11.17c-2.682,3.574-4.024,8.152-4.024,12.846
		c0,12.061,9.16,25.125,29.378,25.125c5.918-3.348,14.63-8.373,14.63-8.373l8.041,7.262l5.583-5.477l-4.356-4.58V27.75
		c1.898-2.568,4.021-3.686,5.699-3.686c1.897,0,3.684,1.342,4.132,3.797v28.033c0.669,2.348,3.46,4.576,6.254,5.359l9.939-7.479
		l11.506,7.922L102.795,49.979z"/>
</g>
<g>
	<path fill="#FFFFFF" d="M461.871,158.155c0,4.91-0.225,14.516-0.225,14.852l-0.334,0.332l-9.271-5.801v-22.787
		c1.451-2.232,3.463-3.352,5.25-3.352c2.121,0,3.684,1.564,4.465,3.686C461.756,145.979,461.871,151.899,461.871,158.155
		 M492.471,148.886l-8.6,7.035V139.95L492.471,148.886z M469.686,169.101c-0.559-5.025-0.443-18.654-0.443-25.02
		c0-4.131-3.576-7.148-8.045-9.047l-9.156,7.705v-16.752c0-2.789,1.674-5.809,3.682-5.809v-0.559c-4.354,0-9.154,3.465-9.939,5.699
		c-1.002-1.678-3.346-2.684-5.578-2.684l-0.115,0.893c2.234,0,4.355,3.801,4.355,10.504c0,13.51-0.109,26.469-0.109,32.047
		c0,1.793-0.225,3.021-1.234,4.473l13.742,8.371C462.09,174.017,464.102,172.563,469.686,169.101 M499.957,166.979l-0.674-0.676
		c-3.459,3.465-5.475,4.916-7.482,4.916c-2.012,0-3.91-1.229-7.93-4.355v-9.158l15.75-12.621
		c-3.689-3.127-11.281-10.723-11.281-10.723c-4.248,3.801-6.703,5.922-12.621,10.055c0.223,1.227,0.447,2.9,0.447,4.242v17.76
		c0,1.229-0.111,2.121-0.562,3.572l12.398,8.707L499.957,166.979z M353.086,159.942c0,3.014-0.896,4.91-2.904,6.477
		c-4.578-4.471-6.811-10.723-6.811-16.979c0-9.377,3.234-12.957,7.707-16.193c0.668-0.559,1.338-1.008,2.008-1.451V159.942z
		 M365.146,172.782c-5.916-0.443-10.496-2.455-14.068-5.471c5.469-3.797,8.932-5.691,8.932-11.508V126.88l1.678-1.336
		c1.227,0.443,2.232,0.889,3.459,1.336V172.782z M382.57,159.603c0,3.244-0.334,5.475-1.227,8.16
		c-3.238,3.232-8.045,5.133-13.514,5.133h-1.564v-28.701c1.004-0.113,1.898-0.225,2.793-0.225
		C377.1,143.97,382.57,151.228,382.57,159.603 M378.215,133.136l-11.949,10.609v-16.416
		C370.51,129.005,374.307,131.015,378.215,133.136 M429.814,172.229l-0.67,0.441l-9.49-6.031V139.95l10.049,4.912L429.814,172.229z
		 M390.057,123.528l-1.008-0.893l-3.682,3.91c0,0-9.498-3.127-17.203-7.592c-10.609,8.039-18.65,13.734-29.037,21.109
		c-2.459,3.682-3.799,8.484-3.799,13.736c0,14.291,13.18,25.459,29.818,25.459c10.834-4.574,18.543-10.943,24.238-18.648
		c0.334-1.561,0.447-3.797,0.447-5.025c0-10.389-7.035-16.193-14.52-17.98L390.057,123.528z M438.08,140.841l-13.402-6.92
		c-4.133,3.793-8.154,6.584-13.512,9.264c0.332,1.01,0.668,5.141,0.668,7.711v18.43c-1.227,1.336-2.461,2.012-3.688,2.012
		c-1.229,0-2.568-0.561-4.242-1.787v-44.678c0-2.57,1.562-5.588,3.574-5.588v-0.33c-4.133,0-7.822,1.895-8.932,5.021
		c-1.012-1.674-2.57-3.127-4.918-3.127l-0.111,0.449c1.34,0,2.682,3.795,2.682,7.367v35.854c0,3.463-0.449,5.25-1.785,7.15
		l8.932,6.479l8.373-7.262l12.959,7.812c4.914-4.574,7.822-7.256,13.289-10.492c-0.332-1.678-0.447-4.916-0.447-6.258v-15.855
		C437.52,143.409,437.635,141.958,438.08,140.841 M225.987,173.12c-3.242-2.908-7.707-5.357-14.853-5.357l10.945-11.617l3.797,3.346
		L225.987,173.12z M229.67,146.204l-9.377,10.158l-4.134-3.014v-13.512C220.405,142.739,222.858,144.304,229.67,146.204
		 M275.797,173.339l-0.443,0.342l-8.936-5.475v-27.922l9.379,5.584V173.339z M284.506,169.208c-0.441-1.445-0.553-2.904-0.553-4.24
		v-23.455l-12.176-6.814c-3.908,3.908-8.379,6.701-14.072,9.83c0.334,1.115,0.559,2.902,0.559,4.131v19.766
		c-1.785,1.902-3.576,3.018-5.137,3.018c-1.564,0-3.126-0.666-4.804-2.453c0-1.566,0.111-18.543,0.111-28.926h8.71v-2.125
		l-8.71-0.334c0,0,0.113-8.154,0.225-9.832h-1.002l-12.178,12.846c-5.248-0.781-9.156-2.68-14.855-6.586
		c-4.464,4.574-7.482,6.695-12.839,9.266c0.221,2.682,0.332,4.133,0.332,6.814c0,3.127,0,4.131-0.223,6.816l7.148,5.02l-6.703,7.041
		c-2.9,3.016-4.018,5.471-4.018,7.924c0,2.236,0.895,4.021,2.232,5.699l0.783-0.443c-0.896-1.344-1.455-2.91-1.455-4.355
		c0-2.346,1.23-4.357,4.691-4.357c3.465,0,7.262,2.23,11.058,5.242c4.244-3.906,7.373-6.469,12.061-8.814v-11.395
		c0-1.342,0.111-1.9,0.449-2.793l-7.152-4.801l9.162-9.943h4.242c0,10.164-0.111,23.232-0.111,24.684
		c0,1.787-0.336,4.023-1.562,5.807l10.164,7.48l8.71-7.928l12.623,8.264C275.131,174.685,279.037,171.669,284.506,169.208
		 M325.053,170.776l-0.779-0.893l-3.801,3.236c-1.9,0-3.24-1.34-3.24-3.461c0-1.896,0.117-24.016,0.225-27.811
		c-1.451-2.908-3.354-5.139-7.594-6.592l-10.166,7.482c0-3.125-1.787-5.918-5.246-7.705l-5.922,5.029l3.129,3.346
		c0,0-0.111,19.656-0.111,22.895c0,3.246-2.346,5.59-2.346,5.59l9.27,6.805l4.916-6.027l-3.689-3.346v-24.574
		c1.787-2.344,3.689-3.352,5.367-3.352c1.893,0,3.459,1.34,3.906,3.242c0.111,1.451,0.111,3.797,0.111,6.254
		c0,3.797,0,17.195-0.111,22.443c0.668,2.348,4.131,5.584,6.367,5.584L325.053,170.776z M161.542,154.134l-0.224,16.078
		c-1.673,0.898-2.789,1.457-4.354,2.57c-1.227-0.777-2.455-1.562-3.908-2.455v-20.773L161.542,154.134z M162.772,140.173
		c0,2.453-2.232,3.686-9.717,8.375v-7.148c0-3.574,0.224-5.582,0.334-7.037h-1.562c0.223,1.564,0.336,3.463,0.336,7.037v28.484
		c-4.692-2.795-10.388-5.699-16.421-6.145c5.698-3.238,11.393-7.594,11.393-13.965v-13.957c0-4.469,1.787-7.152,6.479-11.17
		c3.684,5.471,5.14,7.816,8.04,12.732C162.326,138.495,162.772,139.614,162.772,140.173 M194.378,173.12l-0.443,0.336l-8.827-5.365
		v-28.254l9.27,5.248V173.12z M148.142,122.749l-0.223-0.672c-4.693,0-7.262-0.561-9.72-1.004c-2.345-0.334-4.356-0.783-7.146-0.783
		c-7.373,0-12.176,3.799-12.176,9.941c0,2.57,0.558,4.02,2.233,5.92l0.67-0.67c-0.895-1.119-1.338-2.234-1.338-3.465
		c0-2.678,2.233-5.023,7.146-5.023c3.688,0,7.037,0.67,9.941,1.34c-6.254,4.576-10.055,7.928-10.055,17.646
		c-0.892-0.336-2.122-0.557-3.796-0.557c-4.69,0-7.146,3.125-7.146,6.139c0,1.344,0.332,2.797,1.228,3.799l0.782-0.443
		c-0.336-0.674-0.56-1.344-0.56-2.012c0-2.01,1.563-3.576,4.468-3.576c2.57,0,4.468,1.117,5.359,2.684
		c0,6.811-1.338,10.275-4.911,10.275v0.777c5.359,0,11.837-3.906,11.837-10.16v-12.51
		C134.739,130.118,140.768,125.319,148.142,122.749 M171.484,151.005l-9.942-6.588c3.798-2.346,5.028-3.018,6.366-4.021
		c2.348-1.676,3.018-2.682,3.018-3.686c0-0.783-0.336-2.234-2.122-4.914c-2.233-3.352-4.355-6.59-8.823-12.842
		c-6.255,4.244-9.716,6.807-16.305,11.949c-2.682,2.119-4.693,5.471-4.693,9.715c0,1.453,0.113,8.936,0.113,13.852
		c0,3.795-0.672,5.809-4.692,9.154c-9.715,0-15.524,6.26-15.524,12.512c0,2.682,0.895,5.475,2.903,7.703l0.672-0.668
		c-1.23-1.344-2.232-3.463-2.232-5.918c0-3.354,2.456-7.041,10.162-7.041c8.488,0,16.416,5.812,20.996,8.605
		c6.59-5.586,10.724-7.932,19.21-10.727v-14.184C170.589,152.905,170.925,151.899,171.484,151.005 M203.427,141.288l-12.844-7.037
		c-3.912,3.912-8.934,7.037-14.63,10.166c0.779,2.346,0.557,5.357,0.557,9.156c0,9.273,0.11,14.299-1.563,16.754l14.184,8.713
		c3.908-4.023,8.152-7.146,13.85-10.275c-0.447-1.453-0.559-2.904-0.559-4.246v-15.859
		C202.421,143.97,202.868,142.296,203.427,141.288 M16.015,158.714c0,3.35-0.56,5.361-2.346,6.922
		c-4.131-4.242-6.366-10.275-6.366-17.088c0-3.797,0.672-6.699,2.01-8.711c2.234-2.012,4.916-3.91,6.702-4.916v8.602V158.714z
		 M28.748,172.782c-5.582-0.67-10.388-2.791-13.963-6.027c6.926-5.025,8.488-7.932,8.488-13.516v-22.674l0.223-0.223
		c2.234,0.223,3.466,0.334,5.252,0.447V172.782z M95.759,148.995l-9.045,7.258v-15.635l0.333-0.334L95.759,148.995z
		 M102.795,166.979l-0.67-0.676c-3.574,3.805-5.136,4.807-7.818,4.807c-2.01,0-4.355-1.227-7.593-4.246v-9.158l16.081-12.283
		l-10.944-10.836c-4.804,3.795-5.585,4.467-9.048,7.15c-1.898,1.447-3.014,2.121-4.244,2.68c0.224,1.338,0.446,3.238,0.446,4.578
		v20.439c-1.896,1.785-3.686,2.57-5.023,2.57c-1.789,0-3.129-1.119-3.129-3.016v-27.365c-1.115-3.461-3.237-5.697-7.369-7.148
		l-10.167,8.264v-19.211c0-2.789,1.566-5.359,3.017-6.029v-0.338c-4.132,0-7.036,2.684-8.264,5.812l-1.786-3.689l-0.672,0.113
		v49.143c-4.021,2.121-8.376,4.467-13.18,4.467c-0.891,0-1.675,0-2.569-0.111v-41.992c2.122,0.221,3.465,0.332,4.692,0.332
		c1.896,0,3.128-0.332,4.02-0.781l5.475-11.17l-0.896-0.221c-2.122,4.244-3.236,4.912-7.816,4.912
		c-2.122,0-6.813-0.557-11.506-1.115c-4.467-0.559-9.047-1.117-11.39-1.117c-6.925,0-10.946,4.803-10.946,9.719
		c0,2.008,0.668,4.02,2.012,5.807l0.778-0.559c-0.891-1.117-1.45-2.572-1.45-3.801c0-2.006,1.563-3.793,5.808-3.793
		c1.677,0,7.596,0.561,13.179,1.002c-6.366,3.129-11.613,6.479-17.756,11.17c-2.682,3.574-4.024,8.152-4.024,12.846
		c0,12.061,9.16,25.125,29.378,25.125c5.918-3.348,14.63-8.373,14.63-8.373l8.041,7.262l5.583-5.477l-4.356-4.58v-23.34
		c1.898-2.568,4.021-3.686,5.699-3.686c1.897,0,3.684,1.342,4.132,3.797v28.033c0.669,2.348,3.46,4.576,6.254,5.359l9.939-7.479
		l11.506,7.922L102.795,166.979z"/>
</g>
<g>
	<path d="M461.873,275.155c0,4.91-0.225,14.516-0.225,14.852l-0.334,0.332l-9.273-5.801v-22.787c1.453-2.232,3.463-3.352,5.25-3.352
		c2.121,0,3.686,1.564,4.465,3.686C461.756,262.979,461.873,268.899,461.873,275.155 M492.473,265.886l-8.602,7.035V256.95
		L492.473,265.886z M469.688,286.101c-0.559-5.025-0.443-18.654-0.443-25.02c0-4.131-3.576-7.148-8.047-9.047l-9.156,7.705v-16.752
		c0-2.789,1.674-5.809,3.682-5.809v-0.559c-4.352,0-9.152,3.465-9.938,5.699c-1.002-1.678-3.348-2.684-5.58-2.684l-0.115,0.893
		c2.236,0,4.357,3.801,4.357,10.504c0,13.51-0.111,26.469-0.111,32.047c0,1.793-0.225,3.021-1.232,4.473l13.74,8.371
		C462.092,291.017,464.102,289.563,469.688,286.101 M499.959,283.979l-0.676-0.676c-3.459,3.465-5.473,4.916-7.48,4.916
		c-2.014,0-3.912-1.229-7.932-4.355v-9.158l15.75-12.621c-3.688-3.127-11.281-10.723-11.281-10.723
		c-4.246,3.801-6.701,5.922-12.619,10.055c0.221,1.227,0.447,2.9,0.447,4.242v17.76c0,1.229-0.113,2.121-0.564,3.572l12.4,8.707
		L499.959,283.979z M353.086,276.942c0,3.014-0.895,4.91-2.904,6.477c-4.578-4.471-6.811-10.723-6.811-16.979
		c0-9.377,3.236-12.957,7.707-16.193c0.67-0.559,1.338-1.008,2.008-1.451V276.942z M365.148,289.782
		c-5.918-0.443-10.496-2.455-14.07-5.471c5.469-3.797,8.932-5.691,8.932-11.508V243.88l1.678-1.336
		c1.229,0.443,2.234,0.889,3.461,1.336V289.782z M382.572,276.603c0,3.244-0.334,5.475-1.227,8.16
		c-3.24,3.232-8.047,5.133-13.514,5.133h-1.566v-28.701c1.006-0.113,1.9-0.225,2.793-0.225
		C377.102,260.97,382.572,268.228,382.572,276.603 M378.215,250.136l-11.949,10.609v-16.416
		C370.512,246.005,374.309,248.015,378.215,250.136 M429.814,289.229l-0.668,0.441l-9.492-6.031V256.95l10.051,4.912
		L429.814,289.229z M390.059,240.528l-1.01-0.893l-3.682,3.91c0,0-9.498-3.127-17.201-7.592
		c-10.609,8.039-18.65,13.734-29.039,21.109c-2.457,3.682-3.797,8.484-3.797,13.736c0,14.291,13.178,25.459,29.818,25.459
		c10.834-4.574,18.543-10.943,24.238-18.648c0.334-1.561,0.445-3.797,0.445-5.025c0-10.389-7.035-16.193-14.518-17.98
		L390.059,240.528z M438.082,257.841l-13.404-6.92c-4.133,3.793-8.152,6.584-13.512,9.264c0.332,1.01,0.67,5.141,0.67,7.711v18.43
		c-1.227,1.336-2.463,2.012-3.689,2.012s-2.568-0.561-4.242-1.787v-44.678c0-2.57,1.562-5.588,3.574-5.588v-0.33
		c-4.133,0-7.82,1.895-8.932,5.021c-1.01-1.674-2.57-3.127-4.916-3.127l-0.113,0.449c1.34,0,2.684,3.795,2.684,7.367v35.854
		c0,3.463-0.449,5.25-1.787,7.15l8.932,6.479l8.375-7.262l12.957,7.812c4.916-4.574,7.822-7.256,13.291-10.492
		c-0.334-1.678-0.447-4.916-0.447-6.258v-15.855C437.521,260.409,437.635,258.958,438.082,257.841 M225.988,290.12
		c-3.242-2.908-7.707-5.357-14.854-5.357l10.946-11.617l3.796,3.346L225.988,290.12z M229.671,263.204l-9.378,10.158l-4.134-3.014
		v-13.512C220.405,259.739,222.859,261.304,229.671,263.204 M275.797,290.339l-0.443,0.342l-8.936-5.475v-27.922l9.379,5.584
		V290.339z M284.508,286.208c-0.443-1.445-0.553-2.904-0.553-4.24v-23.455l-12.178-6.814c-3.906,3.908-8.379,6.701-14.07,9.83
		c0.332,1.115,0.559,2.902,0.559,4.131v19.766c-1.787,1.902-3.578,3.018-5.139,3.018c-1.564,0-3.125-0.666-4.803-2.453
		c0-1.566,0.111-18.543,0.111-28.926h8.711v-2.125l-8.711-0.334c0,0,0.111-8.154,0.223-9.832h-1.002l-12.177,12.846
		c-5.247-0.781-9.155-2.68-14.854-6.586c-4.465,4.574-7.482,6.695-12.841,9.266c0.221,2.682,0.332,4.133,0.332,6.814
		c0,3.127,0,4.131-0.223,6.816l7.148,5.02l-6.702,7.041c-2.9,3.016-4.019,5.471-4.019,7.924c0,2.236,0.895,4.021,2.232,5.699
		l0.783-0.443c-0.896-1.344-1.455-2.91-1.455-4.355c0-2.346,1.23-4.357,4.692-4.357c3.464,0,7.262,2.23,11.058,5.242
		c4.244-3.906,7.374-6.469,12.061-8.814v-11.395c0-1.342,0.112-1.9,0.449-2.793l-7.151-4.801l9.161-9.943h4.243
		c0,10.164-0.112,23.232-0.112,24.684c0,1.787-0.335,4.023-1.562,5.807l10.163,7.48l8.713-7.928l12.621,8.264
		C275.133,291.685,279.039,288.669,284.508,286.208 M325.055,287.776l-0.781-0.893l-3.801,3.236c-1.898,0-3.238-1.34-3.238-3.461
		c0-1.896,0.115-24.016,0.225-27.811c-1.453-2.908-3.354-5.139-7.596-6.592l-10.166,7.482c0-3.125-1.785-5.918-5.246-7.705
		l-5.922,5.029l3.131,3.346c0,0-0.113,19.656-0.113,22.895c0,3.246-2.344,5.59-2.344,5.59l9.268,6.805l4.916-6.027l-3.689-3.346
		v-24.574c1.789-2.344,3.689-3.352,5.367-3.352c1.895,0,3.459,1.34,3.906,3.242c0.113,1.451,0.113,3.797,0.113,6.254
		c0,3.797,0,17.195-0.113,22.443c0.668,2.348,4.133,5.584,6.367,5.584L325.055,287.776z M161.542,271.134l-0.224,16.078
		c-1.673,0.898-2.789,1.457-4.354,2.57c-1.227-0.777-2.455-1.562-3.908-2.455v-20.773L161.542,271.134z M162.772,257.173
		c0,2.453-2.232,3.686-9.717,8.375v-7.148c0-3.574,0.224-5.582,0.334-7.037h-1.562c0.223,1.564,0.336,3.463,0.336,7.037v28.484
		c-4.692-2.795-10.388-5.699-16.421-6.145c5.698-3.238,11.393-7.594,11.393-13.965v-13.957c0-4.469,1.787-7.152,6.479-11.17
		c3.684,5.471,5.14,7.816,8.04,12.732C162.326,255.495,162.772,256.614,162.772,257.173 M194.379,290.12l-0.444,0.336l-8.826-5.365
		v-28.254l9.271,5.248V290.12z M148.143,239.749l-0.223-0.672c-4.693,0-7.262-0.561-9.72-1.004
		c-2.345-0.334-4.356-0.783-7.146-0.783c-7.373,0-12.176,3.799-12.176,9.941c0,2.57,0.558,4.02,2.233,5.92l0.67-0.67
		c-0.895-1.119-1.338-2.234-1.338-3.465c0-2.678,2.233-5.023,7.146-5.023c3.688,0,7.037,0.67,9.941,1.34
		c-6.254,4.576-10.055,7.928-10.055,17.646c-0.892-0.336-2.122-0.557-3.796-0.557c-4.69,0-7.146,3.125-7.146,6.139
		c0,1.344,0.332,2.797,1.228,3.799l0.782-0.443c-0.336-0.674-0.56-1.344-0.56-2.012c0-2.01,1.563-3.576,4.468-3.576
		c2.57,0,4.468,1.117,5.359,2.684c0,6.811-1.338,10.275-4.911,10.275v0.777c5.359,0,11.837-3.906,11.837-10.16v-12.51
		C134.739,247.118,140.769,242.319,148.143,239.749 M171.484,268.005l-9.942-6.588c3.798-2.346,5.028-3.018,6.366-4.021
		c2.348-1.676,3.018-2.682,3.018-3.686c0-0.783-0.336-2.234-2.122-4.914c-2.233-3.352-4.355-6.59-8.823-12.842
		c-6.255,4.244-9.716,6.807-16.305,11.949c-2.682,2.119-4.693,5.471-4.693,9.715c0,1.453,0.113,8.936,0.113,13.852
		c0,3.795-0.672,5.809-4.692,9.154c-9.715,0-15.524,6.26-15.524,12.512c0,2.682,0.895,5.475,2.903,7.703l0.672-0.668
		c-1.23-1.344-2.232-3.463-2.232-5.918c0-3.354,2.456-7.041,10.162-7.041c8.488,0,16.416,5.812,20.996,8.605
		c6.59-5.586,10.724-7.932,19.21-10.727v-14.184C170.59,269.905,170.926,268.899,171.484,268.005 M203.426,258.288l-12.842-7.037
		c-3.912,3.912-8.935,7.037-14.631,10.166c0.779,2.346,0.557,5.357,0.557,9.156c0,9.273,0.11,14.299-1.563,16.754l14.184,8.713
		c3.909-4.023,8.152-7.146,13.85-10.275c-0.447-1.453-0.56-2.904-0.56-4.246v-15.859C202.42,260.97,202.869,259.296,203.426,258.288
		 M16.016,275.714c0,3.35-0.56,5.361-2.346,6.922c-4.131-4.242-6.366-10.275-6.366-17.088c0-3.797,0.672-6.699,2.01-8.711
		c2.234-2.012,4.916-3.91,6.702-4.916v8.602V275.714z M28.748,289.782c-5.582-0.67-10.388-2.791-13.963-6.027
		c6.926-5.025,8.488-7.932,8.488-13.516v-22.674l0.223-0.223c2.234,0.223,3.466,0.334,5.252,0.447V289.782z M95.76,265.995
		l-9.045,7.258v-15.635l0.333-0.334L95.76,265.995z M102.796,283.979l-0.67-0.676c-3.574,3.805-5.136,4.807-7.818,4.807
		c-2.01,0-4.355-1.227-7.593-4.246v-9.158l16.081-12.283l-10.944-10.836c-4.804,3.795-5.585,4.467-9.048,7.15
		c-1.898,1.447-3.014,2.121-4.244,2.68c0.224,1.338,0.446,3.238,0.446,4.578v20.439c-1.896,1.785-3.686,2.57-5.023,2.57
		c-1.789,0-3.129-1.119-3.129-3.016v-27.365c-1.115-3.461-3.237-5.697-7.369-7.148l-10.167,8.264v-19.211
		c0-2.789,1.566-5.359,3.017-6.029v-0.338c-4.132,0-7.036,2.684-8.264,5.812l-1.786-3.689l-0.672,0.113v49.143
		c-4.021,2.121-8.376,4.467-13.18,4.467c-0.891,0-1.675,0-2.569-0.111v-41.992c2.122,0.221,3.465,0.332,4.692,0.332
		c1.896,0,3.128-0.332,4.02-0.781l5.475-11.17l-0.896-0.221c-2.122,4.244-3.236,4.912-7.816,4.912
		c-2.122,0-6.813-0.557-11.506-1.115c-4.467-0.559-9.047-1.117-11.39-1.117c-6.925,0-10.946,4.803-10.946,9.719
		c0,2.008,0.668,4.02,2.012,5.807l0.778-0.559c-0.891-1.117-1.45-2.572-1.45-3.801c0-2.006,1.563-3.793,5.808-3.793
		c1.677,0,7.596,0.561,13.179,1.002c-6.366,3.129-11.613,6.479-17.756,11.17c-2.682,3.574-4.024,8.152-4.024,12.846
		c0,12.061,9.16,25.125,29.378,25.125c5.918-3.348,14.63-8.373,14.63-8.373l8.041,7.262l5.583-5.477l-4.356-4.58v-23.34
		c1.898-2.568,4.021-3.686,5.699-3.686c1.897,0,3.684,1.342,4.132,3.797v28.033c0.669,2.348,3.46,4.576,6.254,5.359l9.939-7.479
		l11.506,7.922L102.796,283.979z"/>
</g>
</svg>
