<?xml version="1.0" encoding="utf-8"?>
<!-- Generator: Adobe Illustrator 16.2.1, SVG Export Plug-In . SVG Version: 6.00 Build 0)  -->
<!DOCTYPE svg PUBLIC "-//W3C//DTD SVG 1.1//EN" "http://www.w3.org/Graphics/SVG/1.1/DTD/svg11.dtd">
<svg version="1.1" id="Layer_1" xmlns="http://www.w3.org/2000/svg" xmlns:xlink="http://www.w3.org/1999/xlink" x="0px" y="0px"
	 width="500px" height="441px" viewBox="0 0 500 441" enable-background="new 0 0 500 441" xml:space="preserve">
<g>
	<path fill="#231F20" d="M99.873,352.836c0.69,9.332-6.312,17.455-15.636,18.146l0,0c-9.333,0.68-17.462-6.322-18.145-15.65
		L55.816,216.246c-0.689-9.327,6.312-17.454,15.643-18.141l0,0c9.333-0.688,17.453,6.31,18.142,15.645L99.873,352.836z"/>
	<path fill="#174680" d="M392.939,357.549l14.286-151.428c0.96-10.152,12.283-17.391,25.29-16.168
		c2.36,0.226,4.629,0.721,6.717,1.43c-17.783-69.249-79.527-118.917-159.729-119.818c-82.207-0.94-159.218,49.605-195.032,120.966
		c6.427,2.868,10.889,8.12,11.357,14.427l11.214,151.69c0.532,7.172-4.271,13.754-11.703,17.363
		c29.265,38.846,76.609,63.695,133.123,64.34c63.826,0.723,124.537-29.602,165.257-76.592
		C393.035,361.775,392.735,359.682,392.939,357.549z"/>
	<path fill="#231F20" d="M435.712,355.244c-0.869,9.312-9.146,16.148-18.452,15.271l0,0c-9.314-0.877-16.16-9.139-15.279-18.457
		l13.103-138.846c0.884-9.312,9.146-16.156,18.452-15.281l0,0c9.321,0.886,16.152,9.144,15.282,18.461L435.712,355.244z"/>
	<path fill="#231F20" d="M37.1,232.621c0.035-0.266,0.067-0.535,0.097-0.803"/>
	<path fill="#231F20" d="M21.689,241.141c0,0-14.154,3.592-16.508,6.305c0,0-7.25,5.172-4.597,41.117
		c2.22,29.977,13.19,40.633,13.19,40.633l22.875-0.838c0,0,19.747,25.988,20.819,29.027c1.083,3.037-10.297-139.36-10.297-139.36
		S21.644,240.943,21.689,241.141z"/>
	<path fill="#231F20" d="M483.438,249.52c2.934-12.039-5.461-85.969-27.841-123.007c-32.073-53.064-62.817-77.392-62.817-77.392
		V41.5c0,0-58.379-41.5-145.108-41.5c-79.863,0-120.419,31.652-130.687,40.918l-0.694,8.203c0,0-45.505,30.501-65.255,77.068
		c-18.831,44.447-27.53,105.842-27.54,115.084c4.958-2.01,9.823-2.75,13.817-6.668c-0.025-0.115-0.041-0.246-0.016-0.408
		l0.079-0.805c7.377-70.409,28.556-133.676,85.352-174.107l11.787-2.531c12.626-5.249,52.086-33.88,114.234-33.88
		c69.333,0,101.092,18.724,124.286,36.411h12.459c32.629,31.349,62.105,67.227,77.486,121.144
		c6.469,22.615,7.659,45.54,7.894,53.192C473.353,238.887,478.086,247.092,483.438,249.52z"/>
	<path fill="#231F20" d="M496.301,250.93c-4.059-1.607-15.084-5.121-15.084-5.121l-24.214-29.206l-13.441,140.424
		c0,0,14.968-20.268,17.808-24.326c1.471-2.082,23.172-2.049,26.554-1.738c3.356,0.324,8.974-14.045,11.158-37.236
		C501.148,271.805,499.655,252.256,496.301,250.93z"/>
	<g>
		<path fill="#FFFFFF" d="M343.438,180.066c-39.642-12.684-80.506,6.548-106.934,37.648c4.111-38.875,11.974-81.438,16.097-120.716
			l-56.975,17.593L155.568,408.01l48.724-17.199c0.814-8.998,1.657-18.811,5.362-25.787l9.098,9.84
			c21.065,15.123,49.544,3.264,69.777-6.971c47.896-27.412,75.571-76.529,80.129-128.898
			C369.473,215.666,365.349,192.345,343.438,180.066z M290.599,309.793c-14.875,16.367-36.764,26.178-58.637,20.869
			c-12.383-6.146-13.21-19.635-13.21-31.928c2.476-26.598,20.225-54.414,46.662-63.828c13.627-6.141,37.567-8.598,44.596,9.414
			C317.021,268.871,306.275,291.785,290.599,309.793z"/>
	</g>
</g>
<g>
	<path fill="#FFFFFF" d="M99.858,844.154c0.69,9.332-6.312,17.455-15.636,18.146l0,0c-9.333,0.68-17.462-6.322-18.145-15.65
		L55.802,707.564c-0.689-9.328,6.312-17.455,15.643-18.141l0,0c9.333-0.689,17.453,6.309,18.142,15.645L99.858,844.154z"/>
	<path fill="#FFFFFF" d="M435.696,846.562c-0.869,9.312-9.145,16.148-18.451,15.271l0,0c-9.314-0.877-16.16-9.139-15.279-18.457
		l13.102-138.846c0.885-9.312,9.146-16.156,18.453-15.281l0,0c9.32,0.885,16.152,9.143,15.281,18.461L435.696,846.562z"/>
	<path fill="#FFFFFF" d="M37.085,723.939c0.035-0.266,0.067-0.535,0.097-0.803"/>
	<path fill="#FFFFFF" d="M21.675,732.459c0,0-14.154,3.592-16.508,6.305c0,0-7.25,5.172-4.597,41.117
		c2.22,29.977,13.19,40.633,13.19,40.633l22.875-0.838c0,0,19.747,25.988,20.819,29.027c1.083,3.037-10.297-139.359-10.297-139.359
		S21.629,732.262,21.675,732.459z"/>
	<path fill="#FFFFFF" d="M483.423,740.838c2.934-12.039-5.461-85.969-27.842-123.006c-32.072-53.064-62.816-77.393-62.816-77.393
		v-7.621c0,0-58.379-41.5-145.107-41.5c-79.864,0-120.42,31.652-130.688,40.918l-0.694,8.203c0,0-45.505,30.502-65.255,77.068
		C32.189,661.955,23.49,723.35,23.48,732.592c4.958-2.01,9.823-2.75,13.817-6.668c-0.025-0.115-0.041-0.246-0.016-0.408l0.079-0.805
		c7.377-70.408,28.556-133.676,85.352-174.107l11.787-2.529c12.626-5.25,52.086-33.881,114.234-33.881
		c69.332,0,101.092,18.723,124.285,36.41h12.459c32.629,31.35,62.105,67.229,77.486,121.145c6.469,22.615,7.658,45.539,7.893,53.191
		C473.337,730.205,478.071,738.41,483.423,740.838z"/>
	<path fill="#FFFFFF" d="M496.286,742.248c-4.059-1.607-15.084-5.121-15.084-5.121l-24.215-29.205l-13.441,140.424
		c0,0,14.969-20.268,17.809-24.326c1.471-2.082,23.172-2.049,26.553-1.738c3.357,0.324,8.975-14.045,11.158-37.236
		C501.134,763.123,499.64,743.574,496.286,742.248z"/>
	<path fill="#FFFFFF" d="M265.397,726.225c-26.435,9.414-44.184,37.23-46.66,63.828c0,12.293,0.826,25.781,13.209,31.928
		c21.873,5.309,43.761-4.502,58.636-20.869c15.678-18.008,26.424-40.922,19.41-65.473
		C302.966,717.627,279.024,720.084,265.397,726.225z"/>
	<path fill="#FFFFFF" d="M279.489,562.883c-82.207-0.941-159.217,49.605-195.032,120.965c6.427,2.869,10.889,8.121,11.357,14.428
		l11.214,151.689c0.532,7.172-4.271,13.754-11.703,17.363c29.265,38.846,76.609,63.695,133.123,64.34
		c63.825,0.723,124.536-29.602,165.256-76.592c-0.684-1.982-0.984-4.076-0.779-6.209l14.285-151.428
		c0.961-10.152,12.283-17.391,25.291-16.168c2.359,0.225,4.629,0.721,6.717,1.43C421.435,613.453,359.69,563.783,279.489,562.883z
		 M368.642,730.312c-4.557,52.369-32.232,101.486-80.129,128.898c-20.232,10.234-48.71,22.094-69.775,6.971l-9.098-9.84
		c-3.705,6.977-4.547,16.789-5.362,25.787l-48.724,17.199l40.058-293.418l56.973-17.594c-4.123,39.277-11.984,81.842-16.095,120.717
		c26.427-31.102,67.291-50.332,106.933-37.648C365.333,683.664,369.458,706.984,368.642,730.312z"/>
</g>
<g>
	<path d="M99.858,1335.154c0.69,9.332-6.312,17.455-15.636,18.146l0,0c-9.333,0.68-17.462-6.322-18.145-15.65l-10.276-139.086
		c-0.689-9.328,6.312-17.455,15.643-18.141l0,0c9.333-0.689,17.453,6.309,18.142,15.645L99.858,1335.154z"/>
	<path d="M435.697,1337.562c-0.869,9.312-9.145,16.148-18.451,15.271l0,0c-9.314-0.877-16.16-9.139-15.279-18.457l13.102-138.846
		c0.885-9.312,9.146-16.156,18.453-15.281l0,0c9.32,0.885,16.152,9.143,15.281,18.461L435.697,1337.562z"/>
	<path d="M37.085,1214.939c0.035-0.266,0.067-0.535,0.097-0.803"/>
	<path d="M21.675,1223.459c0,0-14.154,3.592-16.508,6.305c0,0-7.25,5.172-4.597,41.117c2.22,29.977,13.19,40.633,13.19,40.633
		l22.875-0.838c0,0,19.747,25.988,20.819,29.027c1.083,3.037-10.297-139.359-10.297-139.359S21.629,1223.262,21.675,1223.459z"/>
	<path d="M483.424,1231.838c2.934-12.039-5.461-85.969-27.842-123.006c-32.072-53.064-62.816-77.393-62.816-77.393v-7.621
		c0,0-58.379-41.5-145.109-41.5c-79.863,0-120.419,31.652-130.687,40.918l-0.694,8.203c0,0-45.505,30.502-65.255,77.068
		c-18.831,44.447-27.53,105.842-27.54,115.084c4.958-2.01,9.823-2.75,13.817-6.668c-0.025-0.115-0.041-0.246-0.016-0.408
		l0.079-0.805c7.377-70.408,28.556-133.676,85.352-174.107l11.787-2.529c12.626-5.25,52.086-33.881,114.234-33.881
		c69.333,0,101.092,18.723,124.286,36.41h12.459c32.629,31.35,62.105,67.229,77.486,121.145c6.469,22.615,7.658,45.539,7.893,53.191
		C473.338,1221.205,478.072,1229.41,483.424,1231.838z"/>
	<path d="M496.287,1233.248c-4.059-1.607-15.084-5.121-15.084-5.121l-24.215-29.205l-13.441,140.424
		c0,0,14.969-20.268,17.809-24.326c1.471-2.082,23.172-2.049,26.553-1.738c3.357,0.324,8.975-14.045,11.158-37.236
		C501.135,1254.123,499.641,1234.574,496.287,1233.248z"/>
	<path d="M265.398,1217.225c-26.436,9.414-44.185,37.23-46.661,63.828c0,12.293,0.826,25.781,13.209,31.928
		c21.874,5.309,43.762-4.502,58.637-20.869c15.678-18.008,26.424-40.922,19.41-65.473
		C302.967,1208.627,279.025,1211.084,265.398,1217.225z"/>
	<path d="M279.49,1053.883c-82.208-0.941-159.218,49.605-195.033,120.965c6.427,2.869,10.889,8.121,11.357,14.428l11.214,151.689
		c0.532,7.172-4.271,13.754-11.703,17.363c29.265,38.846,76.609,63.695,133.123,64.34c63.826,0.723,124.537-29.602,165.257-76.592
		c-0.684-1.982-0.984-4.076-0.779-6.209l14.285-151.428c0.961-10.152,12.283-17.391,25.291-16.168
		c2.359,0.225,4.629,0.721,6.717,1.43C421.436,1104.453,359.691,1054.783,279.49,1053.883z M368.643,1221.312
		c-4.557,52.369-32.232,101.486-80.129,128.898c-20.232,10.234-48.711,22.094-69.776,6.971l-9.098-9.84
		c-3.705,6.977-4.547,16.789-5.362,25.787l-48.724,17.199l40.058-293.418l56.974-17.594c-4.124,39.277-11.985,81.842-16.096,120.717
		c26.428-31.102,67.292-50.332,106.934-37.648C365.334,1174.664,369.459,1197.984,368.643,1221.312z"/>
</g>
</svg>
