<?xml version="1.0" encoding="utf-8"?>
<!-- Generator: Adobe Illustrator 16.2.1, SVG Export Plug-In . SVG Version: 6.00 Build 0)  -->
<!DOCTYPE svg PUBLIC "-//W3C//DTD SVG 1.1//EN" "http://www.w3.org/Graphics/SVG/1.1/DTD/svg11.dtd">
<svg version="1.1" id="Layer_1" xmlns="http://www.w3.org/2000/svg" xmlns:xlink="http://www.w3.org/1999/xlink" x="0px" y="0px"
	 width="500px" height="75px" viewBox="0 0 500 75" enable-background="new 0 0 500 75" xml:space="preserve">
<g>
	<g>
		<path fill="#231F20" d="M0.047,2.756h34.742c6.614,0,12.931,0.396,17.175,2.172c9.278,3.947,12.041,13.424,12.041,20.137
			c0,2.663-0.296,8.882-5.33,14.014c-2.763,2.963-5.725,4.047-8.981,5.33L66.67,72.537H42.192L28.67,47.963h-6.514v24.574H0.047
			V2.756z M22.156,17.365V33.65h9.178c3.653,0,10.66-0.197,10.66-8.093c0-7.996-6.909-8.192-10.758-8.192H22.156z"/>
		<path fill="#231F20" d="M69.238,36.808c0.789-4.343,1.875-9.771,9.179-13.62c5.724-2.962,13.029-3.455,18.359-3.455
			c24.279,0,24.279,12.535,24.279,18.655v27.833c0,3.355,0.296,4.246,1.777,6.316h-20.036V68.59
			c-2.567,1.777-7.305,5.133-16.879,5.133c-12.831,0-18.458-7.797-18.458-16.482c0-3.061,0.691-7.305,4.344-10.955
			c4.639-4.738,10.166-5.529,19.148-6.713c5.625-0.791,7.797-1.284,10.856-2.17c-0.099-3.456-1.085-5.824-6.908-5.824
			c-4.639,0-5.922,1.184-6.613,4.738L69.238,36.808z M95.69,50.727c-1.678,0.395-3.455,0.789-5.232,1.381
			c-3.947,1.58-4.145,3.949-4.145,4.541c0,1.381,1.184,3.949,5.034,3.949c2.862,0,7.599-1.877,9.376-5.824
			c0.986-2.172,0.986-4.244,0.986-6.021C99.736,49.443,97.762,50.133,95.69,50.727z"/>
		<path fill="#231F20" d="M162.413,2.855h20.331v69.682h-19.739v-3.75c-1.383,1.58-2.369,2.666-5.232,3.75
			c-2.861,1.088-5.625,1.285-7.698,1.285c-14.607,0-22.998-11.941-22.998-28.031c0-17.865,11.154-25.859,22.307-25.859
			c7.698,0,10.955,3.157,13.029,5.033V2.855z M155.108,59.115c1.875,0,3.751-0.887,5.133-2.27c2.664-2.766,2.664-7.502,2.664-10.068
			c0-2.172-0.098-4.342-0.789-6.416c-1.48-4.835-5.231-5.922-7.106-5.922c-0.69,0-5.527,0-7.304,6.418
			c-0.395,1.775-0.592,3.65-0.592,6.02c0,5.824,1.48,8.586,2.862,10.066C151.259,58.324,153.134,59.115,155.108,59.115z"/>
		<path fill="#231F20" d="M191.037,2.855h20.333v13.522h-20.333V2.855z M191.037,21.41h20.333v51.127h-20.333V21.41z"/>
		<path fill="#231F20" d="M269.309,26.644c4.834,4.638,7.994,12.337,7.994,20.431c0,16.088-11.154,27.439-30.498,27.439
			c-20.631,0-29.119-13.424-29.119-27.143c0-16.779,11.352-28.23,30.205-28.131C258.254,19.338,265.359,22.893,269.309,26.644z
			 M237.92,46.777c0,4.936,1.186,13.523,9.477,13.523c7.107,0,9.375-6.021,9.375-13.721c0-3.061-0.197-13.325-9.474-13.029
			C239.6,33.75,237.92,41.053,237.92,46.777z"/>
		<path fill="#003976" d="M283.818,2.855h41.258c4.342,0.197,12.436,0.492,17.666,5.627c3.158,2.959,4.736,7.6,4.736,12.041
			c0,5.131-2.168,9.475-4.934,12.238c-1.875,1.875-3.652,2.665-5.922,3.75c2.863,0.791,5.43,1.48,8.193,4.245
			c3.947,3.85,4.639,8.391,4.639,11.846c0,5.23-1.58,10.658-5.133,14.213c-5.232,5.33-12.436,5.527-17.865,5.723h-42.639V2.855z
			 M305.73,44.016v13.52h13.818c1.973-0.098,4.047-0.197,5.725-2.072c1.084-1.086,1.775-2.762,1.775-4.541
			c0-6.514-5.922-6.809-7.996-6.906H305.73z M305.83,17.562v11.845h12.141c2.072,0,7.203,0,7.203-5.824
			c0-5.724-4.738-5.921-6.711-6.021H305.83z"/>
		<path fill="#003976" d="M356.561,2.855h23.688c15.596,0.197,25.662,0.297,33.854,7.995c7.207,6.711,9.674,16.681,9.674,26.551
			c0,14.706-5.527,28.624-19.541,33.26c-5.627,1.875-11.844,1.875-18.654,1.875h-29.02V2.855z M378.67,19.141v37.408h8.389
			c3.158-0.197,6.219-0.295,9.279-3.258c3.355-3.158,5.23-9.08,5.23-15.592c0-4.048-0.691-7.404-1.775-10.265
			c-2.961-7.896-8.488-8.096-12.834-8.293H378.67z"/>
		<path fill="#003976" d="M499.953,54.574c-1.777,3.357-3.457,6.516-6.811,9.871c-7.105,7.008-17.076,10.266-27.045,10.266
			c-24.873,0-36.123-18.754-36.123-36.62c0-18.753,12.533-37.802,36.123-37.802c10.561,0,20.629,3.75,27.932,11.252
			c2.961,3.059,4.344,5.428,5.822,8.192l-18.457,9.18c-1.775-4.146-5.131-11.548-14.408-11.548c-4.838,0-7.896,2.27-9.377,3.751
			c-5.23,5.032-5.23,12.928-5.23,15.692c0,10.366,3.848,20.135,14.707,20.135c10.264,0,13.322-9.08,14.113-11.449L499.953,54.574z"
			/>
	</g>
</g>
<g>
	<g>
		<path fill="#FFFFFF" d="M0.047,127.757h34.742c6.614,0,12.931,0.396,17.175,2.172c9.278,3.947,12.041,13.424,12.041,20.137
			c0,2.663-0.296,8.882-5.33,14.014c-2.763,2.962-5.725,4.047-8.981,5.33l16.977,28.129H42.192L28.67,172.964h-6.514v24.574H0.047
			V127.757z M22.156,142.366v16.285h9.178c3.653,0,10.66-0.197,10.66-8.093c0-7.996-6.909-8.192-10.758-8.192H22.156z"/>
		<path fill="#FFFFFF" d="M69.238,161.81c0.789-4.344,1.875-9.771,9.179-13.62c5.724-2.962,13.029-3.455,18.359-3.455
			c24.279,0,24.279,12.535,24.279,18.655v27.832c0,3.355,0.296,4.245,1.777,6.316h-20.036v-3.947
			c-2.567,1.776-7.305,5.133-16.879,5.133c-12.831,0-18.458-7.798-18.458-16.482c0-3.061,0.691-7.305,4.344-10.956
			c4.639-4.737,10.166-5.528,19.148-6.712c5.625-0.791,7.797-1.283,10.856-2.171c-0.099-3.455-1.085-5.823-6.908-5.823
			c-4.639,0-5.922,1.184-6.613,4.738L69.238,161.81z M95.69,175.727c-1.678,0.396-3.455,0.789-5.232,1.382
			c-3.947,1.579-4.145,3.948-4.145,4.541c0,1.381,1.184,3.948,5.034,3.948c2.862,0,7.599-1.876,9.376-5.823
			c0.986-2.172,0.986-4.244,0.986-6.021C99.736,174.443,97.762,175.134,95.69,175.727z"/>
		<path fill="#FFFFFF" d="M162.413,127.856h20.331v69.682h-19.739v-3.75c-1.383,1.579-2.369,2.666-5.232,3.75
			c-2.861,1.087-5.625,1.284-7.698,1.284c-14.607,0-22.998-11.941-22.998-28.03c0-17.865,11.154-25.859,22.307-25.859
			c7.698,0,10.955,3.157,13.029,5.033V127.856z M155.108,184.115c1.875,0,3.751-0.887,5.133-2.269
			c2.664-2.766,2.664-7.502,2.664-10.068c0-2.172-0.098-4.342-0.789-6.416c-1.48-4.835-5.231-5.922-7.106-5.922
			c-0.69,0-5.527,0-7.304,6.417c-0.395,1.776-0.592,3.651-0.592,6.021c0,5.823,1.48,8.586,2.862,10.065
			C151.259,183.325,153.134,184.115,155.108,184.115z"/>
		<path fill="#FFFFFF" d="M191.037,127.856h20.333v13.522h-20.333V127.856z M191.037,146.411h20.333v51.127h-20.333V146.411z"/>
		<path fill="#FFFFFF" d="M269.309,151.645c4.834,4.638,7.994,12.337,7.994,20.431c0,16.088-11.154,27.438-30.498,27.438
			c-20.63,0-29.119-13.423-29.119-27.143c0-16.778,11.352-28.229,30.205-28.13C258.254,144.339,265.359,147.894,269.309,151.645z
			 M237.92,171.778c0,4.936,1.186,13.522,9.476,13.522c7.107,0,9.375-6.021,9.375-13.72c0-3.061-0.197-13.325-9.475-13.029
			C239.6,158.751,237.92,166.054,237.92,171.778z"/>
		<path fill="#FFFFFF" d="M283.818,127.856h41.258c4.342,0.197,12.436,0.492,17.666,5.627c3.158,2.959,4.736,7.6,4.736,12.041
			c0,5.131-2.168,9.475-4.934,12.238c-1.875,1.875-3.652,2.665-5.922,3.75c2.863,0.79,5.43,1.48,8.193,4.244
			c3.947,3.85,4.639,8.391,4.639,11.846c0,5.23-1.58,10.658-5.133,14.213c-5.232,5.33-12.436,5.527-17.865,5.723h-42.639V127.856z
			 M305.73,169.016v13.521h13.818c1.973-0.098,4.047-0.197,5.725-2.072c1.084-1.086,1.775-2.763,1.775-4.541
			c0-6.514-5.922-6.81-7.996-6.907H305.73z M305.83,142.562v11.845h12.141c2.072,0,7.203,0,7.203-5.824
			c0-5.724-4.738-5.921-6.711-6.021H305.83z"/>
		<path fill="#FFFFFF" d="M356.561,127.856h23.688c15.596,0.197,25.662,0.297,33.854,7.995c7.207,6.711,9.674,16.681,9.674,26.551
			c0,14.706-5.527,28.623-19.541,33.261c-5.627,1.875-11.844,1.875-18.654,1.875h-29.02V127.856z M378.67,144.142v37.408h8.389
			c3.158-0.197,6.219-0.296,9.279-3.258c3.355-3.158,5.23-9.08,5.23-15.593c0-4.048-0.691-7.403-1.775-10.265
			c-2.961-7.896-8.488-8.096-12.834-8.293H378.67z"/>
		<path fill="#FFFFFF" d="M499.953,179.575c-1.777,3.357-3.457,6.516-6.811,9.871c-7.105,7.008-17.076,10.265-27.045,10.265
			c-24.873,0-36.123-18.753-36.123-36.618c0-18.754,12.533-37.803,36.123-37.803c10.561,0,20.629,3.75,27.932,11.252
			c2.961,3.059,4.344,5.428,5.822,8.192l-18.457,9.18c-1.775-4.146-5.131-11.548-14.408-11.548c-4.838,0-7.896,2.27-9.377,3.751
			c-5.23,5.032-5.23,12.928-5.23,15.692c0,10.365,3.848,20.134,14.707,20.134c10.264,0,13.322-9.079,14.113-11.448L499.953,179.575z
			"/>
	</g>
</g>
<g>
	<g>
		<path d="M0.023,252.757h34.742c6.614,0,12.931,0.396,17.175,2.172c9.278,3.947,12.041,13.424,12.041,20.137
			c0,2.663-0.296,8.882-5.33,14.014c-2.763,2.962-5.725,4.047-8.981,5.33l16.977,28.129H42.168l-13.522-24.574h-6.514v24.574H0.023
			V252.757z M22.133,267.366v16.285h9.178c3.653,0,10.66-0.197,10.66-8.093c0-7.996-6.909-8.192-10.758-8.192H22.133z"/>
		<path d="M69.215,286.81c0.789-4.344,1.875-9.771,9.179-13.62c5.724-2.962,13.029-3.455,18.359-3.455
			c24.279,0,24.279,12.535,24.279,18.655v27.832c0,3.355,0.296,4.245,1.777,6.316h-20.036v-3.947
			c-2.567,1.776-7.305,5.133-16.879,5.133c-12.831,0-18.458-7.798-18.458-16.482c0-3.061,0.691-7.305,4.344-10.956
			c4.639-4.737,10.166-5.528,19.148-6.712c5.625-0.791,7.797-1.283,10.856-2.171c-0.099-3.455-1.085-5.823-6.908-5.823
			c-4.639,0-5.922,1.184-6.613,4.738L69.215,286.81z M95.667,300.727c-1.678,0.396-3.455,0.789-5.232,1.382
			c-3.947,1.579-4.145,3.948-4.145,4.541c0,1.381,1.184,3.948,5.034,3.948c2.862,0,7.599-1.876,9.376-5.823
			c0.986-2.172,0.986-4.244,0.986-6.021C99.713,299.443,97.739,300.134,95.667,300.727z"/>
		<path d="M162.39,252.856h20.331v69.682h-19.739v-3.75c-1.383,1.579-2.369,2.666-5.232,3.75c-2.861,1.087-5.625,1.284-7.698,1.284
			c-14.607,0-22.998-11.941-22.998-28.03c0-17.865,11.154-25.859,22.307-25.859c7.698,0,10.955,3.157,13.029,5.033V252.856z
			 M155.085,309.115c1.875,0,3.751-0.887,5.133-2.269c2.664-2.766,2.664-7.502,2.664-10.068c0-2.172-0.098-4.342-0.789-6.416
			c-1.48-4.835-5.231-5.922-7.106-5.922c-0.69,0-5.527,0-7.304,6.417c-0.395,1.776-0.592,3.651-0.592,6.021
			c0,5.823,1.48,8.586,2.862,10.065C151.236,308.325,153.11,309.115,155.085,309.115z"/>
		<path d="M191.014,252.856h20.333v13.522h-20.333V252.856z M191.014,271.411h20.333v51.127h-20.333V271.411z"/>
		<path d="M269.285,276.645c4.834,4.638,7.994,12.337,7.994,20.431c0,16.088-11.154,27.438-30.498,27.438
			c-20.631,0-29.119-13.423-29.119-27.143c0-16.778,11.352-28.229,30.205-28.13C258.23,269.339,265.336,272.894,269.285,276.645z
			 M237.897,296.778c0,4.936,1.186,13.522,9.477,13.522c7.107,0,9.375-6.021,9.375-13.72c0-3.061-0.197-13.325-9.474-13.029
			C239.577,283.751,237.897,291.054,237.897,296.778z"/>
		<path d="M283.795,252.856h41.258c4.342,0.197,12.436,0.492,17.666,5.627c3.158,2.959,4.736,7.6,4.736,12.041
			c0,5.131-2.168,9.475-4.934,12.238c-1.875,1.875-3.652,2.665-5.922,3.75c2.863,0.79,5.43,1.48,8.193,4.244
			c3.947,3.85,4.639,8.391,4.639,11.846c0,5.23-1.58,10.658-5.133,14.213c-5.232,5.33-12.436,5.527-17.865,5.723h-42.639V252.856z
			 M305.707,294.016v13.521h13.818c1.973-0.098,4.047-0.197,5.725-2.072c1.084-1.086,1.775-2.763,1.775-4.541
			c0-6.514-5.922-6.81-7.996-6.907H305.707z M305.807,267.562v11.845h12.141c2.072,0,7.203,0,7.203-5.824
			c0-5.724-4.738-5.921-6.711-6.021H305.807z"/>
		<path d="M356.537,252.856h23.688c15.596,0.197,25.662,0.297,33.854,7.995c7.207,6.711,9.674,16.681,9.674,26.551
			c0,14.706-5.527,28.623-19.541,33.261c-5.627,1.875-11.844,1.875-18.654,1.875h-29.02V252.856z M378.646,269.142v37.408h8.389
			c3.158-0.197,6.219-0.296,9.279-3.258c3.355-3.158,5.23-9.08,5.23-15.593c0-4.048-0.691-7.403-1.775-10.265
			c-2.961-7.896-8.488-8.096-12.834-8.293H378.646z"/>
		<path d="M499.93,304.575c-1.777,3.357-3.457,6.516-6.811,9.871c-7.105,7.008-17.076,10.265-27.045,10.265
			c-24.873,0-36.123-18.753-36.123-36.618c0-18.754,12.533-37.803,36.123-37.803c10.561,0,20.629,3.75,27.932,11.252
			c2.961,3.059,4.344,5.428,5.822,8.192l-18.457,9.18c-1.775-4.146-5.131-11.548-14.408-11.548c-4.838,0-7.896,2.27-9.377,3.751
			c-5.23,5.032-5.23,12.928-5.23,15.692c0,10.365,3.848,20.134,14.707,20.134c10.264,0,13.322-9.079,14.113-11.448L499.93,304.575z"
			/>
	</g>
</g>
</svg>
