<svg width="500" height="500" xmlns="http://www.w3.org/2000/svg" xmlns:sketch="http://www.bohemiancoding.com/sketch/ns"><title>bug-red</title><desc>Created with Sketch.</desc><g sketch:type="MSLayerGroup" fill="#9B1417"><path d="M250.014 500.063c138.07 0 249.986-111.977 249.986-250.063 0-138.086-111.916-250.063-249.986-250.063-138.046 0-250.014 111.977-250.014 250.063 0 138.086 111.968 250.063 250.014 250.063zm-83.244-436.746h72.813l-16.542 122.371h.957c19.725-24.027 48.998-32.699 79.096-32.699 67.023 0 99.299 63.363 90.119 132.371-10.033 75.133-63.254 128.281-133.139 128.281-33.031 0-58.36-20.961-67.137-38.848h-.979l-4.352 32.684h-66.968l46.13-344.16z" sketch:type="MSShapeGroup"/><path d="M254.055 346.176c36.387 0 61.656-25.57 66.598-62.848 5.037-37.32-13.42-62.898-49.842-62.898-36.406 0-61.644 25.566-66.631 62.898-4.98 37.277 13.448 62.848 49.875 62.848z" sketch:type="MSShapeGroup"/></g></svg>