<?xml version="1.0" encoding="UTF-8"?>
<svg width="500px" height="500px" viewBox="0 0 500 500" version="1.1" xmlns="http://www.w3.org/2000/svg" xmlns:xlink="http://www.w3.org/1999/xlink">
    <!-- Generator: Sketch 42 (36781) - http://www.bohemiancoding.com/sketch -->
    <title>bcom-bug-white</title>
    <desc>Created with Sketch.</desc>
    <defs></defs>
    <g id="bug" stroke="none" stroke-width="1" fill="none" fill-rule="evenodd">
        <g id="bcom-bug-white" fill="#FFFFFF">
            <g>
                <path d="M250.01368,500.0625 C111.96778,500.0625 0,388.08594 0,250 C0,111.91406 111.96778,-0.0625 250.01368,-0.0625 C388.08398,-0.0625 500,111.91406 500,250 C500,388.08594 388.08398,500.0625 250.01368,500.0625 Z M166.76954,63.3164 L120.63964,407.47656 L187.60742,407.47656 L191.95898,374.79296 L192.9375,374.79296 C201.71386,392.67968 227.04298,413.64062 260.07422,413.64062 C329.959,413.64062 383.1797,360.4922 393.2129,285.35938 C402.39258,216.35156 370.1172,152.98828 303.09376,152.98828 C272.9961,152.98828 243.72266,161.66016 223.99806,185.6875 L223.04102,185.6875 L239.58302,63.3164 L166.76954,63.3164 Z" id="Shape"></path>
                <path d="M254.05468,346.17578 C290.4414,346.17578 315.71092,320.60546 320.65234,283.32812 C325.68944,246.0078 307.23242,220.42968 270.81054,220.42968 C234.4043,220.42968 209.16698,245.99608 204.17968,283.32812 C199.19922,320.60546 217.62792,346.17578 254.05468,346.17578 L254.05468,346.17578 Z" id="Path"></path>
            </g>
        </g>
    </g>
</svg>