<?xml version="1.0" encoding="UTF-8"?>
<svg width="500px" height="500px" viewBox="0 0 500 500" version="1.1" xmlns="http://www.w3.org/2000/svg" xmlns:xlink="http://www.w3.org/1999/xlink">
    <!-- Generator: Sketch 42 (36781) - http://www.bohemiancoding.com/sketch -->
    <title>bcom-bug-red</title>
    <desc>Created with Sketch.</desc>
    <defs></defs>
    <g id="bug" stroke="none" stroke-width="1" fill="none" fill-rule="evenodd">
        <g id="bcom-bug-red" fill="#9B1518">
            <g transform="translate(0.000000, -1.000000)">
                <path d="M250.01368,501.0625 C111.96778,501.0625 0,389.08594 0,251 C0,112.91406 111.96778,0.9375 250.01368,0.9375 C388.08398,0.9375 500,112.91406 500,251 C500,389.08594 388.08398,501.0625 250.01368,501.0625 Z M166.76954,64.3164 L120.63964,408.47656 L187.60742,408.47656 L191.95898,375.79296 L192.9375,375.79296 C201.71386,393.67968 227.04298,414.64062 260.07422,414.64062 C329.959,414.64062 383.1797,361.4922 393.2129,286.35938 C402.39258,217.35156 370.1172,153.98828 303.09376,153.98828 C272.9961,153.98828 243.72266,162.66016 223.99806,186.6875 L223.04102,186.6875 L239.58302,64.3164 L166.76954,64.3164 Z" id="Shape"></path>
                <path d="M254.05468,347.17578 C290.4414,347.17578 315.71092,321.60546 320.65234,284.32812 C325.68944,247.0078 307.23242,221.42968 270.81054,221.42968 C234.4043,221.42968 209.16698,246.99608 204.17968,284.32812 C199.19922,321.60546 217.62792,347.17578 254.05468,347.17578 L254.05468,347.17578 Z" id="Path"></path>
            </g>
        </g>
    </g>
</svg>