<svg width="500" height="70" xmlns="http://www.w3.org/2000/svg" xmlns:sketch="http://www.bohemiancoding.com/sketch/ns"><title>logo-color</title><desc>Created with Sketch.</desc><g sketch:type="MSLayerGroup" fill="none"><path d="M428.488 18.96h13.903l-.899 6.668h.195c2.448-3.334 7.721-7.809 14.768-7.809 6.564.002 11.586 2.905 13.299 8.901 4.219-6.299 9.098-8.811 16.051-8.809 12.742 0 15.338 9.674 13.736 21.664l-3.897 29.391h-14.478l3.842-28.969c.605-4.572-.518-8.539-5.25-8.539-6.658 0-9.446 5.139-10.26 11.236l-3.49 26.272h-14.479l3.485-26.326c.494-3.66 1.673-11.184-4.985-11.184-7.529 0-9.517 6.357-10.373 12.76l-3.285 24.75h-14.482l6.599-50.006" fill="#2494E3" sketch:type="MSShapeGroup"/><path d="M397.48 17.931c14.479.002 24.705 10.163 22.602 25.916-2.107 15.748-15.045 25.912-29.529 25.91-14.479 0-24.705-10.166-22.6-25.916 2.104-15.752 15.045-25.91 29.527-25.91zm-5.132 38.41c7.24 0 12.263-5.08 13.25-12.494.996-7.422-2.672-12.502-9.914-12.502-7.241 0-12.262 5.078-13.25 12.496-.994 7.42 2.671 12.5 9.914 12.5z" fill="#2494E3" sketch:type="MSShapeGroup"/><path d="M358.506 35.101c-1.162-2.135-3.649-3.759-6.645-3.761-7.24 0-12.261 5.079-13.252 12.499-.994 7.416 2.676 12.498 9.916 12.498 3.186 0 5.731-1.727 7.645-3.76l8.148 10.572c-5.191 4.877-12.082 6.606-17.584 6.604-14.482 0-24.709-10.168-22.605-25.916 2.105-15.752 15.047-25.911 29.527-25.909 5.504 0 11.932 1.729 15.819 6.604l-10.969 10.569" fill="#2494E3" sketch:type="MSShapeGroup"/><path d="M316.728 53.253c1.76 2.178 2.305 5.642 1.209 8.254-1.091 2.812-3.722 5.424-6.57 6.396-2.408 1.09-5.59.653-7.89-.541-2.516-1.738-3.499-4.342-3.278-7.383.102-3.683 3.065-6.943 6.241-8.462 3.396-1.409 7.775-.862 10.288 1.736" fill="#9B1417" sketch:type="MSShapeGroup"/><path d="M253.344 19.356l13.904-.216-.898 6.488h.195c2.447-3.334 7.721-7.817 14.765-7.817 14.674.002 16.018 10.217 14.256 23.428l-3.64 27.262-14.481.012 3.231-24.178c.763-5.69 1.642-13.002-5.791-13.005-7.532 0-9.516 6.423-10.373 12.823l-3.284 24.813h-14.481l6.597-49.61" fill="#2494E3" sketch:type="MSShapeGroup"/><path d="M222.333 17.916c14.481.001 24.709 10.161 22.603 25.913-2.103 15.75-15.045 25.914-29.526 25.912-14.48-.002-24.708-10.168-22.603-25.914 2.105-15.754 15.045-25.914 29.526-25.911zm-5.128 38.407c7.238.002 12.261-5.078 13.252-12.494.99-7.42-2.673-12.5-9.915-12.5-7.241 0-12.265 5.078-13.254 12.498-.992 7.416 2.674 12.496 9.917 12.496z" fill="#2494E3" sketch:type="MSShapeGroup"/><path d="M191.297 31.327l-12.742-.002-2.202 16.461c-.704 5.285-.641 9.143 5.634 9.145 1.545 0 4.662-.202 6.077-1.422l-1.696 12.703c-3.348 1.223-6.959 1.525-10.34 1.525-9.652 0-16.527-4.238-15.089-15.008l3.134-23.545h-9.266l1.628-12.224h9.268l3.202-18.96 14.481.044-3.203 19.064 12.741.012-1.627 12.207" fill="#2494E3" sketch:type="MSShapeGroup"/><path d="M143.303 33.66c-1.758-2.745-4.368-4.168-7.843-4.168-2.413 0-5.459 1.118-5.852 4.062-.978 7.32 24.275 1.123 21.762 19.92-1.683 12.603-13.756 16.261-23.794 16.259-6.564 0-13.574-1.728-17.541-6.713l10.154-10.257c2.241 3.455 5.171 5.384 9.514 5.386 3.281 0 6.685-.92 7.039-3.558 1.06-7.926-24.259-1.221-21.749-20.02 1.547-11.582 12.071-16.666 21.92-16.666 6.177.002 12.814 1.629 16.506 6.509l-10.116 9.246" fill="#2494E3" sketch:type="MSShapeGroup"/><path d="M88.17 17.903c14.481 0 24.706 10.164 22.602 25.914-2.103 15.748-15.043 25.914-29.526 25.912-14.479 0-24.707-10.168-22.603-25.916 2.105-15.753 15.047-25.912 29.527-25.91zm-5.13 38.408c7.239.002 12.263-5.078 13.254-12.494.991-7.419-2.675-12.5-9.915-12.5-7.242-.002-12.265 5.078-13.255 12.496-.99 7.416 2.675 12.498 9.916 12.498z" fill="#2494E3" sketch:type="MSShapeGroup"/><path d="M9.224.302l14.481-.057-3.295 24.272h.193c3.92-4.446 9.749-6.563 15.734-6.561 13.323 0 19.748 12.574 17.917 26.289-1.995 14.941-12.581 25.645-26.481 25.643-6.565 0-11.608-4.254-13.351-7.588h-.194l-.868 6.666h-13.322l9.186-68.664zm17.348 56.008c7.241 0 12.264-5.083 13.254-12.499.993-7.419-2.674-12.5-9.916-12.5-7.238 0-12.259 5.079-13.253 12.499-.99 7.416 2.677 12.498 9.915 12.5z" fill="#2494E3" sketch:type="MSShapeGroup"/></g></svg>