<?xml version="1.0" encoding="UTF-8"?>
<svg width="500px" height="130px" viewBox="0 0 500 130" version="1.1" xmlns="http://www.w3.org/2000/svg" xmlns:xlink="http://www.w3.org/1999/xlink">
    <!-- Generator: Sketch 42 (36781) - http://www.bohemiancoding.com/sketch -->
    <title>realestate-logo-black</title>
    <desc>Created with Sketch.</desc>
    <defs>
        <polygon id="path-1" points="47.8970235 53.7667517 47.8970235 2.35781959 0.675785781 2.35781959 0.675785781 53.7667517"></polygon>
    </defs>
    <g id="Page-1" stroke="none" stroke-width="1" fill="none" fill-rule="evenodd">
        <g id="realestate-logo-black">
            <g>
                <g id="Page-1-Copy-2">
                    <path d="M35.5066349,39.0499241 C41.9058423,39.0499241 47.4624668,33.4180467 47.4624668,26.5611988 C47.4624668,20.0753275 41.9058423,14.6899381 35.5066349,14.6899381 L15.8201672,14.6899381 L15.8201672,39.0499241 L35.5066349,39.0499241 Z M0.000245650955,2.32570145 C0.000245650955,1.10322055 0.965653908,0.00024897778 2.29462558,0.00024897778 L36.8356066,0.00024897778 C51.3265564,0.00024897778 63.1620194,11.7520003 63.1620194,26.3196901 C63.1620194,37.5809552 55.7949472,46.760766 45.2884559,51.0431839 L61.8355043,82.1355292 C62.6805436,83.7240076 61.8355043,85.6834626 59.7818622,85.6834626 L47.1013599,85.6834626 C46.0131263,85.6834626 45.408825,85.0709773 45.168087,84.5854707 L29.1049709,52.1461554 L15.6997983,52.1461554 L15.6997983,83.3604998 C15.6997983,84.5854707 14.614021,85.6834626 13.4054183,85.6834626 L2.29462558,85.6834626 C0.965653908,85.6834626 0.000245650955,84.5854707 0.000245650955,83.3604998 L0.000245650955,2.32570145 Z" id="Fill-1" fill="#000000" fill-rule="nonzero"></path>
                    <path d="M102.410655,55.0825995 C102.049548,50.5561833 98.1830023,46.7592723 93.5942426,46.7592723 C88.7622883,46.7592723 84.7778298,50.4341842 84.1735283,55.0825995 L102.410655,55.0825995 Z M93.9578059,35.5004969 C106.39757,35.5004969 116.540498,45.0463051 116.540498,58.2670252 C116.540498,59.1235088 116.420129,60.7144768 116.29976,61.5709604 C116.176935,62.7959311 115.091158,63.6499248 114.005381,63.6499248 L83.087751,63.6499248 C83.4488582,68.669317 87.676511,74.3011944 94.6824763,74.3011944 C98.4237403,74.3011944 101.926723,72.8322255 104.100734,71.2412574 C105.309337,70.506773 106.39757,70.2627747 107.240153,71.2412574 L112.192477,76.9951339 C113.039972,77.8516175 113.28071,79.1985873 112.072107,80.17707 C108.087649,83.9739813 101.926723,86.9094292 94.078175,86.9094292 C79.5847686,86.9094292 69.3190151,75.2821667 69.3190151,61.204963 C69.3190151,47.3717576 79.5847686,35.5004969 93.9578059,35.5004969 L93.9578059,35.5004969 Z" id="Fill-3" fill="#000000" fill-rule="nonzero"></path>
                    <path d="M142.747525,76.5034028 C146.611615,76.5034028 150.355335,73.2019575 151.080005,71.7329885 L151.080005,64.9981395 C151.080005,64.9981395 147.820217,63.5291706 144.317234,63.5291706 C139.608106,63.5291706 136.46623,66.2231104 136.46623,70.1395306 C136.46623,73.8119529 139.003804,76.5034028 142.747525,76.5034028 M142.504331,54.717847 C147.336285,54.717847 151.320743,56.0648168 151.320743,56.0648168 C151.443569,49.8204539 149.510296,47.6170005 145.041905,47.6170005 C140.573514,47.6170005 134.294676,48.5954833 131.516363,49.4519669 C129.823828,49.942453 128.978789,48.8419714 128.738051,47.2485135 L127.649817,40.8821517 C127.28871,39.0496753 128.254119,38.1907018 129.339896,37.8247044 C130.30776,37.4562174 138.038396,35.4992519 145.766575,35.4992519 C160.864283,35.4992519 164.364809,43.456582 164.364809,56.7993013 L164.364809,83.360251 C164.364809,84.5852216 163.279032,85.6857035 162.070429,85.6857035 L157.722407,85.6857035 C156.877368,85.6857035 156.273067,85.3197061 155.668765,83.9727363 L154.219424,80.6663112 C151.443569,83.2382519 146.975178,86.9106741 139.48528,86.9106741 C129.823828,86.9106741 123.181426,80.5443121 123.181426,70.1395306 C123.181426,61.4477164 130.187392,54.717847 142.504331,54.717847" id="Fill-5" fill="#000000" fill-rule="nonzero"></path>
                    <path d="M178.250475,2.32570145 C178.250475,1.10322055 179.336252,0.00024897778 180.544855,0.00024897778 L190.69024,0.00024897778 C191.898842,0.00024897778 192.984619,1.10322055 192.984619,2.32570145 L192.984619,83.3604998 C192.984619,84.5854707 191.898842,85.6834626 190.69024,85.6834626 L180.544855,85.6834626 C179.336252,85.6834626 178.250475,84.5854707 178.250475,83.3604998 L178.250475,2.32570145 Z" id="Fill-7" fill="#000000" fill-rule="nonzero"></path>
                    <path d="M209.6513,2.32570145 C209.6513,1.10322055 210.616708,0.00024897778 211.94568,0.00024897778 L261.100436,0.00024897778 C262.429408,0.00024897778 263.39236,1.10322055 263.39236,2.32570145 L263.39236,12.3619958 C263.39236,13.5869665 262.429408,14.6899381 261.100436,14.6899381 L225.350852,14.6899381 L225.350852,34.7650165 L255.182704,34.7650165 C256.388849,34.7650165 257.477084,35.8654984 257.477084,37.090469 L257.477084,47.2487625 C257.477084,48.5957323 256.388849,49.5767047 255.182704,49.5767047 L225.350852,49.5767047 L225.350852,70.9987531 L261.100436,70.9987531 C262.429408,70.9987531 263.39236,72.0967451 263.39236,73.3242056 L263.39236,83.3604998 C263.39236,84.5854707 262.429408,85.6834626 261.100436,85.6834626 L211.94568,85.6834626 C210.616708,85.6834626 209.6513,84.5854707 209.6513,83.3604998 L209.6513,2.32570145 Z" id="Fill-9" fill="#000000" fill-rule="nonzero"></path>
                    <path d="M272.331844,79.8103257 L275.591633,73.2024553 C276.073107,71.9774846 277.284166,71.7334864 278.367487,72.3434821 C278.367487,72.3434821 283.803742,75.2839097 289.360367,75.2839097 C291.775117,75.2839097 293.467651,74.3004475 293.467651,72.218993 C293.467651,70.0155397 291.775117,68.6685699 285.373452,66.101609 C276.073107,62.4291868 271.727541,57.4097948 271.727541,49.9429511 C271.727541,42.4761075 277.163798,35.49975 289.478281,35.49975 C296.604615,35.49975 301.800133,37.5812042 304.332793,39.2941714 C305.423485,40.026166 306.027786,41.3731357 305.423485,42.6005962 L302.401977,48.8424693 C301.800133,49.9429511 300.471161,50.0649503 299.508209,49.6989528 C299.508209,49.6989528 294.071954,47.1270125 289.478281,47.1270125 C286.582056,47.1270125 285.373452,48.3519831 285.373452,49.9429511 C285.373452,52.1464045 287.547464,52.8808889 292.018311,54.7183449 C301.316199,58.3882775 308.319709,62.4291868 308.319709,71.9774846 C308.319709,80.054324 301.316199,86.9111719 289.11963,86.9111719 C281.145798,86.9111719 275.591633,84.3367417 273.056513,82.3822661 C272.331844,81.7697808 271.847911,80.7888084 272.331844,79.8103257" id="Fill-11" fill="#000000" fill-rule="nonzero"></path>
                    <path d="M321.483653,49.57546 L317.376367,49.57546 C316.170222,49.57546 315.202357,48.4749781 315.202357,47.2475176 L315.202357,39.0486794 C315.202357,37.7017094 316.170222,36.7232269 317.376367,36.7232269 L321.483653,36.7232269 L321.483653,23.1365093 C321.483653,21.9140284 322.569429,20.808567 323.780487,20.808567 L333.682679,20.6865679 C334.888824,20.6865679 335.856689,21.7895395 335.856689,23.0120204 L335.856689,36.7232269 L346.483548,36.7232269 C347.81252,36.7232269 348.775472,37.7017094 348.775472,39.0486794 L348.775472,47.2475176 C348.775472,48.4749781 347.81252,49.57546 346.483548,49.57546 L335.856689,49.57546 L335.856689,69.1600523 C335.856689,72.5884762 337.667138,73.0764725 339.597954,73.0764725 C341.651594,73.0764725 344.189171,72.2199889 345.51814,71.7319926 C346.844656,71.2415065 347.81252,71.8539918 348.173628,73.0764725 L350.590834,80.7873145 C351.072309,82.0122851 350.470464,83.2397456 349.261862,83.7252523 C348.657561,84.0937395 340.806556,86.9096782 334.888824,86.9096782 C325.58848,86.9096782 321.483653,81.0362922 321.483653,71.1195073 L321.483653,49.57546 Z" id="Fill-13" fill="#000000" fill-rule="nonzero"></path>
                    <path d="M376.673561,76.5034028 C380.537651,76.5034028 384.28137,73.2019575 385.006041,71.7329885 L385.006041,64.9981395 C385.006041,64.9981395 381.746253,63.5291706 378.245727,63.5291706 C373.534143,63.5291706 370.392265,66.2231104 370.392265,70.1395306 C370.392265,73.8119529 372.929839,76.5034028 376.673561,76.5034028 M376.430367,54.717847 C381.262321,54.717847 385.249235,56.0648168 385.249235,56.0648168 C385.369605,49.8204539 383.436332,47.6170005 378.970398,47.6170005 C374.497094,47.6170005 368.220712,48.5954833 365.442401,49.4519669 C363.749865,49.942453 362.907281,48.8419714 362.664087,47.2485135 L361.575852,40.8821517 C361.214747,39.0496753 362.182612,38.1907018 363.265931,37.8247044 C364.238709,37.4562174 371.964431,35.4992519 379.692612,35.4992519 C394.787862,35.4992519 398.290844,43.456582 398.290844,56.7993013 L398.290844,83.360251 C398.290844,84.5852216 397.205069,85.6857035 395.996464,85.6857035 L391.650901,85.6857035 C390.803403,85.6857035 390.201559,85.3197061 389.597258,83.9727363 L388.147918,80.6663112 C385.369605,83.2382519 380.901214,86.9106741 373.413773,86.9106741 C363.749865,86.9106741 357.107462,80.5443121 357.107462,70.1395306 C357.107462,61.4477164 364.113429,54.717847 376.430367,54.717847" id="Fill-15" fill="#000000" fill-rule="nonzero"></path>
                    <path d="M414.713594,49.57546 L410.606311,49.57546 C409.397707,49.57546 408.432298,48.4749781 408.432298,47.2475176 L408.432298,39.0486794 C408.432298,37.7017094 409.397707,36.7232269 410.606311,36.7232269 L414.713594,36.7232269 L414.713594,23.1365093 C414.713594,21.9140284 415.799372,20.808567 417.007974,20.808567 L426.910163,20.6865679 C428.118768,20.6865679 429.084176,21.7895395 429.084176,23.0120204 L429.084176,36.7232269 L439.713492,36.7232269 C441.042464,36.7232269 442.007872,37.7017094 442.007872,39.0486794 L442.007872,47.2475176 C442.007872,48.4749781 441.042464,49.57546 439.713492,49.57546 L429.084176,49.57546 L429.084176,69.1600523 C429.084176,72.5884762 430.897079,73.0764725 432.830352,73.0764725 C434.883995,73.0764725 437.416656,72.2199889 438.745628,71.7319926 C440.074599,71.2415065 441.042464,71.8539918 441.403571,73.0764725 L443.818319,80.7873145 C444.302253,82.0122851 443.697952,83.2397456 442.491804,83.7252523 C441.887503,84.0937395 434.036497,86.9096782 428.118768,86.9096782 C418.820878,86.9096782 414.713594,81.0362922 414.713594,71.1195073 L414.713594,49.57546 Z" id="Fill-17" fill="#000000" fill-rule="nonzero"></path>
                    <g id="Group-21" transform="translate(449.541250, 33.142677)">
                        <g id="Fill-19-Clipped">
                            <mask id="mask-2" fill="white">
                                <use xlink:href="#path-1"></use>
                            </mask>
                            <g id="path-1"></g>
                            <path d="M33.767426,21.9399221 C33.4038628,17.413506 29.5397732,13.6165948 24.9485568,13.6165948 C20.1215155,13.6165948 16.1346005,17.2915069 15.5302991,21.9399221 L33.767426,21.9399221 Z M25.3145767,2.35781959 C37.7543411,2.35781959 47.8972691,11.9036277 47.8972691,25.1243479 C47.8972691,25.9808314 47.7769,27.5717994 47.6565311,28.428283 C47.5337056,29.6532536 46.4479283,30.5072476 45.3596946,30.5072476 L14.4420654,30.5072476 C14.8056288,35.5266396 19.0332817,41.1585169 26.0392469,41.1585169 C29.780511,41.1585169 33.2834936,39.689548 35.4550482,38.09858 C36.6661074,37.3640955 37.7543411,37.1200973 38.5993804,38.09858 L43.5492472,43.8524565 C44.3942865,44.7089401 44.6350245,46.0559101 43.4313347,47.0343925 C39.4444196,50.8313038 33.2834936,53.7667517 25.4324891,53.7667517 C10.9439957,53.7667517 0.675785781,42.1394895 0.675785781,28.0622856 C0.675785781,14.2290802 10.9439957,2.35781959 25.3145767,2.35781959 L25.3145767,2.35781959 Z" id="Fill-19" fill="#000000" fill-rule="nonzero" mask="url(#mask-2)"></path>
                        </g>
                    </g>
                </g>
                <g id="BY-BOSTON-GLOBE-MEDI" transform="translate(0.000000, 101.960784)" fill="#000000">
                    <path d="M3.18622449,12.0033333 L9.4872449,12.0033333 C11.2780702,12.0033333 12.5658974,11.6885326 13.3507653,11.0589216 C14.1356332,10.4293106 14.5280612,9.48490826 14.5280612,8.22568627 C14.5280612,7.38620495 14.3954095,6.72346648 14.130102,6.23745098 C13.8647946,5.75143548 13.5000023,5.37588368 13.0357143,5.11078431 C12.5714263,4.84568495 12.0352922,4.67447751 11.4272959,4.59715686 C10.8192997,4.51983621 10.1726225,4.48117647 9.4872449,4.48117647 L3.18622449,4.48117647 L3.18622449,12.0033333 Z M0.0357142857,1.83019608 L8.625,1.83019608 C9.13350594,1.83019608 9.68069435,1.8357189 10.2665816,1.84676471 C10.8524689,1.85781051 11.4328203,1.89094744 12.0076531,1.94617647 C12.5824859,2.0014055 13.11862,2.08424781 13.6160714,2.19470588 C14.1135229,2.30516395 14.5391139,2.47084857 14.8928571,2.69176471 C15.6666705,3.15568859 16.3244021,3.79633578 16.8660714,4.61372549 C17.4077408,5.4311152 17.6785714,6.43626855 17.6785714,7.62921569 C17.6785714,8.88843767 17.3745779,9.97643332 16.7665816,10.8932353 C16.1585854,11.8100373 15.290822,12.4893442 14.1632653,12.9311765 L14.1632653,12.997451 C15.6224563,13.3067336 16.7389417,13.969472 17.5127551,14.9856863 C18.2865685,16.0019005 18.6734694,17.2390123 18.6734694,18.6970588 C18.6734694,19.5586318 18.518709,20.3981005 18.2091837,21.2154902 C17.8996583,22.0328799 17.4409044,22.7563694 16.8329082,23.3859804 C16.2249119,24.0155914 15.4732188,24.5236909 14.5778061,24.9102941 C13.6823935,25.2968974 12.6488154,25.4901961 11.4770408,25.4901961 L0.0357142857,25.4901961 L0.0357142857,1.83019608 Z M3.18622449,22.8392157 L11.0790816,22.8392157 C12.4719457,22.8392157 13.5607954,22.4636639 14.3456633,21.712549 C15.1305311,20.9614342 15.5229592,19.9231439 15.5229592,18.5976471 C15.5229592,17.8244406 15.3792531,17.1837934 15.0918367,16.6756863 C14.8044203,16.1675792 14.4230466,15.7644133 13.9477041,15.4661765 C13.4723616,15.1679397 12.9251732,14.9580725 12.3061224,14.8365686 C11.6870717,14.7150648 11.0459217,14.6543137 10.3826531,14.6543137 L3.18622449,14.6543137 L3.18622449,22.8392157 Z M32.5357143,15.8141176 L41.5892857,1.83019608 L38.0076531,1.83019608 L31.0765306,13.0968627 L23.9795918,1.83019608 L20.2321429,1.83019608 L29.3852041,15.8141176 L29.3852041,25.4901961 L32.5357143,25.4901961 L32.5357143,15.8141176 Z M56.6122449,12.0033333 L62.9132653,12.0033333 C64.7040906,12.0033333 65.9919178,11.6885326 66.7767857,11.0589216 C67.5616536,10.4293106 67.9540816,9.48490826 67.9540816,8.22568627 C67.9540816,7.38620495 67.8214299,6.72346648 67.5561224,6.23745098 C67.290815,5.75143548 66.9260227,5.37588368 66.4617347,5.11078431 C65.9974467,4.84568495 65.4613126,4.67447751 64.8533163,4.59715686 C64.2453201,4.51983621 63.5986429,4.48117647 62.9132653,4.48117647 L56.6122449,4.48117647 L56.6122449,12.0033333 Z M53.4617347,1.83019608 L62.0510204,1.83019608 C62.5595264,1.83019608 63.1067148,1.8357189 63.692602,1.84676471 C64.2784893,1.85781051 64.8588407,1.89094744 65.4336735,1.94617647 C66.0085063,2.0014055 66.5446404,2.08424781 67.0420918,2.19470588 C67.5395433,2.30516395 67.9651343,2.47084857 68.3188776,2.69176471 C69.0926909,3.15568859 69.7504225,3.79633578 70.2920918,4.61372549 C70.8337612,5.4311152 71.1045918,6.43626855 71.1045918,7.62921569 C71.1045918,8.88843767 70.8005983,9.97643332 70.192602,10.8932353 C69.5846058,11.8100373 68.7168424,12.4893442 67.5892857,12.9311765 L67.5892857,12.997451 C69.0484767,13.3067336 70.1649621,13.969472 70.9387755,14.9856863 C71.7125889,16.0019005 72.0994898,17.2390123 72.0994898,18.6970588 C72.0994898,19.5586318 71.9447294,20.3981005 71.6352041,21.2154902 C71.3256787,22.0328799 70.8669248,22.7563694 70.2589286,23.3859804 C69.6509323,24.0155914 68.8992392,24.5236909 68.0038265,24.9102941 C67.1084139,25.2968974 66.0748358,25.4901961 64.9030612,25.4901961 L53.4617347,25.4901961 L53.4617347,1.83019608 Z M56.6122449,22.8392157 L64.505102,22.8392157 C65.8979661,22.8392157 66.9868158,22.4636639 67.7716837,21.712549 C68.5565515,20.9614342 68.9489796,19.9231439 68.9489796,18.5976471 C68.9489796,17.8244406 68.8052735,17.1837934 68.5178571,16.6756863 C68.2304407,16.1675792 67.849067,15.7644133 67.3737245,15.4661765 C66.898382,15.1679397 66.3511936,14.9580725 65.7321429,14.8365686 C65.1130921,14.7150648 64.4719421,14.6543137 63.8086735,14.6543137 L56.6122449,14.6543137 L56.6122449,22.8392157 Z M78.002551,13.6601961 C78.002551,14.8531432 78.1573114,16.029504 78.4668367,17.1893137 C78.7763621,18.3491234 79.2627518,19.3929365 79.9260204,20.3207843 C80.589289,21.2486321 81.440471,21.9942129 82.4795918,22.557549 C83.5187127,23.1208852 84.7567955,23.402549 86.1938776,23.402549 C87.6309596,23.402549 88.8690424,23.1208852 89.9081633,22.557549 C90.9472841,21.9942129 91.7984661,21.2486321 92.4617347,20.3207843 C93.1250033,19.3929365 93.611393,18.3491234 93.9209184,17.1893137 C94.2304437,16.029504 94.3852041,14.8531432 94.3852041,13.6601961 C94.3852041,12.4672489 94.2304437,11.2908882 93.9209184,10.1310784 C93.611393,8.97126871 93.1250033,7.92745562 92.4617347,6.99960784 C91.7984661,6.07176007 90.9472841,5.32617929 89.9081633,4.76284314 C88.8690424,4.19950699 87.6309596,3.91784314 86.1938776,3.91784314 C84.7567955,3.91784314 83.5187127,4.19950699 82.4795918,4.76284314 C81.440471,5.32617929 80.589289,6.07176007 79.9260204,6.99960784 C79.2627518,7.92745562 78.7763621,8.97126871 78.4668367,10.1310784 C78.1573114,11.2908882 78.002551,12.4672489 78.002551,13.6601961 Z M74.8520408,13.6601961 C74.8520408,12.0475083 75.0897085,10.4955957 75.565051,9.00441176 C76.0403935,7.51322784 76.7533966,6.19327372 77.7040816,5.0445098 C78.6547667,3.89574589 79.837578,2.97895767 81.252551,2.29411765 C82.6675241,1.60927762 84.3146165,1.26686275 86.1938776,1.26686275 C88.0731386,1.26686275 89.720231,1.60927762 91.1352041,2.29411765 C92.5501771,2.97895767 93.7329884,3.89574589 94.6836735,5.0445098 C95.6343585,6.19327372 96.3473616,7.51322784 96.8227041,9.00441176 C97.2980466,10.4955957 97.5357143,12.0475083 97.5357143,13.6601961 C97.5357143,15.2728839 97.2980466,16.8247965 96.8227041,18.3159804 C96.3473616,19.8071643 95.6343585,21.1271184 94.6836735,22.2758824 C93.7329884,23.4246463 92.5501771,24.3359117 91.1352041,25.0097059 C89.720231,25.6835001 88.0731386,26.0203922 86.1938776,26.0203922 C84.3146165,26.0203922 82.6675241,25.6835001 81.252551,25.0097059 C79.837578,24.3359117 78.6547667,23.4246463 77.7040816,22.2758824 C76.7533966,21.1271184 76.0403935,19.8071643 75.565051,18.3159804 C75.0897085,16.8247965 74.8520408,15.2728839 74.8520408,13.6601961 Z M115.079082,8.75588235 L118.063776,8.75588235 C118.019558,7.45247714 117.770836,6.33134456 117.317602,5.39245098 C116.864368,4.4535574 116.245327,3.67483969 115.460459,3.05627451 C114.675591,2.43770933 113.763611,1.98483804 112.72449,1.69764706 C111.685369,1.41045608 110.557829,1.26686275 109.341837,1.26686275 C108.258498,1.26686275 107.202811,1.40493326 106.174745,1.68107843 C105.146679,1.9572236 104.229171,2.37695797 103.422194,2.94029412 C102.615217,3.50363027 101.96854,4.22159694 101.482143,5.09421569 C100.995746,5.96683443 100.752551,6.99960188 100.752551,8.19254902 C100.752551,9.27503809 100.96811,10.1752578 101.399235,10.8932353 C101.830359,11.6112127 102.405183,12.1966317 103.123724,12.6495098 C103.842265,13.1023879 104.654757,13.466894 105.561224,13.7430392 C106.467692,14.0191844 107.390727,14.2621885 108.330357,14.4720588 C109.269988,14.6819292 110.193023,14.8862735 111.09949,15.085098 C112.005957,15.2839226 112.818449,15.5434951 113.53699,15.8638235 C114.255531,16.1841519 114.830355,16.5983635 115.26148,17.1064706 C115.692604,17.6145777 115.908163,18.2773162 115.908163,19.0947059 C115.908163,19.9562788 115.731294,20.6631999 115.377551,21.2154902 C115.023808,21.7677805 114.559527,22.2040834 113.984694,22.5244118 C113.409861,22.8447402 112.763184,23.0711758 112.044643,23.2037255 C111.326102,23.3362752 110.613099,23.402549 109.905612,23.402549 C109.021254,23.402549 108.159018,23.2920926 107.318878,23.0711765 C106.478737,22.8502603 105.743626,22.5078455 105.11352,22.0439216 C104.483415,21.5799977 103.974917,20.9890559 103.58801,20.2710784 C103.201104,19.553101 103.007653,18.6970638 103.007653,17.7029412 L100.022959,17.7029412 C100.022959,19.1388961 100.282735,20.3815307 100.802296,21.4308824 C101.321856,22.480234 102.029332,23.341794 102.924745,24.0155882 C103.820158,24.6893825 104.859263,25.1919591 106.042092,25.5233333 C107.224921,25.8547075 108.479585,26.0203922 109.806122,26.0203922 C110.889461,26.0203922 111.978311,25.8933673 113.072704,25.6393137 C114.167097,25.3852602 115.156458,24.9765714 116.040816,24.4132353 C116.925174,23.8498991 117.649232,23.1208868 118.21301,22.2261765 C118.776789,21.3314661 119.058673,20.2545161 119.058673,18.9952941 C119.058673,17.8244386 118.843114,16.8524222 118.41199,16.0792157 C117.980865,15.3060092 117.406041,14.665362 116.6875,14.1572549 C115.968959,13.6491478 115.156467,13.2459819 114.25,12.9477451 C113.343533,12.6495083 112.420498,12.3899357 111.480867,12.1690196 C110.541237,11.9481035 109.618202,11.7437591 108.711735,11.5559804 C107.805268,11.3682017 106.992776,11.1307204 106.274235,10.8435294 C105.555694,10.5563384 104.98087,10.1863095 104.549745,9.73343137 C104.11862,9.28055329 103.903061,8.68961149 103.903061,7.96058824 C103.903061,7.18738175 104.052294,6.54121175 104.350765,6.02205882 C104.649236,5.5029059 105.047191,5.08869436 105.544643,4.77941176 C106.042094,4.47012917 106.611391,4.24921635 107.252551,4.11666667 C107.893711,3.98411698 108.545915,3.91784314 109.209184,3.91784314 C110.845246,3.91784314 112.188345,4.29891776 113.23852,5.06107843 C114.288696,5.8232391 114.90221,7.0548281 115.079082,8.75588235 Z M128.244898,4.48117647 L128.244898,25.4901961 L131.395408,25.4901961 L131.395408,4.48117647 L139.288265,4.48117647 L139.288265,1.83019608 L120.352041,1.83019608 L120.352041,4.48117647 L128.244898,4.48117647 Z M143.732143,13.6601961 C143.732143,14.8531432 143.886903,16.029504 144.196429,17.1893137 C144.505954,18.3491234 144.992344,19.3929365 145.655612,20.3207843 C146.318881,21.2486321 147.170063,21.9942129 148.209184,22.557549 C149.248305,23.1208852 150.486387,23.402549 151.923469,23.402549 C153.360551,23.402549 154.598634,23.1208852 155.637755,22.557549 C156.676876,21.9942129 157.528058,21.2486321 158.191327,20.3207843 C158.854595,19.3929365 159.340985,18.3491234 159.65051,17.1893137 C159.960036,16.029504 160.114796,14.8531432 160.114796,13.6601961 C160.114796,12.4672489 159.960036,11.2908882 159.65051,10.1310784 C159.340985,8.97126871 158.854595,7.92745562 158.191327,6.99960784 C157.528058,6.07176007 156.676876,5.32617929 155.637755,4.76284314 C154.598634,4.19950699 153.360551,3.91784314 151.923469,3.91784314 C150.486387,3.91784314 149.248305,4.19950699 148.209184,4.76284314 C147.170063,5.32617929 146.318881,6.07176007 145.655612,6.99960784 C144.992344,7.92745562 144.505954,8.97126871 144.196429,10.1310784 C143.886903,11.2908882 143.732143,12.4672489 143.732143,13.6601961 Z M140.581633,13.6601961 C140.581633,12.0475083 140.8193,10.4955957 141.294643,9.00441176 C141.769985,7.51322784 142.482988,6.19327372 143.433673,5.0445098 C144.384358,3.89574589 145.56717,2.97895767 146.982143,2.29411765 C148.397116,1.60927762 150.044208,1.26686275 151.923469,1.26686275 C153.80273,1.26686275 155.449823,1.60927762 156.864796,2.29411765 C158.279769,2.97895767 159.46258,3.89574589 160.413265,5.0445098 C161.36395,6.19327372 162.076953,7.51322784 162.552296,9.00441176 C163.027638,10.4955957 163.265306,12.0475083 163.265306,13.6601961 C163.265306,15.2728839 163.027638,16.8247965 162.552296,18.3159804 C162.076953,19.8071643 161.36395,21.1271184 160.413265,22.2758824 C159.46258,23.4246463 158.279769,24.3359117 156.864796,25.0097059 C155.449823,25.6835001 153.80273,26.0203922 151.923469,26.0203922 C150.044208,26.0203922 148.397116,25.6835001 146.982143,25.0097059 C145.56717,24.3359117 144.384358,23.4246463 143.433673,22.2758824 C142.482988,21.1271184 141.769985,19.8071643 141.294643,18.3159804 C140.8193,16.8247965 140.581633,15.2728839 140.581633,13.6601961 Z M167.079082,1.83019608 L167.079082,25.4901961 L170.063776,25.4901961 L170.063776,6.50254902 L170.130102,6.50254902 L182.5,25.4901961 L185.94898,25.4901961 L185.94898,1.83019608 L182.964286,1.83019608 L182.964286,21.0166667 L182.897959,21.0166667 L170.428571,1.83019608 L167.079082,1.83019608 Z M217.984694,22.5409804 L218.813776,25.4901961 L220.803571,25.4901961 L220.803571,13.0305882 L210.423469,13.0305882 L210.423469,15.6815686 L217.984694,15.6815686 C218.028912,16.7640577 217.885206,17.7747339 217.553571,18.7136275 C217.221937,19.652521 216.73002,20.4698985 216.077806,21.1657843 C215.425592,21.8616701 214.624154,22.4084294 213.673469,22.8060784 C212.722784,23.2037275 211.628408,23.402549 210.390306,23.402549 C209.063769,23.402549 207.897539,23.1429765 206.891582,22.6238235 C205.885624,22.1046706 205.039969,21.4087952 204.354592,20.5361765 C203.669214,19.6635577 203.149662,18.6584044 202.795918,17.5206863 C202.442175,16.3829682 202.265306,15.1955617 202.265306,13.9584314 C202.265306,12.6992094 202.420066,11.4676204 202.729592,10.2636275 C203.039117,9.0596345 203.51998,7.98820731 204.172194,7.04931373 C204.824408,6.11042014 205.664536,5.35379372 206.692602,4.77941176 C207.720668,4.20502981 208.953224,3.91784314 210.390306,3.91784314 C211.274664,3.91784314 212.109265,4.02277673 212.894133,4.23264706 C213.679001,4.44251739 214.380949,4.75731816 215,5.17705882 C215.619051,5.59679948 216.138603,6.13251308 216.558673,6.78421569 C216.978744,7.43591829 217.266156,8.21463599 217.420918,9.12039216 L220.571429,9.12039216 C220.350339,7.72862049 219.935802,6.54121407 219.327806,5.55813725 C218.71981,4.57506044 217.968117,3.76320582 217.072704,3.12254902 C216.177291,2.48189222 215.160295,2.01245247 214.021684,1.71421569 C212.883073,1.4159789 211.672625,1.26686275 210.390306,1.26686275 C208.511045,1.26686275 206.86948,1.61480044 205.465561,2.31068627 C204.061643,3.00657211 202.889886,3.93992879 201.950255,5.11078431 C201.010625,6.28163984 200.303149,7.64577653 199.827806,9.20323529 C199.352464,10.7606941 199.114796,12.4009718 199.114796,14.1241176 C199.114796,15.6705306 199.369045,17.1616922 199.877551,18.5976471 C200.386057,20.033602 201.126696,21.3038507 202.09949,22.4084314 C203.072284,23.5130121 204.255095,24.3911405 205.647959,25.0428431 C207.040823,25.6945457 208.62159,26.0203922 210.390306,26.0203922 C211.78317,26.0203922 213.164959,25.7497739 214.535714,25.2085294 C215.906469,24.6672849 217.056118,23.7781108 217.984694,22.5409804 Z M225.446429,1.83019608 L225.446429,25.4901961 L241.132653,25.4901961 L241.132653,22.8392157 L228.596939,22.8392157 L228.596939,1.83019608 L225.446429,1.83019608 Z M245.709184,13.6601961 C245.709184,14.8531432 245.863944,16.029504 246.173469,17.1893137 C246.482995,18.3491234 246.969384,19.3929365 247.632653,20.3207843 C248.295922,21.2486321 249.147104,21.9942129 250.186224,22.557549 C251.225345,23.1208852 252.463428,23.402549 253.90051,23.402549 C255.337592,23.402549 256.575675,23.1208852 257.614796,22.557549 C258.653917,21.9942129 259.505099,21.2486321 260.168367,20.3207843 C260.831636,19.3929365 261.318026,18.3491234 261.627551,17.1893137 C261.937076,16.029504 262.091837,14.8531432 262.091837,13.6601961 C262.091837,12.4672489 261.937076,11.2908882 261.627551,10.1310784 C261.318026,8.97126871 260.831636,7.92745562 260.168367,6.99960784 C259.505099,6.07176007 258.653917,5.32617929 257.614796,4.76284314 C256.575675,4.19950699 255.337592,3.91784314 253.90051,3.91784314 C252.463428,3.91784314 251.225345,4.19950699 250.186224,4.76284314 C249.147104,5.32617929 248.295922,6.07176007 247.632653,6.99960784 C246.969384,7.92745562 246.482995,8.97126871 246.173469,10.1310784 C245.863944,11.2908882 245.709184,12.4672489 245.709184,13.6601961 Z M242.558673,13.6601961 C242.558673,12.0475083 242.796341,10.4955957 243.271684,9.00441176 C243.747026,7.51322784 244.460029,6.19327372 245.410714,5.0445098 C246.361399,3.89574589 247.544211,2.97895767 248.959184,2.29411765 C250.374157,1.60927762 252.021249,1.26686275 253.90051,1.26686275 C255.779771,1.26686275 257.426864,1.60927762 258.841837,2.29411765 C260.25681,2.97895767 261.439621,3.89574589 262.390306,5.0445098 C263.340991,6.19327372 264.053994,7.51322784 264.529337,9.00441176 C265.004679,10.4955957 265.242347,12.0475083 265.242347,13.6601961 C265.242347,15.2728839 265.004679,16.8247965 264.529337,18.3159804 C264.053994,19.8071643 263.340991,21.1271184 262.390306,22.2758824 C261.439621,23.4246463 260.25681,24.3359117 258.841837,25.0097059 C257.426864,25.6835001 255.779771,26.0203922 253.90051,26.0203922 C252.021249,26.0203922 250.374157,25.6835001 248.959184,25.0097059 C247.544211,24.3359117 246.361399,23.4246463 245.410714,22.2758824 C244.460029,21.1271184 243.747026,19.8071643 243.271684,18.3159804 C242.796341,16.8247965 242.558673,15.2728839 242.558673,13.6601961 Z M272.239796,12.0033333 L278.540816,12.0033333 C280.331642,12.0033333 281.619469,11.6885326 282.404337,11.0589216 C283.189205,10.4293106 283.581633,9.48490826 283.581633,8.22568627 C283.581633,7.38620495 283.448981,6.72346648 283.183673,6.23745098 C282.918366,5.75143548 282.553574,5.37588368 282.089286,5.11078431 C281.624998,4.84568495 281.088864,4.67447751 280.480867,4.59715686 C279.872871,4.51983621 279.226194,4.48117647 278.540816,4.48117647 L272.239796,4.48117647 L272.239796,12.0033333 Z M269.089286,1.83019608 L277.678571,1.83019608 C278.187077,1.83019608 278.734266,1.8357189 279.320153,1.84676471 C279.90604,1.85781051 280.486392,1.89094744 281.061224,1.94617647 C281.636057,2.0014055 282.172191,2.08424781 282.669643,2.19470588 C283.167094,2.30516395 283.592685,2.47084857 283.946429,2.69176471 C284.720242,3.15568859 285.377973,3.79633578 285.919643,4.61372549 C286.461312,5.4311152 286.732143,6.43626855 286.732143,7.62921569 C286.732143,8.88843767 286.428149,9.97643332 285.820153,10.8932353 C285.212157,11.8100373 284.344393,12.4893442 283.216837,12.9311765 L283.216837,12.997451 C284.676028,13.3067336 285.792513,13.969472 286.566327,14.9856863 C287.34014,16.0019005 287.727041,17.2390123 287.727041,18.6970588 C287.727041,19.5586318 287.57228,20.3981005 287.262755,21.2154902 C286.95323,22.0328799 286.494476,22.7563694 285.88648,23.3859804 C285.278483,24.0155914 284.52679,24.5236909 283.631378,24.9102941 C282.735965,25.2968974 281.702387,25.4901961 280.530612,25.4901961 L269.089286,25.4901961 L269.089286,1.83019608 Z M272.239796,22.8392157 L280.132653,22.8392157 C281.525517,22.8392157 282.614367,22.4636639 283.399235,21.712549 C284.184103,20.9614342 284.576531,19.9231439 284.576531,18.5976471 C284.576531,17.8244406 284.432825,17.1837934 284.145408,16.6756863 C283.857992,16.1675792 283.476618,15.7644133 283.001276,15.4661765 C282.525933,15.1679397 281.978745,14.9580725 281.359694,14.8365686 C280.740643,14.7150648 280.099493,14.6543137 279.436224,14.6543137 L272.239796,14.6543137 L272.239796,22.8392157 Z M291.806122,1.83019608 L291.806122,25.4901961 L308.255102,25.4901961 L308.255102,22.8392157 L294.956633,22.8392157 L294.956633,14.6543137 L307.260204,14.6543137 L307.260204,12.0033333 L294.956633,12.0033333 L294.956633,4.48117647 L308.155612,4.48117647 L308.155612,1.83019608 L291.806122,1.83019608 Z M321.354592,1.83019608 L321.354592,25.4901961 L324.339286,25.4901961 L324.339286,5.80666667 L324.405612,5.80666667 L331.80102,25.4901961 L334.487245,25.4901961 L341.882653,5.80666667 L341.94898,5.80666667 L341.94898,25.4901961 L344.933673,25.4901961 L344.933673,1.83019608 L340.622449,1.83019608 L333.127551,21.712549 L325.665816,1.83019608 L321.354592,1.83019608 Z M350.173469,1.83019608 L350.173469,25.4901961 L366.622449,25.4901961 L366.622449,22.8392157 L353.32398,22.8392157 L353.32398,14.6543137 L365.627551,14.6543137 L365.627551,12.0033333 L353.32398,12.0033333 L353.32398,4.48117647 L366.522959,4.48117647 L366.522959,1.83019608 L350.173469,1.83019608 Z M373.586735,22.8392157 L378.826531,22.8392157 C379.180274,22.8392157 379.622446,22.8116016 380.153061,22.7563725 C380.683676,22.7011435 381.247446,22.5685958 381.844388,22.3587255 C382.44133,22.1488552 383.032735,21.8451 383.618622,21.447451 C384.20451,21.0498019 384.72959,20.5085655 385.193878,19.8237255 C385.658166,19.1388855 386.039539,18.2828483 386.33801,17.2555882 C386.636481,16.2283282 386.785714,14.9856936 386.785714,13.5276471 C386.785714,12.1137838 386.647535,10.8490579 386.371173,9.73343137 C386.094812,8.61780488 385.641585,7.66787974 385.01148,6.88362745 C384.381374,6.09937516 383.568883,5.50291054 382.57398,5.09421569 C381.579077,4.68552083 380.352048,4.48117647 378.892857,4.48117647 L373.586735,4.48117647 L373.586735,22.8392157 Z M370.436224,1.83019608 L378.561224,1.83019608 C382.209202,1.83019608 385.016997,2.75802994 386.984694,4.61372549 C388.952391,6.46942104 389.936224,9.29710518 389.936224,13.0968627 C389.936224,15.085108 389.715138,16.8468877 389.272959,18.3822549 C388.83078,19.9176221 388.145413,21.2099621 387.216837,22.2593137 C386.288261,23.3086654 385.105449,24.1094744 383.668367,24.6617647 C382.231285,25.214055 380.528921,25.4901961 378.561224,25.4901961 L370.436224,25.4901961 L370.436224,1.83019608 Z M393.915816,1.83019608 L393.915816,25.4901961 L397.066327,25.4901961 L397.066327,1.83019608 L393.915816,1.83019608 Z M406.451531,15.7147059 L414.477041,15.7147059 L410.530612,4.68 L410.464286,4.68 L406.451531,15.7147059 Z M408.806122,1.83019608 L412.288265,1.83019608 L421.540816,25.4901961 L418.058673,25.4901961 L415.471939,18.3656863 L405.456633,18.3656863 L402.803571,25.4901961 L399.586735,25.4901961 L408.806122,1.83019608 Z" id="BY-BOSTON-GLOBE-MEDIA"></path>
                </g>
            </g>
        </g>
    </g>
</svg>