<?xml version="1.0" encoding="UTF-8"?>
<svg width="500px" height="73px" viewBox="0 0 500 73" version="1.1" xmlns="http://www.w3.org/2000/svg" xmlns:xlink="http://www.w3.org/1999/xlink">
    <!-- Generator: Sketch 42 (36781) - http://www.bohemiancoding.com/sketch -->
    <title>bgbrandlab-logo-black</title>
    <desc>Created with Sketch.</desc>
    <defs></defs>
    <g id="Page-1" stroke="none" stroke-width="1" fill="none" fill-rule="evenodd">
        <g id="bgbrandlab-logo-black" fill-rule="nonzero">
            <g id="Group">
                <g transform="translate(126.000000, 0.000000)" fill="#000000">
                    <path d="M28.2181299,72.3308333 L0.208571429,72.3308333 L0.208571429,0.574266667 L27.2561558,0.574266667 C39.7667013,0.574266667 48.527013,7.76963333 48.527013,19.7611 C48.527013,27.3385 44.0028052,33.2855667 37.9404156,35.4926 C44.7743377,37.9867667 49.6818701,43.9338333 49.6818701,52.5697333 C49.5866494,65.5199333 40.924,72.3308333 28.2181299,72.3308333 Z M26.6775065,7.4825 L7.90924675,7.4825 L7.90924675,32.4241667 L26.6775065,32.4241667 C34.6662857,32.4241667 40.8287792,28.4919 40.8287792,19.9533333 C40.8287792,11.3198667 34.6662857,7.4825 26.6775065,7.4825 Z M27.4465974,39.2326333 L7.81158442,39.2326333 L7.81158442,65.5199333 L27.4465974,65.5199333 C36.3021299,65.5199333 41.885974,60.3393667 41.885974,52.2801667 C41.885974,44.2234 36.3997922,39.2326333 27.4465974,39.2326333 Z" id="Shape"></path>
                    <path d="M86.1611948,32.2319333 C83.4657143,29.5455333 81.4441039,28.5868 77.5937662,28.5868 C70.2788571,28.5868 65.6594286,34.3416333 65.6594286,41.9214667 L65.6594286,72.3308333 L58.3445195,72.3308333 L58.3445195,22.7346333 L65.6594286,22.7346333 L65.6594286,28.7790333 C68.3549091,24.6545333 73.8410909,22.1603667 79.6153766,22.1603667 C84.3324675,22.1603667 87.9899221,23.3113333 91.5497143,26.7642333 L86.1611948,32.2319333 Z" id="Shape"></path>
                    <path d="M124.083481,72.3308333 L124.083481,67.6296333 C120.04026,71.6568 116.382805,73 109.741766,73 C102.907844,73 98.8646234,71.6568 95.6881558,68.4886 C93.2832208,66.0942 91.9354805,62.3517333 91.9354805,58.4170333 C91.9354805,49.7835667 97.9978701,44.1236333 109.165558,44.1236333 L124.178701,44.1236333 L124.178701,39.3275333 C124.178701,32.0372667 120.521247,28.4870333 111.475273,28.4870333 C105.119896,28.4870333 101.850649,30.0200333 98.9622857,34.1469667 L94.0523117,29.638 C98.4788571,23.8831667 103.579273,22.2528333 111.665714,22.2528333 C125.043013,22.2528333 131.591273,28.0076667 131.591273,38.7508333 L131.591273,72.4233 L124.083481,72.4233 L124.083481,72.3308333 L124.083481,72.3308333 Z M124.083481,49.4988667 L110.127532,49.4988667 C102.61974,49.4988667 98.9622857,52.5697333 98.9622857,58.2296667 C98.9622857,63.9845 102.522078,66.6709 110.415636,66.6709 C114.649299,66.6709 118.401974,66.3813333 121.578442,63.3129 C123.311948,61.6801333 124.081039,58.9012667 124.081039,54.7743333 L124.081039,49.4988667 L124.083481,49.4988667 Z" id="Shape"></path>
                    <path d="M170.766078,72.3308333 L170.766078,41.8241333 C170.766078,33.0957667 166.048987,28.5868 158.543636,28.5868 C151.035844,28.5868 146.221091,33.0957667 146.221091,41.8241333 L146.221091,72.3308333 L138.908623,72.3308333 L138.908623,22.7346333 L146.221091,22.7346333 L146.221091,28.2023333 C149.783325,24.1727333 154.598078,22.1603667 160.179481,22.1603667 C165.568,22.1603667 169.899325,23.7907 172.882909,26.7642333 C176.445143,30.2171333 178.080987,34.8234333 178.080987,40.5782667 L178.080987,72.3308333 L170.766078,72.3308333 L170.766078,72.3308333 Z" id="Shape"></path>
                    <path d="M217.448675,72.3308333 L217.448675,66.3813333 C213.405455,71.6592333 208.786026,72.9075333 203.299844,72.9075333 C198.196987,72.9075333 193.770442,71.1798667 191.170182,68.5908 C186.069766,63.5075667 185.107792,55.2585667 185.107792,47.4865 C185.107792,39.7144333 186.167429,31.4678667 191.170182,26.3822 C193.768,23.7931333 198.292208,22.0654667 203.299844,22.0654667 C208.786026,22.0654667 213.310234,23.3137667 217.351013,28.397 L217.351013,0.574266667 L224.665922,0.574266667 L224.665922,72.3284 L217.448675,72.3284 L217.448675,72.3308333 Z M204.840468,28.5868 C194.058545,28.5868 192.327481,37.8943 192.327481,47.5789667 C192.327481,57.2685 194.058545,66.576 204.840468,66.576 C215.619948,66.576 217.255792,57.2709333 217.255792,47.5789667 C217.351013,37.8918667 215.715169,28.5868 204.840468,28.5868 Z" id="Shape"></path>
                    <polygon id="Shape" points="240.741143 0.574266667 246.227325 0.574266667 246.227325 67.5323 284.437714 67.5323 284.437714 72.3308333 240.741143 72.3308333 240.741143 0.574266667"></polygon>
                    <path d="M321.879013,67.5323 C317.740571,71.6568 313.890234,73 307.056312,73 C299.741403,73 295.795844,71.7517 292.717039,68.5883667 C290.407325,66.2864333 289.154805,62.7362 289.154805,59.0910667 C289.154805,50.2678 295.50774,45.0872333 306.192,45.0872333 L321.976675,45.0872333 L321.976675,39.6195333 C321.976675,31.8499 318.224,27.7254 308.21361,27.7254 C301.379688,27.7254 297.912675,29.4506333 294.736208,33.8647 L290.983532,30.6040333 C295.121974,24.8492 300.22239,23.1215333 308.21361,23.1215333 C321.109922,23.1215333 327.079532,28.8788 327.079532,39.0452667 L327.079532,72.3332667 L321.881455,72.3332667 L321.881455,67.5323 L321.879013,67.5323 Z M306.672987,49.2117333 C298.393662,49.2117333 294.255221,52.4724 294.255221,58.9961667 C294.255221,65.4250333 298.105558,68.4910333 306.961091,68.4910333 C311.387636,68.4910333 315.528519,68.109 319.088312,64.751 C320.917039,63.0257667 321.783792,59.9549 321.783792,55.4459333 L321.783792,49.2117333 L306.672987,49.2117333 Z" id="Shape"></path>
                    <path d="M367.694857,68.7806 C365.19226,71.2747667 360.956156,73 355.758078,73 C350.176675,73 345.652468,71.7517 341.321143,66.1891 L341.321143,72.4233 L336.123065,72.4233 L336.123065,0.574266667 L341.321143,0.574266667 L341.321143,30.0249 C345.652468,24.3649667 350.176675,23.214 355.758078,23.214 C360.956156,23.214 365.189818,24.9392333 367.694857,27.4334 C372.604831,32.3268333 373.95013,40.4809333 373.95013,48.0583333 C373.95013,55.7330667 372.604831,63.7898333 367.694857,68.7806 Z M355.086649,27.7229667 C343.14987,27.7229667 341.321143,37.9867667 341.321143,48.0583333 C341.321143,58.1323333 343.14987,68.3937 355.086649,68.3937 C367.023429,68.3937 368.849714,58.1299 368.849714,48.0583333 C368.847273,37.9867667 367.020987,27.7229667 355.086649,27.7229667 Z" id="Shape"></path>
                </g>
                <g fill="#A7A9AC">
                    <path d="M28.7417778,72.3308333 L0.701555556,72.3308333 L0.701555556,0.574266667 L27.8764444,0.574266667 C40.4042222,0.574266667 49.1724444,7.76963333 49.1724444,19.7611 C49.1724444,27.3385 44.6428889,33.2855667 38.5733333,35.4926 C45.4153333,37.9867667 50.3311111,43.9338333 50.3311111,52.5697333 C50.2308889,65.5199333 41.4626667,72.3308333 28.7417778,72.3308333 Z M27.2017778,7.4825 L8.40888889,7.4825 L8.40888889,32.4241667 L27.2017778,32.4241667 C35.1975556,32.4241667 41.3673333,28.4919 41.3673333,19.9533333 C41.3673333,11.3198667 35.1975556,7.4825 27.2017778,7.4825 Z M28.0671111,39.2326333 L8.40888889,39.2326333 L8.40888889,65.5199333 L28.0671111,65.5199333 C36.9331111,65.5199333 42.5211111,60.3393667 42.5211111,52.2801667 C42.5235556,44.2234 36.9331111,39.2326333 28.0671111,39.2326333 Z" id="Shape"></path>
                    <path d="M101.979778,64.7485667 C96.8733333,70.2187 90.1266667,73 82.7053333,73 C75.5748889,73 69.1191111,70.4109333 64.3011111,65.5199333 C57.5544444,58.8039333 57.5544444,51.7034667 57.5544444,36.4537667 C57.5544444,21.2016333 57.5544444,14.1985 64.3011111,7.3876 C69.1191111,2.58906667 75.5748889,0 82.7053333,0 C96.4871111,0 105.834667,8.8257 107.954,21.4887667 L100.244222,21.4887667 C98.2226667,12.3759333 91.7644444,6.90823333 82.7053333,6.90823333 C77.9826667,6.90823333 73.3602222,8.82813333 70.2753333,12.0888 C65.7457778,16.6926667 65.1688889,21.5861 65.1688889,36.5486667 C65.1688889,51.6085667 65.648,56.4995667 70.2753333,61.1058667 C73.4555556,64.3689667 77.9826667,66.1915333 82.7053333,66.1915333 C88.0073333,66.1915333 93.0184444,64.0818333 96.3917778,60.0522333 C99.2835556,56.502 100.437333,52.5721667 100.437333,47.0071333 L100.437333,41.537 L82.7053333,41.537 L82.7053333,34.821 L108.147111,34.821 L108.147111,46.2382 C108.147111,54.3898667 106.411556,59.9549 101.979778,64.7485667 Z" id="Shape"></path>
                </g>
            </g>
        </g>
    </g>
</svg>