<?xml version="1.0" encoding="UTF-8"?>
<svg width="600px" height="144px" viewBox="0 0 600 144" version="1.1" xmlns="http://www.w3.org/2000/svg" xmlns:xlink="http://www.w3.org/1999/xlink">
    <!-- Generator: Sketch 42 (36781) - http://www.bohemiancoding.com/sketch -->
    <title>bgmp-logo-black</title>
    <desc>Created with Sketch.</desc>
    <defs>
        <polygon id="path-1" points="61.251739 144 0.0542647059 144 0.0542647059 0.1197 61.251739 0.1197 122.449213 0.1197 122.449213 144 61.251739 144"></polygon>
    </defs>
    <g id="Page-1" stroke="none" stroke-width="1" fill="none" fill-rule="evenodd">
        <g id="bgmp-logo-black">
            <g>
                <g id="Group-4">
                    <mask id="mask-2" fill="white">
                        <use xlink:href="#path-1"></use>
                    </mask>
                    <g id="Clip-2"></g>
                    <path d="M99.8009338,113.7852 C96.0702353,115.7661 93.5858162,117.0144 90.0857426,119.4768 C87.3571324,117.7524 84.624,116.0136 81.3789706,114.0381 L81.3789706,67.9743 L100.302882,78.1209 L99.8009338,113.7852 Z M79.3955956,113.0571 C68.9324559,106.8804 56.2507941,100.4139 42.7976691,99.4383 C55.5073676,92.2518 68.1971691,82.5894 68.1971691,68.4567 L68.1971691,37.5237 C68.1971691,27.6102 72.1720588,21.6603 82.6243456,12.7305 C90.8427353,24.8769 94.0868603,30.0798 100.541647,40.9716 C102.047493,43.4376 103.03511,45.9261 103.03511,47.1591 C103.03511,52.6023 98.0671765,55.3329 81.3789706,65.7423 L81.3789706,49.9005 C81.3789706,41.9697 81.8782059,37.5237 82.1287279,34.2882 L78.6422206,34.2882 C79.1468824,37.7541 79.3955956,41.9697 79.3955956,49.9005 L79.3955956,113.0571 Z M100.302882,56.5704 C108.757324,51.3756 111.496787,49.9005 114.470493,47.6721 C119.711559,43.9452 121.202029,41.7132 121.202029,39.4785 C121.202029,37.7541 120.459507,34.5285 116.475574,28.5876 C111.496787,21.1482 106.778471,13.9851 96.8109485,0.1197 C82.8694412,9.531 75.1593309,15.1965 60.4834412,26.6031 C54.504375,31.3173 50.0203015,38.7567 50.0203015,48.1662 C50.0203015,51.3756 50.2699191,67.9743 50.2699191,78.8733 C50.2699191,87.2901 48.7794485,91.7514 39.8131103,99.1809 C18.1633015,99.1809 5.21936029,113.0571 5.21936029,126.9234 C5.21936029,132.8679 7.210875,139.0536 11.6985662,144 L13.1854191,142.5411 C10.4450515,139.5441 8.21386765,134.8398 8.21386765,129.3876 C8.21386765,121.9608 13.6864632,113.7852 30.8521985,113.7852 C49.7752059,113.7852 67.4419853,126.6822 77.6473676,132.8679 C92.3350147,120.4875 101.541926,115.2828 120.459507,109.0881 L120.459507,77.6286 C120.459507,75.4083 121.202029,73.1583 122.449213,71.1954 L100.302882,56.5704 L100.302882,56.5704 Z" id="Fill-1" fill="#0A0A08" mask="url(#mask-2)"></path>
                    <path d="M70.4383015,8.5167 L69.9363529,7.0398 C59.4750221,7.0398 53.7555221,5.7924 48.2856397,4.815 C43.0536176,4.0815 38.5731618,3.0906 32.3544265,3.0906 C15.9248824,3.0906 5.21936029,11.502 5.21936029,25.1262 C5.21936029,30.816 6.46021324,34.0281 10.1972426,38.2482 L11.6985662,36.756 C9.69619853,34.2882 8.71581618,31.8186 8.71581618,29.0916 C8.71581618,23.1345 13.6864632,17.9334 24.6370809,17.9334 C32.856375,17.9334 40.3204853,19.4274 46.7906471,20.9097 C32.856375,31.0779 24.3793235,38.4984 24.3793235,60.0525 C22.3959485,59.2983 19.6519632,58.8132 15.9248824,58.8132 C5.47169118,58.8132 0,65.7423 0,72.4365 C0,75.4083 0.735286765,78.6222 2.73222794,80.8506 L4.48136029,79.8768 C3.73793382,78.3648 3.22241912,76.8834 3.22241912,75.4083 C3.22241912,70.9398 6.71163971,67.4685 13.1854191,67.4685 C18.9202941,67.4685 23.1502279,69.9579 25.1363162,73.4238 C25.1363162,88.5303 22.1436176,96.2154 14.1965515,96.2154 L14.1965515,97.9371 C26.1329779,97.9371 40.5655809,89.271 40.5655809,75.4083 L40.5655809,47.6721 C40.5655809,24.8769 54.0078529,14.2353 70.4383015,8.5167" id="Fill-3" fill="#0A0A08" mask="url(#mask-2)"></path>
                </g>
                <path d="M156.990221,92.0728889 L156.990221,103.027556 L163.931547,103.027556 C168.095799,103.027556 169.21858,103.027556 171.03314,101.767111 C171.990221,101.084444 172.739949,99.6711111 172.739949,97.8906667 C172.739949,97.048 172.576965,96.0551111 172.04636,95.1111111 C170.336834,92.1244444 166.385368,92.1244444 163.984064,92.1244444 L156.990221,92.0728889 Z M156.990221,77.6595556 L156.990221,86.8853333 L159.39243,86.8853333 C161.367258,86.8853333 162.808765,86.8853333 163.663528,86.8328889 C165.42557,86.8328889 167.188519,86.7795556 168.467946,86.0933333 C169.965592,85.3662222 170.976096,83.9493333 170.976096,82.2737778 C170.976096,80.8586667 170.233611,79.4444444 168.790293,78.6035556 C167.292648,77.7653333 166.546541,77.7111111 161.425208,77.6595556 L156.990221,77.6595556 Z M150,72 L163.449837,72 C168.467946,72.0551111 169.802608,72.1057778 171.62079,72.6266667 C175.410177,73.7324444 178.239768,77.0293333 178.239768,81.0657778 C178.239768,82.6924444 177.702825,84.68 176.638899,86.0933333 C175.459978,87.6195556 173.965954,88.4044444 171.94042,88.7706667 C176.102861,89.5031111 180,92.8035556 180,98.5191111 C180,102.765333 177.808765,106.539556 173.275081,108.109333 C170.871061,108.947556 168.999457,109 164.731076,109 L150,109 L150,72 L150,72 Z" id="Fill-5" fill="#1A1918"></path>
                <path d="M195.337414,87.7055623 C191.402382,87.7055623 188.56581,90.8778084 188.56581,95.7329578 C188.56581,101.177751 191.87366,104.1878 195.65635,104.1878 C200.226581,104.1878 202.537533,100.174998 202.379846,95.7885169 C202.276504,91.4038277 199.752631,87.7055623 195.337414,87.7055623 Z M195.65635,110 C187.463787,110 182,103.979901 182,95.8951546 C182,87.8113038 187.564457,82 195.395321,82 C202.69611,82 208.942093,87.1230878 209,95.8951546 C209,104.134929 203.586102,110 195.65635,110 L195.65635,110 Z" id="Fill-6" fill="#1A1918"></path>
                <path d="M215.789213,101.391026 C217.401116,103.344556 219.818059,104.770275 223.526895,104.770275 C227.233908,104.770275 228.847635,102.975357 228.847635,101.653588 C228.847635,99.9626192 226.911163,99.5396531 226.055979,99.3801447 C225.138799,99.1686616 220.732504,98.3791845 219.763357,98.1148307 C213.367711,96.6335531 212.1834,92.9899507 212.1834,90.6116623 C212.1834,86.1167509 216.32074,82 223.685533,82 C227.774552,82 230.726669,83.2706906 232.557383,84.5360046 C233.900332,85.3837291 234.763721,86.2798438 235.298895,86.9151891 L230.726669,91.0892914 C229.978155,89.6644691 228.147442,87.070217 223.418402,87.070217 C220.353233,87.070217 218.95467,88.3937784 218.95467,89.7675222 C218.95467,91.6681815 220.944021,92.1968892 224.38755,92.7766754 C229.978155,93.78122 231.538091,94.0419894 233.256665,95.3682391 C234.922359,96.6335531 236,98.7483838 236,100.965372 C236,105.085707 232.235549,110 223.906167,110 C219.120601,110 214.389738,108.524995 211,105.298982 L215.789213,101.391026" id="Fill-7" fill="#1A1918"></path>
                <path d="M247.47786,87.0454783 L247.47786,98.8503151 C247.47786,102.126547 247.647062,103.553959 250.336199,103.553959 C251.298026,103.553959 252.096986,103.497472 253,103.234764 L253,108.572315 C251.081773,108.893303 249.799638,109 248.361873,109 C247.027258,109 242.54838,109 241.320534,105.772185 C240.894362,104.716869 240.894362,103.023163 240.894362,100.379044 L240.894362,87.0454783 L237,87.0454783 L237,82.3552838 L240.894362,82.3552838 L240.894362,73 L247.47786,73 L247.47786,82.3552838 L253,82.3552838 L253,87.0454783 L247.47786,87.0454783" id="Fill-8" fill="#1A1918"></path>
                <path d="M269.345862,87.7055623 C265.404204,87.7055623 262.564678,90.8778084 262.564678,95.7329578 C262.564678,101.177751 265.878201,104.1878 269.659484,104.1878 C274.226604,104.1878 276.538675,100.174998 276.379191,95.7885169 C276.280293,91.4038277 273.759735,87.7055623 269.345862,87.7055623 Z M269.659484,110 C261.468783,110 256,103.979901 256,95.8951546 C256,87.8113038 261.568572,82 269.397538,82 C276.698159,82 282.949215,87.1230878 283,95.8951546 C283,104.134929 277.588239,110 269.659484,110 L269.659484,110 Z" id="Fill-9" fill="#1A1918"></path>
                <path d="M287,82.7869517 L293.369547,82.7869517 L293.369547,85.8805164 C293.682891,85.4056778 294.316721,84.5671519 295.421907,83.8344421 C296.996662,82.682914 299.421286,82 301.47186,82 C304.472287,82 307.053136,83.3613819 308.367218,85.145139 C310,87.3477144 310,90.1789619 310,93.5864181 L310,109 L303.735794,109 L303.735794,95.6271572 C303.735794,93.6904558 303.735794,92.3788697 303.52422,91.6461599 C302.945738,89.3413253 301.262964,88.1311092 299.209711,88.1311092 C297.155566,88.1311092 295.264788,89.3413253 294.370284,91.0699513 C293.369547,93.0093202 293.369547,95.6822882 293.369547,97.6225464 L293.369547,109 L287,109 L287,82.7869517" id="Fill-10" fill="#1A1918"></path>
                <path d="M353.926005,88.7642299 C353.926005,88.7642299 354.842771,96.4695515 350.222486,102.812646 C345.610205,109.145042 339.681907,110 336.457667,110 C325.03678,110 319,99.4775065 319,90.8673022 C319,78.740982 327.139739,71 336.569707,71 C344.312862,71 349.865028,76.131532 352.305882,81.9557674 L345.768483,84.6267316 C345.140707,82.4416404 342.477553,77.409066 336.639064,77.409066 C330.02875,77.409066 326.384808,83.1905088 326.384808,90.498217 C326.384808,98.6439446 330.716102,103.559731 336.495903,103.591826 C340.778291,103.615005 344.738789,100.95563 346.19352,94.8603758 L336.930722,94.8603758 L336.930722,88.7642299 L353.926005,88.7642299" id="Fill-11" fill="#1A1918"></path>
                <polygon id="Fill-12" fill="#1A1918" points="359 109 365 109 365 72 359 72"></polygon>
                <path d="M382.343629,87.7055623 C378.404514,87.7055623 375.56935,90.8778084 375.56935,95.7329578 C375.56935,101.177751 378.876745,104.1878 382.656371,104.1878 C387.228096,104.1878 389.539353,100.174998 389.383427,95.7885169 C389.275616,91.4038277 386.756757,87.7055623 382.343629,87.7055623 Z M382.656371,110 C374.463617,110 369,103.979901 369,95.8951546 C369,87.8113038 374.569647,82 382.393525,82 C389.698842,82 395.950104,87.1230878 396,95.8951546 C396,104.134929 390.588061,110 382.656371,110 L382.656371,110 Z" id="Fill-13" fill="#1A1918"></path>
                <path d="M412.650302,87.8116546 C409.738587,87.8116546 406.300042,89.973275 406.300042,95.6115463 C406.300042,97.2457242 406.510957,98.3506717 406.731915,98.9827087 C408.020228,103.994307 412.381865,103.994307 412.916912,103.994307 C417.656553,103.994307 419.219694,99.3045381 419.327434,95.8225233 C419.485391,90.6053121 416.150934,87.8116546 412.650302,87.8116546 Z M406.409608,72 L406.409608,85.0725292 C408.558927,83.1218858 411.252423,82.0670007 414.215269,82.0670007 C420.29344,82.0670007 426,87.5461453 426,95.9289058 C426,104.519961 420.186613,110 413.78157,110 C410.230721,110 407.804748,108.050251 406.409608,106.471499 L406.409608,109.211518 L400,109.211518 L400,72 L406.409608,72 L406.409608,72 Z" id="Fill-14" fill="#1A1918"></path>
                <path d="M442.198163,87.0709508 C444.961824,87.0709508 447.849337,88.4948315 448.417285,92.6168272 L435.833957,92.6168272 C436.565567,89.0288988 438.863015,87.0709508 442.198163,87.0709508 Z M448.265124,100.401127 C447.644097,102.023938 446.214495,103.819695 443.030623,103.819695 C438.910786,103.819695 436.238244,102.001536 435.629602,97.2684098 L455,97.2684098 C455,91.7180529 453.54032,82 441.990269,82 C434.633481,82 429,87.0198739 429,95.8947099 C429,105.615451 435.572984,110 442.404287,110 C448.549098,110 453.46424,106.141454 454.892957,100.401127 L448.265124,100.401127 L448.265124,100.401127 Z" id="Fill-15" fill="#1A1918"></path>
                <path d="M516.198163,87.0709508 C518.961824,87.0709508 521.849337,88.4948315 522.4164,92.6168272 L509.833957,92.6168272 C510.565567,89.0288988 512.863015,87.0709508 516.198163,87.0709508 Z M522.265124,100.401127 C521.643212,102.023938 520.214495,103.819695 517.029738,103.819695 C512.909901,103.819695 510.238244,102.001536 509.628717,97.2684098 L529,97.2684098 C529,91.7180529 527.539435,82 515.990269,82 C508.632596,82 503,87.0198739 503,95.8947099 C503,105.615451 509.572984,110 516.403403,110 C522.549098,110 527.463355,106.141454 528.892957,100.401127 L522.265124,100.401127 L522.265124,100.401127 Z" id="Fill-16" fill="#1A1918"></path>
                <path d="M550.345677,90.3429472 C549.405781,88.9197798 547.844882,87.9176626 545.76015,87.9176626 C541.545634,87.9176626 539.512137,91.7643267 539.512137,95.9283429 C539.512137,96.4003482 539.563372,104.305542 545.65768,104.305542 C548.884598,104.305542 551.806756,101.883834 551.751104,96.192058 C551.698103,94.5051755 551.492279,92.0807848 550.345677,90.3429472 Z M558,72 L558,109.210643 L551.806756,109.210643 L551.806756,106.682554 C549.875729,109.05152 547.271581,110 544.564962,110 C538.365535,110 533,105.309448 533,96.6131081 C533,88.7615508 537.377937,82.0667639 544.826437,82.0667639 C547.37405,82.0667639 549.828027,82.80606 551.806756,85.0194787 L551.806756,72 L558,72 L558,72 Z" id="Fill-17" fill="#1A1918"></path>
                <path d="M564,109 L570,109 L570,82.5319226 L564,82.5319226 L564,109 Z M564,78.4026548 L570,78.4026548 L570,72 L564,72 L564,78.4026548 Z" id="Fill-18" fill="#1A1918"></path>
                <path d="M592.510556,96.1338225 C591.246511,96.7691416 589.819652,97.2458563 586.973986,97.7270767 C584.708008,98.0433845 581.696844,98.57507 581.696844,101.393003 C581.696844,103.464774 583.43949,104.527244 585.970264,104.527244 C589.188972,104.527244 591.457633,103.042129 592.140199,101.446172 C592.510556,100.648643 592.510556,99.8511152 592.510556,99.0517846 L592.510556,96.1338225 Z M576.212159,90.6069969 C576.318614,89.276882 576.425964,88.1621448 577.266872,86.6238615 C579.801224,82 586.076719,82 587.763902,82 C590.296465,82 593.355936,82.317209 595.674694,83.7022947 C598.788735,85.6118567 598.837937,88.1098774 598.837937,90.9800779 L598.837937,105.057127 C598.837937,107.081137 598.837937,107.767822 600,109.362879 L592.510556,109.362879 C592.457776,108.722152 592.352215,107.664188 592.352215,107.2857 C590.982609,108.459914 588.186145,110 584.546089,110 C578.585486,110 575,106.279103 575,101.70841 C575,100.382801 575.316682,99.1626275 575.841802,98.1001577 C577.74279,94.2720221 581.805983,93.4231277 584.337651,92.9428084 C589.769556,91.8307747 590.192693,91.7226353 592.510556,90.9800779 C592.510556,89.649963 592.40589,86.9428728 588.026909,86.9428728 C585.392364,86.9428728 583.966399,87.7908661 583.33393,88.6451675 C582.649574,89.4931608 582.700565,90.2357182 582.700565,90.9800779 L576.212159,90.6069969 L576.212159,90.6069969 Z" id="Fill-19" fill="#1A1918"></path>
                <polyline id="Fill-20" fill="#1A1918" points="489.834002 72 482.572054 99.4577778 475.152317 72 465 72 465 109 471.802262 109 471.802262 81.3324444 479.289493 109 485.692266 109 493.179497 81.1537778 493.179497 109 500 109 500 72 489.834002 72"></polyline>
            </g>
        </g>
    </g>
</svg>