<svg width="500" height="157" xmlns="http://www.w3.org/2000/svg" xmlns:sketch="http://www.bohemiancoding.com/sketch/ns"><title>logo-white</title><desc>Created with Sketch.</desc><g sketch:type="MSLayerGroup" fill="#fff"><g sketch:type="MSShapeGroup"><path d="M107.929 83.413c-3.434 22.346-14.949 37.581-34.948 37.581-22.827 0-36.766-15.642-36.766-52.208 0-38.191 13.333-52.208 32.321-52.208 16.767 0 28.079 12.392 36.16 36.972h19.999v-53.223h-18.181l-4.242 15.439c-8.08-9.954-20.807-15.845-37.776-15.845-34.746 0-64.239 29.253-64.239 70.897 0 41.238 26.665 69.272 68.077 69.272 35.958 0 55.552-22.143 58.987-56.677h-19.393z"/><path d="M355.808 94.656v-60.09h14.555v-15.878h-46.683v15.878h15.62v53.329c0 12.632-2.13 20.815-7.278 25.975-4.615 4.626-10.473 6.938-18.815 6.938-17.573 0-27.158-7.472-27.158-29.355v-56.887h16.33v-15.878h-60.351v15.878h15.088v60.979c0 26.686 16.685 43.054 50.943 43.054 32.838 0 47.748-20.104 47.748-43.944z"/><path d="M448.666 34.373h14.062l-23.924 29.179-20.454-29.179h13.88v-15.684h-62.458v15.866h13.514l35.064 46.869-34.334 41.398h-14.062v15.866h48.213v-15.684h-14.062l25.02-31.733 21.733 31.733h-14.062v15.684h62.458v-15.866h-13.332l-36.343-49.24 33.238-39.027h13.88v-15.866h-48.031v15.684z"/></g><path d="M174.374 83.304h14.577c13.155 0 16.177 5.353 16.355 18.379l.178 25.228c0 19.628 8.177 29.264 26.488 29.264 15.999 0 25.962-12.354 29.339-26.451l-5.737-8.954c-2.489 8.03-7.816 17.886-14.714 17.739-3.555-.076-5.155-1.784-5.511-9.457l-.533-26.12c-.533-13.918-7.822-23.911-30.221-25.874v-1.249c27.554-3.212 36.265-14.81 36.265-28.907 0-14.81-11.911-29.799-47.287-29.799h-64.175v15.524h15.999v90.364h-15.999v15.524h61.509v-15.524h-16.533v-39.688zm0-14.454v-36.937h15.999c15.288 0 19.377 5.888 19.377 18.022 0 13.561-6.044 18.914-19.91 18.914h-15.466z" sketch:type="MSShapeGroup"/></g></svg>