<svg width="500" height="201" xmlns="http://www.w3.org/2000/svg" xmlns:sketch="http://www.bohemiancoding.com/sketch/ns"><title>lockup-color</title><desc>Created with Sketch.</desc><g sketch:type="MSShapeGroup" fill="none"><g fill="#CA0002"><g><path d="M127.534 83.564h-19.425c-3.44 22.386-14.974 37.65-35.006 37.65-22.865 0-36.827-15.67-36.827-52.303 0-38.26 13.355-52.303 32.375-52.303 16.795 0 28.126 12.414 36.22 37.039h20.032v-53.32h-18.211l-4.249 15.467c-8.094-9.972-20.842-15.874-37.839-15.874-34.804 0-64.346 29.306-64.346 71.026 0 41.313 26.71 69.398 68.191 69.398 36.018 0 55.645-22.183 59.085-56.78z"/><path d="M356.402 94.829v-60.199h14.579v-15.907h-46.761v15.907h15.646v53.426c0 12.655-2.134 20.853-7.29 26.022-4.623 4.634-10.49 6.951-18.847 6.951-17.602 0-27.203-7.486-27.203-29.408v-56.991h16.357v-15.907h-60.451v15.907h15.113v61.09c0 26.735 16.713 43.132 51.028 43.132 32.893 0 47.828-20.14 47.828-44.024z"/><path d="M449.415 34.436h14.086l-23.964 29.232-20.488-29.232h13.903v-15.712h-62.562v15.895h13.537l35.123 46.955-34.391 41.474h-14.086v15.895h48.294v-15.712h-14.086l25.062-31.79 21.769 31.79h-14.086v15.712h62.562v-15.895h-13.354l-36.403-49.33 33.293-39.098h13.903v-15.895h-48.111v15.712z"/></g><path d="M174.665 83.456h14.601c13.177 0 16.204 5.363 16.382 18.413l.178 25.274c0 19.664 8.191 29.317 26.532 29.317 16.026 0 26.005-12.377 29.388-26.499l-5.747-8.97c-2.493 8.044-7.829 17.918-14.738 17.771-3.561-.076-5.164-1.788-5.52-9.474l-.534-26.167c-.534-13.944-7.835-23.954-30.271-25.921v-1.251c27.6-3.218 36.326-14.837 36.326-28.96 0-14.837-11.93-29.853-47.366-29.853h-64.282v15.552h16.026v90.529h-16.026v15.552h61.611v-15.552h-16.56v-39.76zm0-14.48v-37.004h16.026c15.314 0 19.409 5.899 19.409 18.055 0 13.586-6.054 18.949-19.944 18.949h-15.492z"/></g><path d="M79.259 196.457c4.718 0 7.603-3.497 9.105-7.688l-1.863-.724c-1.593 3.678-3.666 6.301-6.972 6.301-3.035 0-4.958-2.111-4.958-6.09 0-3.648 2.013-10.613 7.723-10.613 2.584 0 4.477 1.296 4.868 5.879h1.773l1.923-7.779h-2.013l-1.112 2.291c-.992-1.477-2.855-2.382-5.319-2.382-6.28 0-11.179 5.94-11.179 12.452 0 4.703 2.404 8.352 8.023 8.352zm18.751-14.532c-4.027 0-7.513 3.95-7.513 8.532 0 3.377 2.013 5.789 5.319 5.789 4.027 0 7.513-3.95 7.513-8.532 0-3.377-2.013-5.789-5.319-5.789zm2.404 4.523c0 3.226-1.713 8.291-4.598 8.291-1.563 0-2.404-1.025-2.404-3.015 0-3.226 1.713-8.291 4.598-8.291 1.563 0 2.404 1.025 2.404 3.015zm8.955-4.492c-1.923 0-3.366 1.688-4.598 4.522l1.322.603c1.082-2.171 1.563-2.955 2.344-2.955.361 0 .481.241.481.724 0 1.538-2.344 5.879-2.344 8.261 0 1.899 1.442 3.226 3.636 3.226 4.868 0 8.023-7.507 8.023-11.547 0-2.08-.751-2.925-2.043-2.925-1.112 0-1.983 1.116-1.983 2.291 0 1.085.661 1.719 1.593 1.719.18 0 .511-.06.691-.151-.331 3.678-2.494 8.352-5.319 8.352-1.112 0-1.803-.452-1.803-1.477 0-1.839 2.254-5.156 2.254-8.08 0-1.568-.721-2.563-2.254-2.563zm22.327 2.894c0-1.719-1.262-2.925-3.576-2.925-4.387 0-8.474 4.372-8.474 8.955 0 3.226 2.043 5.367 4.808 5.367 3.125 0 4.928-1.658 6.401-3.98l-1.232-.724c-1.172 1.809-2.735 3.015-4.297 3.015-1.533 0-2.765-.814-2.765-3.166 0-.302.03-.633.06-.995 6.22-.513 9.075-2.925 9.075-5.548zm-4.057-1.417c.992 0 1.472.693 1.472 1.477 0 2.02-1.773 3.558-6.19 4.131.721-2.653 2.464-5.608 4.718-5.608zm6.581 12.542h2.975c2.013-7.447 4.327-10.794 5.349-11.246 0 1.116.631 1.719 1.563 1.719 1.052 0 1.923-1.146 1.923-2.502 0-1.266-.841-2.02-1.953-2.02-1.953 0-3.426 2.291-5.169 6.271l-.27-.09c.481-1.296.691-2.442.691-3.347 0-1.869-.811-2.774-2.073-2.774-1.833 0-3.245 1.658-4.477 4.492l1.322.603c.902-1.869 1.713-3.256 2.494-3.256.661 0 .691.573.24 2.291l-2.614 9.859zm20.915-18.783c0-1.055-.661-1.688-1.653-1.688-1.352 0-2.224 1.327-2.224 2.472 0 1.055.691 1.658 1.563 1.658 1.382 0 2.314-1.327 2.314-2.442zm-1.623 7.929c0-2.05-1.022-3.196-2.494-3.196-1.833 0-3.336 1.719-4.568 4.553l1.322.603c.902-1.869 1.683-3.256 2.644-3.256.331 0 .481.181.481.693 0 2.111-2.494 5.879-2.494 9.015 0 1.779 1.052 2.714 2.434 2.714 1.653 0 3.245-1.236 4.417-4.884l-1.322-.392c-.841 2.141-1.533 3.105-2.164 3.105-.451 0-.661-.241-.661-.754 0-1.899 2.404-5.909 2.404-8.201zm15.145 8.291c0-2.08 2.134-5.849 2.134-8.291 0-1.779-.932-3.196-2.524-3.196-2.043 0-4.207 2.201-6.1 6.271l-.21-.09c.481-1.296.691-2.442.691-3.347 0-1.869-.811-2.774-2.073-2.774-1.833 0-3.245 1.658-4.477 4.492l1.322.603c.902-1.869 1.713-3.256 2.494-3.256.661 0 .691.573.24 2.291l-2.614 9.859h2.975c2.374-8.864 5.169-11.758 6.671-11.758.481 0 .781.271.781 1.055 0 2.261-1.983 5.035-1.983 8.261 0 1.779 1.052 2.714 2.434 2.714 1.382 0 2.945-1.116 4.147-4.884l-1.322-.392c-.691 1.899-1.352 3.105-2.043 3.105-.391 0-.541-.241-.541-.663zm6.731 5.668c.3-.302.631-.935.631-1.477 0-.814-.481-1.538-1.533-1.538-1.232 0-1.893 1.236-1.893 2.201 0 2.141 2.374 2.744 4.628 2.744 4.057 0 6.401-2.322 7.693-7.839l2.614-11.065h-2.765l-.511 2.111c-.331-1.327-1.442-2.291-2.975-2.291-1.653 0-3.095.724-4.447 2.08-1.803 1.809-2.825 4.311-2.825 7.025 0 2.322 1.442 4.311 3.907 4.311 1.472 0 3.035-.784 3.997-2.05l.21.09c-.541 2.382-1.172 3.98-2.073 4.914-.721.754-1.563 1.116-2.735 1.116-.841 0-1.533-.151-1.923-.332zm3.576-5.729c-1.352 0-2.013-.874-2.013-2.563 0-2.985 1.773-7.176 4.477-7.176 1.082 0 2.104 1.085 2.104 2.683 0 3.316-2.164 7.055-4.568 7.055zm28.818-11.246h-2.765l-.571 2.171c-.18-1.266-1.022-2.352-2.614-2.352-1.653 0-3.426.995-4.898 2.472-1.593 1.598-2.795 4.131-2.795 7.176 0 2.653 1.472 4.673 3.786 4.673 1.593 0 3.336-1.116 4.447-3.196l.21.09c-.03.302-.03.422-.03.633 0 1.628.962 2.472 2.224 2.472 1.563 0 3.095-1.116 4.297-4.884l-1.322-.392c-.691 1.899-1.352 3.105-2.104 3.105-.511 0-.721-.302-.721-.784 0-.452.12-1.055.361-1.93l2.494-9.256zm-8.745 12c-1.322 0-1.953-1.116-1.953-2.985 0-2.352 1.863-7.507 4.808-7.507 1.142 0 1.773.905 1.773 2.502 0 2.442-2.043 7.99-4.628 7.99zm11.599-.573c0 1.688.871 2.714 2.554 2.714 1.593 0 3.065-1.116 4.267-4.884l-1.322-.392c-.691 1.899-1.322 3.105-2.164 3.105-.331 0-.661-.181-.661-.754 0-.422.12-1.085.361-1.96l4.327-16.1h-5.499l-.571 2.171h2.735l-3.035 11.155c-.571 2.141-.992 3.859-.992 4.945zm8.745 0c0 1.688.871 2.714 2.554 2.714 1.593 0 3.065-1.116 4.267-4.884l-1.322-.392c-.691 1.899-1.322 3.105-2.164 3.105-.331 0-.661-.181-.661-.754 0-.422.12-1.085.361-1.96l4.327-16.1h-5.499l-.571 2.171h2.735l-3.035 11.155c-.571 2.141-.992 3.859-.992 4.945zm23.74-9.377l.451-1.628h-4.207l1.082-3.95-2.915.302-.992 3.648h-2.735l-.421 1.628h2.735l-1.683 6.181c-.21.844-.601 2.201-.601 3.196 0 1.779 1.142 2.714 3.035 2.714 1.232 0 3.486-.754 5.078-5.126l-1.352-.392c-.902 1.839-1.833 3.347-2.945 3.347-.661 0-.992-.302-.992-1.055 0-.392.15-1.085.391-1.99l1.893-6.874h4.177zm11.479 12.09c1.382 0 2.945-1.116 4.147-4.884l-1.322-.392c-.691 1.899-1.352 3.105-2.043 3.105-.391 0-.541-.241-.541-.663 0-2.08 2.134-5.849 2.134-8.291 0-1.779-.932-3.196-2.524-3.196-2.043 0-4.447 2.322-6.341 6.392l-.18-.09 3.756-12.964h-5.499l-.571 2.171h2.735l-4.928 18.542h2.975c2.374-8.864 5.469-11.758 6.972-11.758.481 0 .781.271.781 1.055 0 2.261-1.983 5.035-1.983 8.261 0 1.779 1.052 2.714 2.434 2.714zm13.943-19.055c0-1.055-.661-1.688-1.653-1.688-1.352 0-2.224 1.327-2.224 2.472 0 1.055.691 1.658 1.563 1.658 1.382 0 2.314-1.327 2.314-2.442zm-1.623 7.929c0-2.05-1.022-3.196-2.494-3.196-1.833 0-3.336 1.719-4.568 4.553l1.322.603c.902-1.869 1.683-3.256 2.644-3.256.331 0 .481.181.481.693 0 2.111-2.494 5.879-2.494 9.015 0 1.779 1.052 2.714 2.434 2.714 1.653 0 3.245-1.236 4.417-4.884l-1.322-.392c-.841 2.141-1.533 3.105-2.164 3.105-.451 0-.661-.241-.661-.754 0-1.899 2.404-5.909 2.404-8.201zm15.145 8.291c0-2.08 2.134-5.849 2.134-8.291 0-1.779-.932-3.196-2.524-3.196-2.043 0-4.207 2.201-6.1 6.271l-.21-.09c.481-1.296.691-2.442.691-3.347 0-1.869-.811-2.774-2.073-2.774-1.833 0-3.245 1.658-4.477 4.492l1.322.603c.902-1.869 1.713-3.256 2.494-3.256.661 0 .691.573.24 2.291l-2.614 9.859h2.975c2.374-8.864 5.169-11.758 6.671-11.758.481 0 .781.271.781 1.055 0 2.261-1.983 5.035-1.983 8.261 0 1.779 1.052 2.714 2.434 2.714 1.382 0 2.945-1.116 4.147-4.884l-1.322-.392c-.691 1.899-1.352 3.105-2.043 3.105-.391 0-.541-.241-.541-.663zm6.731 5.668c.3-.302.631-.935.631-1.477 0-.814-.481-1.538-1.533-1.538-1.232 0-1.893 1.236-1.893 2.201 0 2.141 2.374 2.744 4.628 2.744 4.057 0 6.401-2.322 7.693-7.839l2.614-11.065h-2.765l-.511 2.111c-.331-1.327-1.442-2.291-2.975-2.291-1.653 0-3.095.724-4.447 2.08-1.803 1.809-2.825 4.311-2.825 7.025 0 2.322 1.442 4.311 3.907 4.311 1.472 0 3.035-.784 3.997-2.05l.21.09c-.541 2.382-1.172 3.98-2.073 4.914-.721.754-1.563 1.116-2.735 1.116-.841 0-1.533-.151-1.923-.332zm3.576-5.729c-1.352 0-2.013-.874-2.013-2.563 0-2.985 1.773-7.176 4.477-7.176 1.082 0 2.104 1.085 2.104 2.683 0 3.316-2.164 7.055-4.568 7.055zm19.953-1.809c0-2.05-1.653-2.834-3.245-3.558-1.713-.754-2.855-1.327-2.855-2.502 0-1.447 1.202-2.141 2.614-2.141.992 0 2.013.332 2.314.663-.451.332-.781 1.025-.781 1.598 0 .844.631 1.447 1.472 1.447 1.112 0 1.743-.995 1.743-2.111 0-1.749-1.953-3.015-4.778-3.015-2.314 0-5.259 1.447-5.259 4.613 0 1.99 1.683 2.804 3.275 3.528 1.653.724 2.825 1.296 2.825 2.442 0 1.568-1.082 2.291-2.614 2.291-1.052 0-2.194-.332-2.765-.904.331-.241.721-.844.721-1.628 0-.754-.541-1.507-1.503-1.507-1.142 0-1.803 1.025-1.803 2.08 0 2.382 3.035 3.407 5.349 3.407 2.795 0 5.289-1.628 5.289-4.703zm16.918 4.914c4.718 0 7.603-3.497 9.105-7.688l-1.863-.724c-1.593 3.678-3.666 6.301-6.972 6.301-3.035 0-4.958-2.111-4.958-6.09 0-3.648 2.013-10.613 7.723-10.613 2.584 0 4.477 1.296 4.868 5.879h1.773l1.923-7.779h-2.013l-1.112 2.291c-.992-1.477-2.855-2.382-5.319-2.382-6.28 0-11.179 5.94-11.179 12.452 0 4.703 2.404 8.352 8.023 8.352zm24.881-14.351h-2.765l-.571 2.171c-.18-1.266-1.022-2.352-2.614-2.352-1.653 0-3.426.995-4.898 2.472-1.593 1.598-2.795 4.131-2.795 7.176 0 2.653 1.472 4.673 3.786 4.673 1.593 0 3.336-1.116 4.447-3.196l.21.09c-.03.302-.03.422-.03.633 0 1.628.962 2.472 2.224 2.472 1.563 0 3.095-1.116 4.297-4.884l-1.322-.392c-.691 1.899-1.352 3.105-2.104 3.105-.511 0-.721-.302-.721-.784 0-.452.12-1.055.361-1.93l2.494-9.256zm-8.745 12c-1.322 0-1.953-1.116-1.953-2.985 0-2.352 1.863-7.507 4.808-7.507 1.142 0 1.773.905 1.773 2.502 0 2.442-2.043 7.99-4.628 7.99zm21.516-9.95l.451-1.628h-4.207l1.082-3.95-2.915.302-.992 3.648h-2.735l-.421 1.628h2.735l-1.683 6.181c-.21.844-.601 2.201-.601 3.196 0 1.779 1.142 2.714 3.035 2.714 1.232 0 3.486-.754 5.078-5.126l-1.352-.392c-.902 1.839-1.833 3.347-2.945 3.347-.661 0-.992-.302-.992-1.055 0-.392.15-1.085.391-1.99l1.893-6.874h4.177zm11.479 12.09c1.382 0 2.945-1.116 4.147-4.884l-1.322-.392c-.691 1.899-1.352 3.105-2.043 3.105-.391 0-.541-.241-.541-.663 0-2.08 2.134-5.849 2.134-8.291 0-1.779-.932-3.196-2.524-3.196-2.043 0-4.447 2.322-6.341 6.392l-.18-.09 3.756-12.964h-5.499l-.571 2.171h2.735l-4.928 18.542h2.975c2.374-8.864 5.469-11.758 6.972-11.758.481 0 .781.271.781 1.055 0 2.261-1.983 5.035-1.983 8.261 0 1.779 1.052 2.714 2.434 2.714zm13.102-14.321c-4.027 0-7.513 3.95-7.513 8.532 0 3.377 2.013 5.789 5.319 5.789 4.027 0 7.513-3.95 7.513-8.532 0-3.377-2.013-5.789-5.319-5.789zm2.404 4.523c0 3.226-1.713 8.291-4.598 8.291-1.563 0-2.404-1.025-2.404-3.015 0-3.226 1.713-8.291 4.598-8.291 1.563 0 2.404 1.025 2.404 3.015zm5.078 7.085c0 1.688.871 2.714 2.554 2.714 1.593 0 3.065-1.116 4.267-4.884l-1.322-.392c-.691 1.899-1.322 3.105-2.164 3.105-.331 0-.661-.181-.661-.754 0-.422.12-1.085.361-1.96l4.327-16.1h-5.499l-.571 2.171h2.735l-3.035 11.155c-.571 2.141-.992 3.859-.992 4.945zm16.708-16.341c0-1.055-.661-1.688-1.653-1.688-1.352 0-2.224 1.327-2.224 2.472 0 1.055.691 1.658 1.563 1.658 1.382 0 2.314-1.327 2.314-2.442zm-1.623 7.929c0-2.05-1.022-3.196-2.494-3.196-1.833 0-3.336 1.719-4.568 4.553l1.322.603c.902-1.869 1.683-3.256 2.644-3.256.331 0 .481.181.481.693 0 2.111-2.494 5.879-2.494 9.015 0 1.779 1.052 2.714 2.434 2.714 1.653 0 3.245-1.236 4.417-4.884l-1.322-.392c-.841 2.141-1.533 3.105-2.164 3.105-.451 0-.661-.241-.661-.754 0-1.899 2.404-5.909 2.404-8.201zm11.299-3.196c-4.087 0-8.023 4.372-8.023 8.894 0 3.166 2.104 5.427 5.199 5.427 2.735 0 4.327-1.779 5.619-4.191l-1.232-.724c-1.172 1.99-2.524 3.105-3.937 3.105-1.442 0-2.735-.905-2.735-3.407 0-2.382 1.803-7.598 5.048-7.598.902 0 1.442.332 1.683.633-.721.633-1.022 1.327-1.022 1.99 0 .814.631 1.477 1.593 1.477 1.202 0 1.833-1.266 1.833-2.322 0-1.779-1.563-3.286-4.027-3.286z" fill="#444"/></g></svg>